<?xml version="1.0" encoding="UTF-8" standalone="no"?><svg xmlns="http://www.w3.org/2000/svg" xmlns:xlink="http://www.w3.org/1999/xlink" clip-rule="evenodd" stroke-miterlimit="4.00" viewBox="0 0 1024 768"><desc>SVG generated by Keynote</desc><defs></defs><g transform="matrix(1.00, 0.00, -0.00, -1.00, 0.0, 768.0)"><path d="M 0.0 768.0 L 1024.0 768.0 L 1024.0 0.0 L 0.0 0.0 Z M 0.0 768.0 " fill="#212121"></path><path d="M 0.0 0.0 L 960.0 0.0 " fill="none" stroke="#A6AAA9" stroke-width="2.00" transform="matrix(1.00, 0.00, 0.00, -1.00, 32.0, 689.8)"></path><path d="M 46.8 582.0 C 41.4 582.0 37.0 577.6 37.0 572.2 L 37.0 223.8 C 37.0 218.4 41.4 214.0 46.8 214.0 L 794.7 214.0 L 822.1 170.2 L 849.4 214.0 L 977.2 214.0 C 982.6 214.0 987.0 218.4 987.0 223.8 L 987.0 572.2 C 987.0 577.6 982.6 582.0 977.2 582.0 L 46.8 582.0 Z M 46.8 582.0 " fill="#34A4DA"></path><text xml:space="preserve" font-family="DINCondensed-Bold" font-weight="bold" font-size="89.0" fill="#FFFFFF" transform="matrix(1.00, 0.00, -0.00, -1.00, 74.0, 471.0)">T</text><text xml:space="preserve" font-family="DINCondensed-Bold" font-weight="bold" font-size="89.0" fill="#FFFFFF" transform="matrix(1.00, 0.00, -0.00, -1.00, 103.5, 471.0)">I</text><text xml:space="preserve" font-family="DINCondensed-Bold" font-weight="bold" font-size="89.0" fill="#FFFFFF" transform="matrix(1.00, 0.00, -0.00, -1.00, 121.7, 471.0)">D</text><text xml:space="preserve" font-family="DINCondensed-Bold" font-weight="bold" font-size="89.0" fill="#FFFFFF" transform="matrix(1.00, 0.00, -0.00, -1.00, 158.0, 471.0)">Y</text><text xml:space="preserve" font-family="DINCondensed-Bold" font-weight="bold" font-size="89.0" fill="#FFFFFF" transform="matrix(1.00, 0.00, -0.00, -1.00, 192.5, 471.0)"> </text><text xml:space="preserve" font-family="DINCondensed-Bold" font-weight="bold" font-size="89.0" fill="#FFFFFF" transform="matrix(1.00, 0.00, -0.00, -1.00, 209.1, 471.0)">D</text><text xml:space="preserve" font-family="DINCondensed-Bold" font-weight="bold" font-size="89.0" fill="#FFFFFF" transform="matrix(1.00, 0.00, -0.00, -1.00, 245.9, 471.0)">A</text><text xml:space="preserve" font-family="DINCondensed-Bold" font-weight="bold" font-size="89.0" fill="#FFFFFF" transform="matrix(1.00, 0.00, -0.00, -1.00, 277.3, 471.0)">T</text><text xml:space="preserve" font-family="DINCondensed-Bold" font-weight="bold" font-size="89.0" fill="#FFFFFF" transform="matrix(1.00, 0.00, -0.00, -1.00, 301.9, 471.0)">A</text><text xml:space="preserve" font-family="DINCondensed-Bold" font-weight="bold" font-size="89.0" fill="#FFFFFF" transform="matrix(1.00, 0.00, -0.00, -1.00, 338.2, 471.0)">S</text><text xml:space="preserve" font-family="DINCondensed-Bold" font-weight="bold" font-size="89.0" fill="#FFFFFF" transform="matrix(1.00, 0.00, -0.00, -1.00, 374.3, 471.0)">E</text><text xml:space="preserve" font-family="DINCondensed-Bold" font-weight="bold" font-size="89.0" fill="#FFFFFF" transform="matrix(1.00, 0.00, -0.00, -1.00, 407.2, 471.0)">T</text><text xml:space="preserve" font-family="DINCondensed-Bold" font-weight="bold" font-size="89.0" fill="#FFFFFF" transform="matrix(1.00, 0.00, -0.00, -1.00, 436.8, 471.0)">S</text><text xml:space="preserve" font-family="DINCondensed-Bold" font-weight="bold" font-size="89.0" fill="#FFFFFF" transform="matrix(1.00, 0.00, -0.00, -1.00, 472.9, 471.0)"> </text><text xml:space="preserve" font-family="DINCondensed-Bold" font-weight="bold" font-size="89.0" fill="#FFFFFF" transform="matrix(1.00, 0.00, -0.00, -1.00, 489.5, 471.0)">A</text><text xml:space="preserve" font-family="DINCondensed-Bold" font-weight="bold" font-size="89.0" fill="#FFFFFF" transform="matrix(1.00, 0.00, -0.00, -1.00, 525.7, 471.0)">R</text><text xml:space="preserve" font-family="DINCondensed-Bold" font-weight="bold" font-size="89.0" fill="#FFFFFF" transform="matrix(1.00, 0.00, -0.00, -1.00, 563.6, 471.0)">E</text><text xml:space="preserve" font-family="DINCondensed-Bold" font-weight="bold" font-size="89.0" fill="#FFFFFF" transform="matrix(1.00, 0.00, -0.00, -1.00, 596.5, 471.0)"> </text><text xml:space="preserve" font-family="DINCondensed-Bold" font-weight="bold" font-size="89.0" fill="#FFFFFF" transform="matrix(1.00, 0.00, -0.00, -1.00, 613.1, 471.0)">A</text><text xml:space="preserve" font-family="DINCondensed-Bold" font-weight="bold" font-size="89.0" fill="#FFFFFF" transform="matrix(1.00, 0.00, -0.00, -1.00, 649.3, 471.0)">L</text><text xml:space="preserve" font-family="DINCondensed-Bold" font-weight="bold" font-size="89.0" fill="#FFFFFF" transform="matrix(1.00, 0.00, -0.00, -1.00, 682.2, 471.0)">L</text><text xml:space="preserve" font-family="DINCondensed-Bold" font-weight="bold" font-size="89.0" fill="#FFFFFF" transform="matrix(1.00, 0.00, -0.00, -1.00, 715.2, 471.0)"> </text><text xml:space="preserve" font-family="DINCondensed-Bold" font-weight="bold" font-size="89.0" fill="#FFFFFF" transform="matrix(1.00, 0.00, -0.00, -1.00, 731.7, 471.0)">A</text><text xml:space="preserve" font-family="DINCondensed-Bold" font-weight="bold" font-size="89.0" fill="#FFFFFF" transform="matrix(1.00, 0.00, -0.00, -1.00, 767.9, 471.0)">L</text><text xml:space="preserve" font-family="DINCondensed-Bold" font-weight="bold" font-size="89.0" fill="#FFFFFF" transform="matrix(1.00, 0.00, -0.00, -1.00, 800.9, 471.0)">I</text><text xml:space="preserve" font-family="DINCondensed-Bold" font-weight="bold" font-size="89.0" fill="#FFFFFF" transform="matrix(1.00, 0.00, -0.00, -1.00, 819.0, 471.0)">K</text><text xml:space="preserve" font-family="DINCondensed-Bold" font-weight="bold" font-size="89.0" fill="#FFFFFF" transform="matrix(1.00, 0.00, -0.00, -1.00, 856.9, 471.0)">E</text><text xml:space="preserve" font-family="DINCondensed-Bold" font-weight="bold" font-size="89.0" fill="#FFFFFF" transform="matrix(1.00, 0.00, -0.00, -1.00, 889.9, 471.0)">,</text><text xml:space="preserve" font-family="DINCondensed-Bold" font-weight="bold" font-size="89.0" fill="#FFFFFF" transform="matrix(1.00, 0.00, -0.00, -1.00, 906.4, 471.0)"> </text><text xml:space="preserve" font-family="DINCondensed-Bold" font-weight="bold" font-size="89.0" fill="#FFFFFF" transform="matrix(1.00, 0.00, -0.00, -1.00, 74.0, 382.0)">B</text><text xml:space="preserve" font-family="DINCondensed-Bold" font-weight="bold" font-size="89.0" fill="#FFFFFF" transform="matrix(1.00, 0.00, -0.00, -1.00, 111.9, 382.0)">U</text><text xml:space="preserve" font-family="DINCondensed-Bold" font-weight="bold" font-size="89.0" fill="#FFFFFF" transform="matrix(1.00, 0.00, -0.00, -1.00, 149.8, 382.0)">T</text><text xml:space="preserve" font-family="DINCondensed-Bold" font-weight="bold" font-size="89.0" fill="#FFFFFF" transform="matrix(1.00, 0.00, -0.00, -1.00, 179.4, 382.0)"> </text><text xml:space="preserve" font-family="DINCondensed-Bold" font-weight="bold" font-size="89.0" fill="#FFFFFF" transform="matrix(1.00, 0.00, -0.00, -1.00, 195.9, 382.0)">E</text><text xml:space="preserve" font-family="DINCondensed-Bold" font-weight="bold" font-size="89.0" fill="#FFFFFF" transform="matrix(1.00, 0.00, -0.00, -1.00, 228.9, 382.0)">V</text><text xml:space="preserve" font-family="DINCondensed-Bold" font-weight="bold" font-size="89.0" fill="#FFFFFF" transform="matrix(1.00, 0.00, -0.00, -1.00, 265.1, 382.0)">E</text><text xml:space="preserve" font-family="DINCondensed-Bold" font-weight="bold" font-size="89.0" fill="#FFFFFF" transform="matrix(1.00, 0.00, -0.00, -1.00, 298.0, 382.0)">R</text><text xml:space="preserve" font-family="DINCondensed-Bold" font-weight="bold" font-size="89.0" fill="#FFFFFF" transform="matrix(1.00, 0.00, -0.00, -1.00, 334.3, 382.0)">Y</text><text xml:space="preserve" font-family="DINCondensed-Bold" font-weight="bold" font-size="89.0" fill="#FFFFFF" transform="matrix(1.00, 0.00, -0.00, -1.00, 368.9, 382.0)"> </text><text xml:space="preserve" font-family="DINCondensed-Bold" font-weight="bold" font-size="89.0" fill="#FFFFFF" transform="matrix(1.00, 0.00, -0.00, -1.00, 385.4, 382.0)">M</text><text xml:space="preserve" font-family="DINCondensed-Bold" font-weight="bold" font-size="89.0" fill="#FFFFFF" transform="matrix(1.00, 0.00, -0.00, -1.00, 434.9, 382.0)">E</text><text xml:space="preserve" font-family="DINCondensed-Bold" font-weight="bold" font-size="89.0" fill="#FFFFFF" transform="matrix(1.00, 0.00, -0.00, -1.00, 467.8, 382.0)">S</text><text xml:space="preserve" font-family="DINCondensed-Bold" font-weight="bold" font-size="89.0" fill="#FFFFFF" transform="matrix(1.00, 0.00, -0.00, -1.00, 504.0, 382.0)">S</text><text xml:space="preserve" font-family="DINCondensed-Bold" font-weight="bold" font-size="89.0" fill="#FFFFFF" transform="matrix(1.00, 0.00, -0.00, -1.00, 540.1, 382.0)">Y</text><text xml:space="preserve" font-family="DINCondensed-Bold" font-weight="bold" font-size="89.0" fill="#FFFFFF" transform="matrix(1.00, 0.00, -0.00, -1.00, 574.6, 382.0)"> </text><text xml:space="preserve" font-family="DINCondensed-Bold" font-weight="bold" font-size="89.0" fill="#FFFFFF" transform="matrix(1.00, 0.00, -0.00, -1.00, 591.2, 382.0)">D</text><text xml:space="preserve" font-family="DINCondensed-Bold" font-weight="bold" font-size="89.0" fill="#FFFFFF" transform="matrix(1.00, 0.00, -0.00, -1.00, 628.0, 382.0)">A</text><text xml:space="preserve" font-family="DINCondensed-Bold" font-weight="bold" font-size="89.0" fill="#FFFFFF" transform="matrix(1.00, 0.00, -0.00, -1.00, 659.4, 382.0)">T</text><text xml:space="preserve" font-family="DINCondensed-Bold" font-weight="bold" font-size="89.0" fill="#FFFFFF" transform="matrix(1.00, 0.00, -0.00, -1.00, 684.0, 382.0)">A</text><text xml:space="preserve" font-family="DINCondensed-Bold" font-weight="bold" font-size="89.0" fill="#FFFFFF" transform="matrix(1.00, 0.00, -0.00, -1.00, 720.2, 382.0)">S</text><text xml:space="preserve" font-family="DINCondensed-Bold" font-weight="bold" font-size="89.0" fill="#FFFFFF" transform="matrix(1.00, 0.00, -0.00, -1.00, 756.4, 382.0)">E</text><text xml:space="preserve" font-family="DINCondensed-Bold" font-weight="bold" font-size="89.0" fill="#FFFFFF" transform="matrix(1.00, 0.00, -0.00, -1.00, 789.3, 382.0)">T</text><text xml:space="preserve" font-family="DINCondensed-Bold" font-weight="bold" font-size="89.0" fill="#FFFFFF" transform="matrix(1.00, 0.00, -0.00, -1.00, 818.8, 382.0)"> </text><text xml:space="preserve" font-family="DINCondensed-Bold" font-weight="bold" font-size="89.0" fill="#FFFFFF" transform="matrix(1.00, 0.00, -0.00, -1.00, 835.4, 382.0)">I</text><text xml:space="preserve" font-family="DINCondensed-Bold" font-weight="bold" font-size="89.0" fill="#FFFFFF" transform="matrix(1.00, 0.00, -0.00, -1.00, 853.6, 382.0)">S</text><text xml:space="preserve" font-family="DINCondensed-Bold" font-weight="bold" font-size="89.0" fill="#FFFFFF" transform="matrix(1.00, 0.00, -0.00, -1.00, 889.7, 382.0)"> </text><text xml:space="preserve" font-family="DINCondensed-Bold" font-weight="bold" font-size="89.0" fill="#FFFFFF" transform="matrix(1.00, 0.00, -0.00, -1.00, 74.0, 293.0)">M</text><text xml:space="preserve" font-family="DINCondensed-Bold" font-weight="bold" font-size="89.0" fill="#FFFFFF" transform="matrix(1.00, 0.00, -0.00, -1.00, 123.5, 293.0)">E</text><text xml:space="preserve" font-family="DINCondensed-Bold" font-weight="bold" font-size="89.0" fill="#FFFFFF" transform="matrix(1.00, 0.00, -0.00, -1.00, 156.4, 293.0)">S</text><text xml:space="preserve" font-family="DINCondensed-Bold" font-weight="bold" font-size="89.0" fill="#FFFFFF" transform="matrix(1.00, 0.00, -0.00, -1.00, 192.5, 293.0)">S</text><text xml:space="preserve" font-family="DINCondensed-Bold" font-weight="bold" font-size="89.0" fill="#FFFFFF" transform="matrix(1.00, 0.00, -0.00, -1.00, 228.7, 293.0)">Y</text><text xml:space="preserve" font-family="DINCondensed-Bold" font-weight="bold" font-size="89.0" fill="#FFFFFF" transform="matrix(1.00, 0.00, -0.00, -1.00, 263.2, 293.0)"> </text><text xml:space="preserve" font-family="DINCondensed-Bold" font-weight="bold" font-size="89.0" fill="#FFFFFF" transform="matrix(1.00, 0.00, -0.00, -1.00, 279.8, 293.0)">I</text><text xml:space="preserve" font-family="DINCondensed-Bold" font-weight="bold" font-size="89.0" fill="#FFFFFF" transform="matrix(1.00, 0.00, -0.00, -1.00, 297.9, 293.0)">N</text><text xml:space="preserve" font-family="DINCondensed-Bold" font-weight="bold" font-size="89.0" fill="#FFFFFF" transform="matrix(1.00, 0.00, -0.00, -1.00, 337.4, 293.0)"> </text><text xml:space="preserve" font-family="DINCondensed-Bold" font-weight="bold" font-size="89.0" fill="#FFFFFF" transform="matrix(1.00, 0.00, -0.00, -1.00, 354.0, 293.0)">I</text><text xml:space="preserve" font-family="DINCondensed-Bold" font-weight="bold" font-size="89.0" fill="#FFFFFF" transform="matrix(1.00, 0.00, -0.00, -1.00, 372.1, 293.0)">T</text><text xml:space="preserve" font-family="DINCondensed-Bold" font-weight="bold" font-size="89.0" fill="#FFFFFF" transform="matrix(1.00, 0.00, -0.00, -1.00, 401.7, 293.0)">S</text><text xml:space="preserve" font-family="DINCondensed-Bold" font-weight="bold" font-size="89.0" fill="#FFFFFF" transform="matrix(1.00, 0.00, -0.00, -1.00, 437.8, 293.0)"> </text><text xml:space="preserve" font-family="DINCondensed-Bold" font-weight="bold" font-size="89.0" fill="#FFFFFF" transform="matrix(1.00, 0.00, -0.00, -1.00, 454.4, 293.0)">O</text><text xml:space="preserve" font-family="DINCondensed-Bold" font-weight="bold" font-size="89.0" fill="#FFFFFF" transform="matrix(1.00, 0.00, -0.00, -1.00, 491.2, 293.0)">W</text><text xml:space="preserve" font-family="DINCondensed-Bold" font-weight="bold" font-size="89.0" fill="#FFFFFF" transform="matrix(1.00, 0.00, -0.00, -1.00, 544.0, 293.0)">N</text><text xml:space="preserve" font-family="DINCondensed-Bold" font-weight="bold" font-size="89.0" fill="#FFFFFF" transform="matrix(1.00, 0.00, -0.00, -1.00, 583.5, 293.0)"> </text><text xml:space="preserve" font-family="DINCondensed-Bold" font-weight="bold" font-size="89.0" fill="#FFFFFF" transform="matrix(1.00, 0.00, -0.00, -1.00, 600.1, 293.0)">W</text><text xml:space="preserve" font-family="DINCondensed-Bold" font-weight="bold" font-size="89.0" fill="#FFFFFF" transform="matrix(1.00, 0.00, -0.00, -1.00, 650.2, 293.0)">A</text><text xml:space="preserve" font-family="DINCondensed-Bold" font-weight="bold" font-size="89.0" fill="#FFFFFF" transform="matrix(1.00, 0.00, -0.00, -1.00, 681.5, 293.0)">Y</text><text xml:space="preserve" font-family="DINCondensed-Bold" font-weight="bold" font-size="60.0" fill="#838686" transform="matrix(1.00, 0.00, -0.00, -1.00, 679.4, 107.9)">H</text><text xml:space="preserve" font-family="DINCondensed-Bold" font-weight="bold" font-size="60.0" fill="#838686" transform="matrix(1.00, 0.00, -0.00, -1.00, 704.9, 107.9)">a</text><text xml:space="preserve" font-family="DINCondensed-Bold" font-weight="bold" font-size="60.0" fill="#838686" transform="matrix(1.00, 0.00, -0.00, -1.00, 727.1, 107.9)">d</text><text xml:space="preserve" font-family="DINCondensed-Bold" font-weight="bold" font-size="60.0" fill="#838686" transform="matrix(1.00, 0.00, -0.00, -1.00, 750.5, 107.9)">l</text><text xml:space="preserve" font-family="DINCondensed-Bold" font-weight="bold" font-size="60.0" fill="#838686" transform="matrix(1.00, 0.00, -0.00, -1.00, 761.6, 107.9)">e</text><text xml:space="preserve" font-family="DINCondensed-Bold" font-weight="bold" font-size="60.0" fill="#838686" transform="matrix(1.00, 0.00, -0.00, -1.00, 783.1, 107.9)">y</text><text xml:space="preserve" font-family="DINCondensed-Bold" font-weight="bold" font-size="60.0" fill="#838686" transform="matrix(1.00, 0.00, -0.00, -1.00, 804.2, 107.9)"> </text><text xml:space="preserve" font-family="DINCondensed-Bold" font-weight="bold" font-size="60.0" fill="#838686" transform="matrix(1.00, 0.00, -0.00, -1.00, 815.4, 107.9)">W</text><text xml:space="preserve" font-family="DINCondensed-Bold" font-weight="bold" font-size="60.0" fill="#838686" transform="matrix(1.00, 0.00, -0.00, -1.00, 851.0, 107.9)">i</text><text xml:space="preserve" font-family="DINCondensed-Bold" font-weight="bold" font-size="60.0" fill="#838686" transform="matrix(1.00, 0.00, -0.00, -1.00, 862.1, 107.9)">c</text><text xml:space="preserve" font-family="DINCondensed-Bold" font-weight="bold" font-size="60.0" fill="#838686" transform="matrix(1.00, 0.00, -0.00, -1.00, 883.6, 107.9)">k</text><text xml:space="preserve" font-family="DINCondensed-Bold" font-weight="bold" font-size="60.0" fill="#838686" transform="matrix(1.00, 0.00, -0.00, -1.00, 906.9, 107.9)">h</text><text xml:space="preserve" font-family="DINCondensed-Bold" font-weight="bold" font-size="60.0" fill="#838686" transform="matrix(1.00, 0.00, -0.00, -1.00, 930.3, 107.9)">a</text><text xml:space="preserve" font-family="DINCondensed-Bold" font-weight="bold" font-size="60.0" fill="#838686" transform="matrix(1.00, 0.00, -0.00, -1.00, 952.5, 107.9)">m</text><text xml:space="preserve" font-family="DINAlternate-Bold" font-weight="bold" font-size="24.0" fill="#838686" transform="matrix(1.00, 0.00, -0.00, -1.00, 36.0, 705.0)">D</text><text xml:space="preserve" font-family="DINAlternate-Bold" font-weight="bold" font-size="24.0" fill="#838686" transform="matrix(1.00, 0.00, -0.00, -1.00, 51.9, 705.0)">A</text><text xml:space="preserve" font-family="DINAlternate-Bold" font-weight="bold" font-size="24.0" fill="#838686" transform="matrix(1.00, 0.00, -0.00, -1.00, 65.9, 705.0)">T</text><text xml:space="preserve" font-family="DINAlternate-Bold" font-weight="bold" font-size="24.0" fill="#838686" transform="matrix(1.00, 0.00, -0.00, -1.00, 77.4, 705.0)">A</text><text xml:space="preserve" font-family="DINAlternate-Bold" font-weight="bold" font-size="24.0" fill="#838686" transform="matrix(1.00, 0.00, -0.00, -1.00, 93.2, 705.0)"> </text><text xml:space="preserve" font-family="DINAlternate-Bold" font-weight="bold" font-size="24.0" fill="#838686" transform="matrix(1.00, 0.00, -0.00, -1.00, 100.1, 705.0)">M</text><text xml:space="preserve" font-family="DINAlternate-Bold" font-weight="bold" font-size="24.0" fill="#838686" transform="matrix(1.00, 0.00, -0.00, -1.00, 119.5, 705.0)">U</text><text xml:space="preserve" font-family="DINAlternate-Bold" font-weight="bold" font-size="24.0" fill="#838686" transform="matrix(1.00, 0.00, -0.00, -1.00, 135.8, 705.0)">N</text><text xml:space="preserve" font-family="DINAlternate-Bold" font-weight="bold" font-size="24.0" fill="#838686" transform="matrix(1.00, 0.00, -0.00, -1.00, 153.4, 705.0)">G</text><text xml:space="preserve" font-family="DINAlternate-Bold" font-weight="bold" font-size="24.0" fill="#838686" transform="matrix(1.00, 0.00, -0.00, -1.00, 169.3, 705.0)">I</text><text xml:space="preserve" font-family="DINAlternate-Bold" font-weight="bold" font-size="24.0" fill="#838686" transform="matrix(1.00, 0.00, -0.00, -1.00, 176.7, 705.0)">N</text><text xml:space="preserve" font-family="DINAlternate-Bold" font-weight="bold" font-size="24.0" fill="#838686" transform="matrix(1.00, 0.00, -0.00, -1.00, 194.3, 705.0)">G</text><text xml:space="preserve" font-family="DINAlternate-Bold" font-weight="bold" font-size="24.0" fill="#838686" transform="matrix(1.00, 0.00, -0.00, -1.00, 210.1, 705.0)"> </text><text xml:space="preserve" font-family="DINAlternate-Bold" font-weight="bold" font-size="24.0" fill="#838686" transform="matrix(1.00, 0.00, -0.00, -1.00, 217.1, 705.0)">A</text><text xml:space="preserve" font-family="DINAlternate-Bold" font-weight="bold" font-size="24.0" fill="#838686" transform="matrix(1.00, 0.00, -0.00, -1.00, 232.9, 705.0)">N</text><text xml:space="preserve" font-family="DINAlternate-Bold" font-weight="bold" font-size="24.0" fill="#838686" transform="matrix(1.00, 0.00, -0.00, -1.00, 250.5, 705.0)">D</text><text xml:space="preserve" font-family="DINAlternate-Bold" font-weight="bold" font-size="24.0" fill="#838686" transform="matrix(1.00, 0.00, -0.00, -1.00, 266.8, 705.0)"> </text><text xml:space="preserve" font-family="DINAlternate-Bold" font-weight="bold" font-size="24.0" fill="#838686" transform="matrix(1.00, 0.00, -0.00, -1.00, 273.8, 705.0)">W</text><text xml:space="preserve" font-family="DINAlternate-Bold" font-weight="bold" font-size="24.0" fill="#838686" transform="matrix(1.00, 0.00, -0.00, -1.00, 294.9, 705.0)">R</text><text xml:space="preserve" font-family="DINAlternate-Bold" font-weight="bold" font-size="24.0" fill="#838686" transform="matrix(1.00, 0.00, -0.00, -1.00, 310.8, 705.0)">A</text><text xml:space="preserve" font-family="DINAlternate-Bold" font-weight="bold" font-size="24.0" fill="#838686" transform="matrix(1.00, 0.00, -0.00, -1.00, 326.6, 705.0)">N</text><text xml:space="preserve" font-family="DINAlternate-Bold" font-weight="bold" font-size="24.0" fill="#838686" transform="matrix(1.00, 0.00, -0.00, -1.00, 344.2, 705.0)">G</text><text xml:space="preserve" font-family="DINAlternate-Bold" font-weight="bold" font-size="24.0" fill="#838686" transform="matrix(1.00, 0.00, -0.00, -1.00, 360.0, 705.0)">L</text><text xml:space="preserve" font-family="DINAlternate-Bold" font-weight="bold" font-size="24.0" fill="#838686" transform="matrix(1.00, 0.00, -0.00, -1.00, 374.6, 705.0)">I</text><text xml:space="preserve" font-family="DINAlternate-Bold" font-weight="bold" font-size="24.0" fill="#838686" transform="matrix(1.00, 0.00, -0.00, -1.00, 382.0, 705.0)">N</text><text xml:space="preserve" font-family="DINAlternate-Bold" font-weight="bold" font-size="24.0" fill="#838686" transform="matrix(1.00, 0.00, -0.00, -1.00, 399.6, 705.0)">G</text></g></svg>