<?xml version="1.0" encoding="UTF-8" standalone="no"?><svg xmlns="http://www.w3.org/2000/svg" xmlns:xlink="http://www.w3.org/1999/xlink" clip-rule="evenodd" stroke-miterlimit="4.00" viewBox="0 0 555 56"><desc>SVG generated by Keynote</desc><defs></defs><g transform="matrix(1.00, 0.00, -0.00, -1.00, 0.0, 56.0)"><text xml:space="preserve" font-family="AvenirNext-Medium" font-size="70.0" fill="#FF2600" transform="matrix(1.00, 0.00, -0.00, -1.00, -5.0, 3.0)">D</text><text xml:space="preserve" font-family="AvenirNext-Medium" font-size="70.0" fill="#FF2600" transform="matrix(1.00, 0.00, -0.00, -1.00, 48.3, 3.0)">O</text><text xml:space="preserve" font-family="AvenirNext-Medium" font-size="70.0" fill="#FF2600" transform="matrix(1.00, 0.00, -0.00, -1.00, 107.7, 3.0)">N</text><text xml:space="preserve" font-family="AvenirNext-Medium" font-size="70.0" fill="#FF2600" transform="matrix(1.00, 0.00, -0.00, -1.00, 161.7, 3.0)">’</text><text xml:space="preserve" font-family="AvenirNext-Medium" font-size="70.0" fill="#FF2600" transform="matrix(1.00, 0.00, -0.00, -1.00, 179.0, 3.0)">T</text><text xml:space="preserve" font-family="AvenirNext-Medium" font-size="70.0" fill="#FF2600" transform="matrix(1.00, 0.00, -0.00, -1.00, 217.1, 3.0)"> </text><text xml:space="preserve" font-family="AvenirNext-Medium" font-size="70.0" fill="#FF2600" transform="matrix(1.00, 0.00, -0.00, -1.00, 234.6, 3.0)">D</text><text xml:space="preserve" font-family="AvenirNext-Medium" font-size="70.0" fill="#FF2600" transform="matrix(1.00, 0.00, -0.00, -1.00, 287.9, 3.0)">O</text><text xml:space="preserve" font-family="AvenirNext-Medium" font-size="70.0" fill="#FF2600" transform="matrix(1.00, 0.00, -0.00, -1.00, 347.3, 3.0)"> </text><text xml:space="preserve" font-family="AvenirNext-Medium" font-size="70.0" fill="#FF2600" transform="matrix(1.00, 0.00, -0.00, -1.00, 363.1, 3.0)">T</text><text xml:space="preserve" font-family="AvenirNext-Medium" font-size="70.0" fill="#FF2600" transform="matrix(1.00, 0.00, -0.00, -1.00, 403.0, 3.0)">H</text><text xml:space="preserve" font-family="AvenirNext-Medium" font-size="70.0" fill="#FF2600" transform="matrix(1.00, 0.00, -0.00, -1.00, 454.0, 3.0)">I</text><text xml:space="preserve" font-family="AvenirNext-Medium" font-size="70.0" fill="#FF2600" transform="matrix(1.00, 0.00, -0.00, -1.00, 473.0, 3.0)">S</text><text xml:space="preserve" font-family="AvenirNext-Medium" font-size="70.0" fill="#FF2600" transform="matrix(1.00, 0.00, -0.00, -1.00, 512.8, 3.0)">!</text><text xml:space="preserve" font-family="AvenirNext-Medium" font-size="70.0" fill="#FF2600" transform="matrix(1.00, 0.00, -0.00, -1.00, 536.2, 3.0)">!</text></g></svg>