<?xml version="1.0" encoding="UTF-8" standalone="no"?><svg xmlns="http://www.w3.org/2000/svg" xmlns:xlink="http://www.w3.org/1999/xlink" clip-rule="evenodd" stroke-miterlimit="4.00" viewBox="0 0 1024 768"><desc>SVG generated by Keynote</desc><defs></defs><g transform="matrix(1.00, 0.00, -0.00, -1.00, 0.0, 768.0)"><path d="M 0.0 768.0 L 1024.0 768.0 L 1024.0 0.0 L 0.0 0.0 Z M 0.0 768.0 " fill="#212121"></path><path d="M 0.0 0.0 L 960.0 0.0 " fill="none" stroke="#A6AAA9" stroke-width="2.00" transform="matrix(1.00, 0.00, 0.00, -1.00, 32.0, 689.8)"></path><text xml:space="preserve" font-family="DINAlternate-Bold" font-weight="bold" font-size="24.0" fill="#838686" transform="matrix(1.00, 0.00, -0.00, -1.00, 36.0, 705.0)">D</text><text xml:space="preserve" font-family="DINAlternate-Bold" font-weight="bold" font-size="24.0" fill="#838686" transform="matrix(1.00, 0.00, -0.00, -1.00, 51.9, 705.0)">A</text><text xml:space="preserve" font-family="DINAlternate-Bold" font-weight="bold" font-size="24.0" fill="#838686" transform="matrix(1.00, 0.00, -0.00, -1.00, 65.9, 705.0)">T</text><text xml:space="preserve" font-family="DINAlternate-Bold" font-weight="bold" font-size="24.0" fill="#838686" transform="matrix(1.00, 0.00, -0.00, -1.00, 77.4, 705.0)">A</text><text xml:space="preserve" font-family="DINAlternate-Bold" font-weight="bold" font-size="24.0" fill="#838686" transform="matrix(1.00, 0.00, -0.00, -1.00, 93.2, 705.0)"> </text><text xml:space="preserve" font-family="DINAlternate-Bold" font-weight="bold" font-size="24.0" fill="#838686" transform="matrix(1.00, 0.00, -0.00, -1.00, 100.1, 705.0)">I</text><text xml:space="preserve" font-family="DINAlternate-Bold" font-weight="bold" font-size="24.0" fill="#838686" transform="matrix(1.00, 0.00, -0.00, -1.00, 107.5, 705.0)">N</text><text xml:space="preserve" font-family="DINAlternate-Bold" font-weight="bold" font-size="24.0" fill="#838686" transform="matrix(1.00, 0.00, -0.00, -1.00, 125.1, 705.0)">G</text><text xml:space="preserve" font-family="DINAlternate-Bold" font-weight="bold" font-size="24.0" fill="#838686" transform="matrix(1.00, 0.00, -0.00, -1.00, 141.0, 705.0)">E</text><text xml:space="preserve" font-family="DINAlternate-Bold" font-weight="bold" font-size="24.0" fill="#838686" transform="matrix(1.00, 0.00, -0.00, -1.00, 155.5, 705.0)">S</text><text xml:space="preserve" font-family="DINAlternate-Bold" font-weight="bold" font-size="24.0" fill="#838686" transform="matrix(1.00, 0.00, -0.00, -1.00, 170.5, 705.0)">T</text><text xml:space="preserve" font-family="DINAlternate-Bold" font-weight="bold" font-size="24.0" fill="#838686" transform="matrix(1.00, 0.00, -0.00, -1.00, 183.7, 705.0)">I</text><text xml:space="preserve" font-family="DINAlternate-Bold" font-weight="bold" font-size="24.0" fill="#838686" transform="matrix(1.00, 0.00, -0.00, -1.00, 191.0, 705.0)">O</text><text xml:space="preserve" font-family="DINAlternate-Bold" font-weight="bold" font-size="24.0" fill="#838686" transform="matrix(1.00, 0.00, -0.00, -1.00, 206.9, 705.0)">N</text><text xml:space="preserve" font-family="DINCondensed-Bold" font-weight="bold" font-size="48.0" fill="#34A4DA" transform="matrix(1.00, 0.00, -0.00, -1.00, 36.0, 608.0)">R</text><text xml:space="preserve" font-family="DINCondensed-Bold" font-weight="bold" font-size="48.0" fill="#34A4DA" transform="matrix(1.00, 0.00, -0.00, -1.00, 56.4, 608.0)">A</text><text xml:space="preserve" font-family="DINCondensed-Bold" font-weight="bold" font-size="48.0" fill="#34A4DA" transform="matrix(1.00, 0.00, -0.00, -1.00, 74.2, 608.0)">W</text><text xml:space="preserve" font-family="DINCondensed-Bold" font-weight="bold" font-size="48.0" fill="#34A4DA" transform="matrix(1.00, 0.00, -0.00, -1.00, 102.7, 608.0)"> </text><text xml:space="preserve" font-family="DINCondensed-Bold" font-weight="bold" font-size="48.0" fill="#34A4DA" transform="matrix(1.00, 0.00, -0.00, -1.00, 111.6, 608.0)">D</text><text xml:space="preserve" font-family="DINCondensed-Bold" font-weight="bold" font-size="48.0" fill="#34A4DA" transform="matrix(1.00, 0.00, -0.00, -1.00, 131.5, 608.0)">A</text><text xml:space="preserve" font-family="DINCondensed-Bold" font-weight="bold" font-size="48.0" fill="#34A4DA" transform="matrix(1.00, 0.00, -0.00, -1.00, 148.4, 608.0)">T</text><text xml:space="preserve" font-family="DINCondensed-Bold" font-weight="bold" font-size="48.0" fill="#34A4DA" transform="matrix(1.00, 0.00, -0.00, -1.00, 161.7, 608.0)">A</text><text xml:space="preserve" font-family="DINCondensed-Bold" font-weight="bold" font-size="48.0" fill="#34A4DA" transform="matrix(1.00, 0.00, -0.00, -1.00, 181.2, 608.0)"> </text><text xml:space="preserve" font-family="DINCondensed-Bold" font-weight="bold" font-size="48.0" fill="#34A4DA" transform="matrix(1.00, 0.00, -0.00, -1.00, 190.1, 608.0)">S</text><text xml:space="preserve" font-family="DINCondensed-Bold" font-weight="bold" font-size="48.0" fill="#34A4DA" transform="matrix(1.00, 0.00, -0.00, -1.00, 209.6, 608.0)">T</text><text xml:space="preserve" font-family="DINCondensed-Bold" font-weight="bold" font-size="48.0" fill="#34A4DA" transform="matrix(1.00, 0.00, -0.00, -1.00, 225.0, 608.0)">O</text><text xml:space="preserve" font-family="DINCondensed-Bold" font-weight="bold" font-size="48.0" fill="#34A4DA" transform="matrix(1.00, 0.00, -0.00, -1.00, 245.4, 608.0)">R</text><text xml:space="preserve" font-family="DINCondensed-Bold" font-weight="bold" font-size="48.0" fill="#34A4DA" transform="matrix(1.00, 0.00, -0.00, -1.00, 265.9, 608.0)">A</text><text xml:space="preserve" font-family="DINCondensed-Bold" font-weight="bold" font-size="48.0" fill="#34A4DA" transform="matrix(1.00, 0.00, -0.00, -1.00, 285.4, 608.0)">G</text><text xml:space="preserve" font-family="DINCondensed-Bold" font-weight="bold" font-size="48.0" fill="#34A4DA" transform="matrix(1.00, 0.00, -0.00, -1.00, 305.9, 608.0)">E</text><text xml:space="preserve" font-family="LucidaGrande" font-size="35.7" fill="#34A4DA" transform="matrix(1.00, 0.00, -0.00, -1.00, 36.0, 511.0)">▸</text><text xml:space="preserve" font-family="AvenirNext-Medium" font-size="34.0" fill="#838686" transform="matrix(1.00, 0.00, -0.00, -1.00, 71.0, 514.0)">T</text><text xml:space="preserve" font-family="AvenirNext-Medium" font-size="34.0" fill="#838686" transform="matrix(1.00, 0.00, -0.00, -1.00, 87.1, 514.0)">e</text><text xml:space="preserve" font-family="AvenirNext-Medium" font-size="34.0" fill="#838686" transform="matrix(1.00, 0.00, -0.00, -1.00, 106.2, 514.0)">x</text><text xml:space="preserve" font-family="AvenirNext-Medium" font-size="34.0" fill="#838686" transform="matrix(1.00, 0.00, -0.00, -1.00, 123.6, 514.0)">t</text><text xml:space="preserve" font-family="AvenirNext-Medium" font-size="34.0" fill="#838686" transform="matrix(1.00, 0.00, -0.00, -1.00, 134.8, 514.0)"> </text><text xml:space="preserve" font-family="AvenirNext-Medium" font-size="34.0" fill="#838686" transform="matrix(1.00, 0.00, -0.00, -1.00, 143.3, 514.0)">ﬁ</text><text xml:space="preserve" font-family="AvenirNext-Medium" font-size="34.0" fill="#838686" transform="matrix(1.00, 0.00, -0.00, -1.00, 162.8, 514.0)">l</text><text xml:space="preserve" font-family="AvenirNext-Medium" font-size="34.0" fill="#838686" transform="matrix(1.00, 0.00, -0.00, -1.00, 171.6, 514.0)">e</text><text xml:space="preserve" font-family="AvenirNext-Medium" font-size="34.0" fill="#838686" transform="matrix(1.00, 0.00, -0.00, -1.00, 191.1, 514.0)">s</text><text xml:space="preserve" font-family="AvenirNext-Medium" font-size="34.0" fill="#838686" transform="matrix(1.00, 0.00, -0.00, -1.00, 206.2, 514.0)"> </text><text xml:space="preserve" font-family="LucidaGrande" font-size="35.7" fill="#34A4DA" transform="matrix(1.00, 0.00, -0.00, -1.00, 71.0, 437.0)">▸</text><text xml:space="preserve" font-family="AvenirNext-Medium" font-size="34.0" fill="#838686" transform="matrix(1.00, 0.00, -0.00, -1.00, 106.0, 440.0)">C</text><text xml:space="preserve" font-family="AvenirNext-Medium" font-size="34.0" fill="#838686" transform="matrix(1.00, 0.00, -0.00, -1.00, 130.1, 440.0)">S</text><text xml:space="preserve" font-family="AvenirNext-Medium" font-size="34.0" fill="#838686" transform="matrix(1.00, 0.00, -0.00, -1.00, 149.1, 440.0)">V</text><text xml:space="preserve" font-family="AvenirNext-Medium" font-size="34.0" fill="#838686" transform="matrix(1.00, 0.00, -0.00, -1.00, 168.1, 440.0)">,</text><text xml:space="preserve" font-family="AvenirNext-Medium" font-size="34.0" fill="#838686" transform="matrix(1.00, 0.00, -0.00, -1.00, 175.9, 440.0)"> </text><text xml:space="preserve" font-family="AvenirNext-Medium" font-size="34.0" fill="#838686" transform="matrix(1.00, 0.00, -0.00, -1.00, 183.6, 440.0)">T</text><text xml:space="preserve" font-family="AvenirNext-Medium" font-size="34.0" fill="#838686" transform="matrix(1.00, 0.00, -0.00, -1.00, 202.9, 440.0)">S</text><text xml:space="preserve" font-family="AvenirNext-Medium" font-size="34.0" fill="#838686" transform="matrix(1.00, 0.00, -0.00, -1.00, 221.9, 440.0)">V</text><text xml:space="preserve" font-family="AvenirNext-Medium" font-size="34.0" fill="#838686" transform="matrix(1.00, 0.00, -0.00, -1.00, 243.1, 440.0)"> </text><text xml:space="preserve" font-family="LucidaGrande" font-size="35.7" fill="#34A4DA" transform="matrix(1.00, 0.00, -0.00, -1.00, 36.0, 363.0)">▸</text><text xml:space="preserve" font-family="AvenirNext-Medium" font-size="34.0" fill="#838686" transform="matrix(1.00, 0.00, -0.00, -1.00, 71.0, 366.0)">O</text><text xml:space="preserve" font-family="AvenirNext-Medium" font-size="34.0" fill="#838686" transform="matrix(1.00, 0.00, -0.00, -1.00, 99.9, 366.0)">p</text><text xml:space="preserve" font-family="AvenirNext-Medium" font-size="34.0" fill="#838686" transform="matrix(1.00, 0.00, -0.00, -1.00, 121.4, 366.0)">e</text><text xml:space="preserve" font-family="AvenirNext-Medium" font-size="34.0" fill="#838686" transform="matrix(1.00, 0.00, -0.00, -1.00, 140.9, 366.0)">n</text><text xml:space="preserve" font-family="AvenirNext-Medium" font-size="34.0" fill="#838686" transform="matrix(1.00, 0.00, -0.00, -1.00, 160.7, 366.0)"> </text><text xml:space="preserve" font-family="AvenirNext-Medium" font-size="34.0" fill="#838686" transform="matrix(1.00, 0.00, -0.00, -1.00, 169.2, 366.0)">d</text><text xml:space="preserve" font-family="AvenirNext-Medium" font-size="34.0" fill="#838686" transform="matrix(1.00, 0.00, -0.00, -1.00, 190.8, 366.0)">a</text><text xml:space="preserve" font-family="AvenirNext-Medium" font-size="34.0" fill="#838686" transform="matrix(1.00, 0.00, -0.00, -1.00, 208.9, 366.0)">t</text><text xml:space="preserve" font-family="AvenirNext-Medium" font-size="34.0" fill="#838686" transform="matrix(1.00, 0.00, -0.00, -1.00, 220.1, 366.0)">a</text><text xml:space="preserve" font-family="AvenirNext-Medium" font-size="34.0" fill="#838686" transform="matrix(1.00, 0.00, -0.00, -1.00, 238.5, 366.0)"> </text><text xml:space="preserve" font-family="AvenirNext-Medium" font-size="34.0" fill="#838686" transform="matrix(1.00, 0.00, -0.00, -1.00, 247.0, 366.0)">f</text><text xml:space="preserve" font-family="AvenirNext-Medium" font-size="34.0" fill="#838686" transform="matrix(1.00, 0.00, -0.00, -1.00, 257.5, 366.0)">o</text><text xml:space="preserve" font-family="AvenirNext-Medium" font-size="34.0" fill="#838686" transform="matrix(1.00, 0.00, -0.00, -1.00, 278.3, 366.0)">r</text><text xml:space="preserve" font-family="AvenirNext-Medium" font-size="34.0" fill="#838686" transform="matrix(1.00, 0.00, -0.00, -1.00, 290.6, 366.0)">m</text><text xml:space="preserve" font-family="AvenirNext-Medium" font-size="34.0" fill="#838686" transform="matrix(1.00, 0.00, -0.00, -1.00, 320.7, 366.0)">a</text><text xml:space="preserve" font-family="AvenirNext-Medium" font-size="34.0" fill="#838686" transform="matrix(1.00, 0.00, -0.00, -1.00, 338.8, 366.0)">t</text><text xml:space="preserve" font-family="AvenirNext-Medium" font-size="34.0" fill="#838686" transform="matrix(1.00, 0.00, -0.00, -1.00, 350.0, 366.0)">s</text><text xml:space="preserve" font-family="AvenirNext-Medium" font-size="34.0" fill="#838686" transform="matrix(1.00, 0.00, -0.00, -1.00, 365.1, 366.0)"> </text><text xml:space="preserve" font-family="LucidaGrande" font-size="35.7" fill="#34A4DA" transform="matrix(1.00, 0.00, -0.00, -1.00, 71.0, 289.0)">▸</text><text xml:space="preserve" font-family="AvenirNext-Medium" font-size="34.0" fill="#838686" transform="matrix(1.00, 0.00, -0.00, -1.00, 106.0, 292.0)">R</text><text xml:space="preserve" font-family="AvenirNext-Medium" font-size="34.0" fill="#838686" transform="matrix(1.00, 0.00, -0.00, -1.00, 126.9, 292.0)">D</text><text xml:space="preserve" font-family="AvenirNext-Medium" font-size="34.0" fill="#838686" transform="matrix(1.00, 0.00, -0.00, -1.00, 152.8, 292.0)">a</text><text xml:space="preserve" font-family="AvenirNext-Medium" font-size="34.0" fill="#838686" transform="matrix(1.00, 0.00, -0.00, -1.00, 170.8, 292.0)">t</text><text xml:space="preserve" font-family="AvenirNext-Medium" font-size="34.0" fill="#838686" transform="matrix(1.00, 0.00, -0.00, -1.00, 182.0, 292.0)">a</text><text xml:space="preserve" font-family="AvenirNext-Medium" font-size="34.0" fill="#838686" transform="matrix(1.00, 0.00, -0.00, -1.00, 200.5, 292.0)">,</text><text xml:space="preserve" font-family="AvenirNext-Medium" font-size="34.0" fill="#838686" transform="matrix(1.00, 0.00, -0.00, -1.00, 208.3, 292.0)"> </text><text xml:space="preserve" font-family="AvenirNext-Medium" font-size="34.0" fill="#838686" transform="matrix(1.00, 0.00, -0.00, -1.00, 216.8, 292.0)">p</text><text xml:space="preserve" font-family="AvenirNext-Medium" font-size="34.0" fill="#838686" transform="matrix(1.00, 0.00, -0.00, -1.00, 238.3, 292.0)">i</text><text xml:space="preserve" font-family="AvenirNext-Medium" font-size="34.0" fill="#838686" transform="matrix(1.00, 0.00, -0.00, -1.00, 247.1, 292.0)">c</text><text xml:space="preserve" font-family="AvenirNext-Medium" font-size="34.0" fill="#838686" transform="matrix(1.00, 0.00, -0.00, -1.00, 263.9, 292.0)">k</text><text xml:space="preserve" font-family="AvenirNext-Medium" font-size="34.0" fill="#838686" transform="matrix(1.00, 0.00, -0.00, -1.00, 281.8, 292.0)">l</text><text xml:space="preserve" font-family="AvenirNext-Medium" font-size="34.0" fill="#838686" transform="matrix(1.00, 0.00, -0.00, -1.00, 290.7, 292.0)">e</text><text xml:space="preserve" font-family="AvenirNext-Medium" font-size="34.0" fill="#838686" transform="matrix(1.00, 0.00, -0.00, -1.00, 310.2, 292.0)"> </text><text xml:space="preserve" font-family="LucidaGrande" font-size="35.7" fill="#34A4DA" transform="matrix(1.00, 0.00, -0.00, -1.00, 36.0, 215.0)">▸</text><text xml:space="preserve" font-family="AvenirNext-Medium" font-size="34.0" fill="#838686" transform="matrix(1.00, 0.00, -0.00, -1.00, 71.0, 218.0)">O</text><text xml:space="preserve" font-family="AvenirNext-Medium" font-size="34.0" fill="#838686" transform="matrix(1.00, 0.00, -0.00, -1.00, 99.9, 218.0)">p</text><text xml:space="preserve" font-family="AvenirNext-Medium" font-size="34.0" fill="#838686" transform="matrix(1.00, 0.00, -0.00, -1.00, 121.4, 218.0)">e</text><text xml:space="preserve" font-family="AvenirNext-Medium" font-size="34.0" fill="#838686" transform="matrix(1.00, 0.00, -0.00, -1.00, 140.9, 218.0)">n</text><text xml:space="preserve" font-family="AvenirNext-Medium" font-size="34.0" fill="#838686" transform="matrix(1.00, 0.00, -0.00, -1.00, 160.7, 218.0)">-</text><text xml:space="preserve" font-family="AvenirNext-Medium" font-size="34.0" fill="#838686" transform="matrix(1.00, 0.00, -0.00, -1.00, 171.6, 218.0)">s</text><text xml:space="preserve" font-family="AvenirNext-Medium" font-size="34.0" fill="#838686" transform="matrix(1.00, 0.00, -0.00, -1.00, 186.7, 218.0)">o</text><text xml:space="preserve" font-family="AvenirNext-Medium" font-size="34.0" fill="#838686" transform="matrix(1.00, 0.00, -0.00, -1.00, 207.4, 218.0)">u</text><text xml:space="preserve" font-family="AvenirNext-Medium" font-size="34.0" fill="#838686" transform="matrix(1.00, 0.00, -0.00, -1.00, 227.2, 218.0)">r</text><text xml:space="preserve" font-family="AvenirNext-Medium" font-size="34.0" fill="#838686" transform="matrix(1.00, 0.00, -0.00, -1.00, 238.9, 218.0)">c</text><text xml:space="preserve" font-family="AvenirNext-Medium" font-size="34.0" fill="#838686" transform="matrix(1.00, 0.00, -0.00, -1.00, 255.7, 218.0)">e</text><text xml:space="preserve" font-family="AvenirNext-Medium" font-size="34.0" fill="#838686" transform="matrix(1.00, 0.00, -0.00, -1.00, 275.2, 218.0)"> </text><text xml:space="preserve" font-family="AvenirNext-Medium" font-size="34.0" fill="#838686" transform="matrix(1.00, 0.00, -0.00, -1.00, 283.7, 218.0)">d</text><text xml:space="preserve" font-family="AvenirNext-Medium" font-size="34.0" fill="#838686" transform="matrix(1.00, 0.00, -0.00, -1.00, 305.3, 218.0)">a</text><text xml:space="preserve" font-family="AvenirNext-Medium" font-size="34.0" fill="#838686" transform="matrix(1.00, 0.00, -0.00, -1.00, 323.3, 218.0)">t</text><text xml:space="preserve" font-family="AvenirNext-Medium" font-size="34.0" fill="#838686" transform="matrix(1.00, 0.00, -0.00, -1.00, 334.5, 218.0)">a</text><text xml:space="preserve" font-family="AvenirNext-Medium" font-size="34.0" fill="#838686" transform="matrix(1.00, 0.00, -0.00, -1.00, 353.0, 218.0)">b</text><text xml:space="preserve" font-family="AvenirNext-Medium" font-size="34.0" fill="#838686" transform="matrix(1.00, 0.00, -0.00, -1.00, 374.6, 218.0)">a</text><text xml:space="preserve" font-family="AvenirNext-Medium" font-size="34.0" fill="#838686" transform="matrix(1.00, 0.00, -0.00, -1.00, 393.0, 218.0)">s</text><text xml:space="preserve" font-family="AvenirNext-Medium" font-size="34.0" fill="#838686" transform="matrix(1.00, 0.00, -0.00, -1.00, 408.1, 218.0)">e</text><text xml:space="preserve" font-family="AvenirNext-Medium" font-size="34.0" fill="#838686" transform="matrix(1.00, 0.00, -0.00, -1.00, 427.6, 218.0)">s</text><text xml:space="preserve" font-family="AvenirNext-Medium" font-size="34.0" fill="#838686" transform="matrix(1.00, 0.00, -0.00, -1.00, 442.7, 218.0)"> </text><text xml:space="preserve" font-family="LucidaGrande" font-size="35.7" fill="#34A4DA" transform="matrix(1.00, 0.00, -0.00, -1.00, 71.0, 141.0)">▸</text><text xml:space="preserve" font-family="AvenirNext-Medium" font-size="34.0" fill="#838686" transform="matrix(1.00, 0.00, -0.00, -1.00, 106.0, 144.0)">S</text><text xml:space="preserve" font-family="AvenirNext-Medium" font-size="34.0" fill="#838686" transform="matrix(1.00, 0.00, -0.00, -1.00, 125.3, 144.0)">Q</text><text xml:space="preserve" font-family="AvenirNext-Medium" font-size="34.0" fill="#838686" transform="matrix(1.00, 0.00, -0.00, -1.00, 154.1, 144.0)">L</text><text xml:space="preserve" font-family="AvenirNext-Medium" font-size="34.0" fill="#838686" transform="matrix(1.00, 0.00, -0.00, -1.00, 171.5, 144.0)">i</text><text xml:space="preserve" font-family="AvenirNext-Medium" font-size="34.0" fill="#838686" transform="matrix(1.00, 0.00, -0.00, -1.00, 180.3, 144.0)">t</text><text xml:space="preserve" font-family="AvenirNext-Medium" font-size="34.0" fill="#838686" transform="matrix(1.00, 0.00, -0.00, -1.00, 191.5, 144.0)">e</text><text xml:space="preserve" font-family="AvenirNext-Medium" font-size="34.0" fill="#838686" transform="matrix(1.00, 0.00, -0.00, -1.00, 211.0, 144.0)">,</text><text xml:space="preserve" font-family="AvenirNext-Medium" font-size="34.0" fill="#838686" transform="matrix(1.00, 0.00, -0.00, -1.00, 218.8, 144.0)"> </text><text xml:space="preserve" font-family="AvenirNext-Medium" font-size="34.0" fill="#838686" transform="matrix(1.00, 0.00, -0.00, -1.00, 227.3, 144.0)">P</text><text xml:space="preserve" font-family="AvenirNext-Medium" font-size="34.0" fill="#838686" transform="matrix(1.00, 0.00, -0.00, -1.00, 245.3, 144.0)">o</text><text xml:space="preserve" font-family="AvenirNext-Medium" font-size="34.0" fill="#838686" transform="matrix(1.00, 0.00, -0.00, -1.00, 266.0, 144.0)">s</text><text xml:space="preserve" font-family="AvenirNext-Medium" font-size="34.0" fill="#838686" transform="matrix(1.00, 0.00, -0.00, -1.00, 281.1, 144.0)">t</text><text xml:space="preserve" font-family="AvenirNext-Medium" font-size="34.0" fill="#838686" transform="matrix(1.00, 0.00, -0.00, -1.00, 292.3, 144.0)">g</text><text xml:space="preserve" font-family="AvenirNext-Medium" font-size="34.0" fill="#838686" transform="matrix(1.00, 0.00, -0.00, -1.00, 313.8, 144.0)">r</text><text xml:space="preserve" font-family="AvenirNext-Medium" font-size="34.0" fill="#838686" transform="matrix(1.00, 0.00, -0.00, -1.00, 325.5, 144.0)">e</text><text xml:space="preserve" font-family="AvenirNext-Medium" font-size="34.0" fill="#838686" transform="matrix(1.00, 0.00, -0.00, -1.00, 345.0, 144.0)">s</text><text xml:space="preserve" font-family="AvenirNext-Medium" font-size="29.0" fill="#838686" transform="matrix(1.00, 0.00, -0.00, -1.00, 500.0, 435.0)">M</text><text xml:space="preserve" font-family="AvenirNext-Medium" font-size="29.0" fill="#838686" transform="matrix(1.00, 0.00, -0.00, -1.00, 526.2, 435.0)">a</text><text xml:space="preserve" font-family="AvenirNext-Medium" font-size="29.0" fill="#838686" transform="matrix(1.00, 0.00, -0.00, -1.00, 541.9, 435.0)">k</text><text xml:space="preserve" font-family="AvenirNext-Medium" font-size="29.0" fill="#838686" transform="matrix(1.00, 0.00, -0.00, -1.00, 556.7, 435.0)">e</text><text xml:space="preserve" font-family="AvenirNext-Medium" font-size="29.0" fill="#838686" transform="matrix(1.00, 0.00, -0.00, -1.00, 573.3, 435.0)">s</text><text xml:space="preserve" font-family="AvenirNext-Medium" font-size="29.0" fill="#838686" transform="matrix(1.00, 0.00, -0.00, -1.00, 586.2, 435.0)"> </text><text xml:space="preserve" font-family="AvenirNext-Medium" font-size="29.0" fill="#838686" transform="matrix(1.00, 0.00, -0.00, -1.00, 593.4, 435.0)">d</text><text xml:space="preserve" font-family="AvenirNext-Medium" font-size="29.0" fill="#838686" transform="matrix(1.00, 0.00, -0.00, -1.00, 611.8, 435.0)">a</text><text xml:space="preserve" font-family="AvenirNext-Medium" font-size="29.0" fill="#838686" transform="matrix(1.00, 0.00, -0.00, -1.00, 627.3, 435.0)">t</text><text xml:space="preserve" font-family="AvenirNext-Medium" font-size="29.0" fill="#838686" transform="matrix(1.00, 0.00, -0.00, -1.00, 636.8, 435.0)">a</text><text xml:space="preserve" font-family="AvenirNext-Medium" font-size="29.0" fill="#838686" transform="matrix(1.00, 0.00, -0.00, -1.00, 652.5, 435.0)"> </text><text xml:space="preserve" font-family="AvenirNext-Medium" font-size="29.0" fill="#838686" transform="matrix(1.00, 0.00, -0.00, -1.00, 659.8, 435.0)">s</text><text xml:space="preserve" font-family="AvenirNext-Medium" font-size="29.0" fill="#838686" transform="matrix(1.00, 0.00, -0.00, -1.00, 672.6, 435.0)">h</text><text xml:space="preserve" font-family="AvenirNext-Medium" font-size="29.0" fill="#838686" transform="matrix(1.00, 0.00, -0.00, -1.00, 689.6, 435.0)">a</text><text xml:space="preserve" font-family="AvenirNext-Medium" font-size="29.0" fill="#838686" transform="matrix(1.00, 0.00, -0.00, -1.00, 705.3, 435.0)">r</text><text xml:space="preserve" font-family="AvenirNext-Medium" font-size="29.0" fill="#838686" transform="matrix(1.00, 0.00, -0.00, -1.00, 715.8, 435.0)">i</text><text xml:space="preserve" font-family="AvenirNext-Medium" font-size="29.0" fill="#838686" transform="matrix(1.00, 0.00, -0.00, -1.00, 723.3, 435.0)">n</text><text xml:space="preserve" font-family="AvenirNext-Medium" font-size="29.0" fill="#838686" transform="matrix(1.00, 0.00, -0.00, -1.00, 740.2, 435.0)">g</text><text xml:space="preserve" font-family="AvenirNext-Medium" font-size="29.0" fill="#838686" transform="matrix(1.00, 0.00, -0.00, -1.00, 758.5, 435.0)"> </text><text xml:space="preserve" font-family="AvenirNext-Medium" font-size="29.0" fill="#838686" transform="matrix(1.00, 0.00, -0.00, -1.00, 765.8, 435.0)">v</text><text xml:space="preserve" font-family="AvenirNext-Medium" font-size="29.0" fill="#838686" transform="matrix(1.00, 0.00, -0.00, -1.00, 780.4, 435.0)">e</text><text xml:space="preserve" font-family="AvenirNext-Medium" font-size="29.0" fill="#838686" transform="matrix(1.00, 0.00, -0.00, -1.00, 797.0, 435.0)">r</text><text xml:space="preserve" font-family="AvenirNext-Medium" font-size="29.0" fill="#838686" transform="matrix(1.00, 0.00, -0.00, -1.00, 807.5, 435.0)">y</text><text xml:space="preserve" font-family="AvenirNext-Medium" font-size="29.0" fill="#838686" transform="matrix(1.00, 0.00, -0.00, -1.00, 822.1, 435.0)"> </text><text xml:space="preserve" font-family="AvenirNext-Medium" font-size="29.0" fill="#838686" transform="matrix(1.00, 0.00, -0.00, -1.00, 829.4, 435.0)">e</text><text xml:space="preserve" font-family="AvenirNext-Medium" font-size="29.0" fill="#838686" transform="matrix(1.00, 0.00, -0.00, -1.00, 845.8, 435.0)">a</text><text xml:space="preserve" font-family="AvenirNext-Medium" font-size="29.0" fill="#838686" transform="matrix(1.00, 0.00, -0.00, -1.00, 861.5, 435.0)">s</text><text xml:space="preserve" font-family="AvenirNext-Medium" font-size="29.0" fill="#838686" transform="matrix(1.00, 0.00, -0.00, -1.00, 874.4, 435.0)">y</text><text xml:space="preserve" font-family="LucidaGrande-Bold" font-weight="bold" font-size="29.0" fill="#838686" transform="matrix(1.00, 0.00, -0.00, -1.00, 889.0, 435.0)"> </text><text xml:space="preserve" font-family="AvenirNext-Medium" font-size="29.0" fill="#838686" transform="matrix(1.00, 0.00, -0.00, -1.00, 500.0, 395.0)">D</text><text xml:space="preserve" font-family="AvenirNext-Medium" font-size="29.0" fill="#838686" transform="matrix(1.00, 0.00, -0.00, -1.00, 522.1, 395.0)">o</text><text xml:space="preserve" font-family="AvenirNext-Medium" font-size="29.0" fill="#838686" transform="matrix(1.00, 0.00, -0.00, -1.00, 539.8, 395.0)">e</text><text xml:space="preserve" font-family="AvenirNext-Medium" font-size="29.0" fill="#838686" transform="matrix(1.00, 0.00, -0.00, -1.00, 556.4, 395.0)">s</text><text xml:space="preserve" font-family="AvenirNext-Medium" font-size="29.0" fill="#838686" transform="matrix(1.00, 0.00, -0.00, -1.00, 569.3, 395.0)"> </text><text xml:space="preserve" font-family="AvenirNext-Medium" font-size="29.0" fill="#838686" transform="matrix(1.00, 0.00, -0.00, -1.00, 576.5, 395.0)">n</text><text xml:space="preserve" font-family="AvenirNext-Medium" font-size="29.0" fill="#838686" transform="matrix(1.00, 0.00, -0.00, -1.00, 593.4, 395.0)">o</text><text xml:space="preserve" font-family="AvenirNext-Medium" font-size="29.0" fill="#838686" transform="matrix(1.00, 0.00, -0.00, -1.00, 611.1, 395.0)">t</text><text xml:space="preserve" font-family="AvenirNext-Medium" font-size="29.0" fill="#838686" transform="matrix(1.00, 0.00, -0.00, -1.00, 620.6, 395.0)"> </text><text xml:space="preserve" font-family="AvenirNext-Medium" font-size="29.0" fill="#838686" transform="matrix(1.00, 0.00, -0.00, -1.00, 627.9, 395.0)">l</text><text xml:space="preserve" font-family="AvenirNext-Medium" font-size="29.0" fill="#838686" transform="matrix(1.00, 0.00, -0.00, -1.00, 635.4, 395.0)">i</text><text xml:space="preserve" font-family="AvenirNext-Medium" font-size="29.0" fill="#838686" transform="matrix(1.00, 0.00, -0.00, -1.00, 642.9, 395.0)">m</text><text xml:space="preserve" font-family="AvenirNext-Medium" font-size="29.0" fill="#838686" transform="matrix(1.00, 0.00, -0.00, -1.00, 668.6, 395.0)">i</text><text xml:space="preserve" font-family="AvenirNext-Medium" font-size="29.0" fill="#838686" transform="matrix(1.00, 0.00, -0.00, -1.00, 676.1, 395.0)">t</text><text xml:space="preserve" font-family="AvenirNext-Medium" font-size="29.0" fill="#838686" transform="matrix(1.00, 0.00, -0.00, -1.00, 685.7, 395.0)"> </text><text xml:space="preserve" font-family="AvenirNext-Medium" font-size="29.0" fill="#838686" transform="matrix(1.00, 0.00, -0.00, -1.00, 692.9, 395.0)">a</text><text xml:space="preserve" font-family="AvenirNext-Medium" font-size="29.0" fill="#838686" transform="matrix(1.00, 0.00, -0.00, -1.00, 708.7, 395.0)">c</text><text xml:space="preserve" font-family="AvenirNext-Medium" font-size="29.0" fill="#838686" transform="matrix(1.00, 0.00, -0.00, -1.00, 723.0, 395.0)">c</text><text xml:space="preserve" font-family="AvenirNext-Medium" font-size="29.0" fill="#838686" transform="matrix(1.00, 0.00, -0.00, -1.00, 737.3, 395.0)">e</text><text xml:space="preserve" font-family="AvenirNext-Medium" font-size="29.0" fill="#838686" transform="matrix(1.00, 0.00, -0.00, -1.00, 753.9, 395.0)">s</text><text xml:space="preserve" font-family="AvenirNext-Medium" font-size="29.0" fill="#838686" transform="matrix(1.00, 0.00, -0.00, -1.00, 766.8, 395.0)">s</text><text xml:space="preserve" font-family="AvenirNext-Medium" font-size="29.0" fill="#838686" transform="matrix(1.00, 0.00, -0.00, -1.00, 779.7, 395.0)"> </text><text xml:space="preserve" font-family="AvenirNext-Medium" font-size="29.0" fill="#838686" transform="matrix(1.00, 0.00, -0.00, -1.00, 786.9, 395.0)">t</text><text xml:space="preserve" font-family="AvenirNext-Medium" font-size="29.0" fill="#838686" transform="matrix(1.00, 0.00, -0.00, -1.00, 796.5, 395.0)">o</text><text xml:space="preserve" font-family="AvenirNext-Medium" font-size="29.0" fill="#838686" transform="matrix(1.00, 0.00, -0.00, -1.00, 814.2, 395.0)"> </text><text xml:space="preserve" font-family="AvenirNext-Medium" font-size="29.0" fill="#838686" transform="matrix(1.00, 0.00, -0.00, -1.00, 821.4, 395.0)">t</text><text xml:space="preserve" font-family="AvenirNext-Medium" font-size="29.0" fill="#838686" transform="matrix(1.00, 0.00, -0.00, -1.00, 830.9, 395.0)">h</text><text xml:space="preserve" font-family="AvenirNext-Medium" font-size="29.0" fill="#838686" transform="matrix(1.00, 0.00, -0.00, -1.00, 847.9, 395.0)">e</text><text xml:space="preserve" font-family="AvenirNext-Medium" font-size="29.0" fill="#838686" transform="matrix(1.00, 0.00, -0.00, -1.00, 864.5, 395.0)"> </text><text xml:space="preserve" font-family="AvenirNext-Medium" font-size="29.0" fill="#838686" transform="matrix(1.00, 0.00, -0.00, -1.00, 871.8, 395.0)">d</text><text xml:space="preserve" font-family="AvenirNext-Medium" font-size="29.0" fill="#838686" transform="matrix(1.00, 0.00, -0.00, -1.00, 890.2, 395.0)">a</text><text xml:space="preserve" font-family="AvenirNext-Medium" font-size="29.0" fill="#838686" transform="matrix(1.00, 0.00, -0.00, -1.00, 905.6, 395.0)">t</text><text xml:space="preserve" font-family="AvenirNext-Medium" font-size="29.0" fill="#838686" transform="matrix(1.00, 0.00, -0.00, -1.00, 915.1, 395.0)">a</text><text xml:space="preserve" font-family="LucidaGrande-Bold" font-weight="bold" font-size="29.0" fill="#838686" transform="matrix(1.00, 0.00, -0.00, -1.00, 930.9, 395.0)"> </text><text xml:space="preserve" font-family="AvenirNext-Medium" font-size="29.0" fill="#838686" transform="matrix(1.00, 0.00, -0.00, -1.00, 500.0, 355.0)">C</text><text xml:space="preserve" font-family="AvenirNext-Medium" font-size="29.0" fill="#838686" transform="matrix(1.00, 0.00, -0.00, -1.00, 520.0, 355.0)">a</text><text xml:space="preserve" font-family="AvenirNext-Medium" font-size="29.0" fill="#838686" transform="matrix(1.00, 0.00, -0.00, -1.00, 535.7, 355.0)">n</text><text xml:space="preserve" font-family="AvenirNext-Medium" font-size="29.0" fill="#838686" transform="matrix(1.00, 0.00, -0.00, -1.00, 552.6, 355.0)"> </text><text xml:space="preserve" font-family="AvenirNext-Medium" font-size="29.0" fill="#838686" transform="matrix(1.00, 0.00, -0.00, -1.00, 559.9, 355.0)">a</text><text xml:space="preserve" font-family="AvenirNext-Medium" font-size="29.0" fill="#838686" transform="matrix(1.00, 0.00, -0.00, -1.00, 575.6, 355.0)">l</text><text xml:space="preserve" font-family="AvenirNext-Medium" font-size="29.0" fill="#838686" transform="matrix(1.00, 0.00, -0.00, -1.00, 583.1, 355.0)">w</text><text xml:space="preserve" font-family="AvenirNext-Medium" font-size="29.0" fill="#838686" transform="matrix(1.00, 0.00, -0.00, -1.00, 605.5, 355.0)">a</text><text xml:space="preserve" font-family="AvenirNext-Medium" font-size="29.0" fill="#838686" transform="matrix(1.00, 0.00, -0.00, -1.00, 621.2, 355.0)">y</text><text xml:space="preserve" font-family="AvenirNext-Medium" font-size="29.0" fill="#838686" transform="matrix(1.00, 0.00, -0.00, -1.00, 635.9, 355.0)">s</text><text xml:space="preserve" font-family="AvenirNext-Medium" font-size="29.0" fill="#838686" transform="matrix(1.00, 0.00, -0.00, -1.00, 648.7, 355.0)"> </text><text xml:space="preserve" font-family="AvenirNext-Medium" font-size="29.0" fill="#838686" transform="matrix(1.00, 0.00, -0.00, -1.00, 656.0, 355.0)">b</text><text xml:space="preserve" font-family="AvenirNext-Medium" font-size="29.0" fill="#838686" transform="matrix(1.00, 0.00, -0.00, -1.00, 674.4, 355.0)">e</text><text xml:space="preserve" font-family="AvenirNext-Medium" font-size="29.0" fill="#838686" transform="matrix(1.00, 0.00, -0.00, -1.00, 691.1, 355.0)"> </text><text xml:space="preserve" font-family="AvenirNext-Medium" font-size="29.0" fill="#838686" transform="matrix(1.00, 0.00, -0.00, -1.00, 698.3, 355.0)">o</text><text xml:space="preserve" font-family="AvenirNext-Medium" font-size="29.0" fill="#838686" transform="matrix(1.00, 0.00, -0.00, -1.00, 716.0, 355.0)">p</text><text xml:space="preserve" font-family="AvenirNext-Medium" font-size="29.0" fill="#838686" transform="matrix(1.00, 0.00, -0.00, -1.00, 734.4, 355.0)">e</text><text xml:space="preserve" font-family="AvenirNext-Medium" font-size="29.0" fill="#838686" transform="matrix(1.00, 0.00, -0.00, -1.00, 751.0, 355.0)">n</text><text xml:space="preserve" font-family="AvenirNext-Medium" font-size="29.0" fill="#838686" transform="matrix(1.00, 0.00, -0.00, -1.00, 767.9, 355.0)">e</text><text xml:space="preserve" font-family="AvenirNext-Medium" font-size="29.0" fill="#838686" transform="matrix(1.00, 0.00, -0.00, -1.00, 784.5, 355.0)">d</text><text xml:space="preserve" font-family="AvenirNext-Medium" font-size="29.0" fill="#838686" transform="matrix(1.00, 0.00, -0.00, -1.00, 802.9, 355.0)"> </text><text xml:space="preserve" font-family="AvenirNext-Medium" font-size="29.0" fill="#838686" transform="matrix(1.00, 0.00, -0.00, -1.00, 810.2, 355.0)">a</text><text xml:space="preserve" font-family="AvenirNext-Medium" font-size="29.0" fill="#838686" transform="matrix(1.00, 0.00, -0.00, -1.00, 825.9, 355.0)">n</text><text xml:space="preserve" font-family="AvenirNext-Medium" font-size="29.0" fill="#838686" transform="matrix(1.00, 0.00, -0.00, -1.00, 842.8, 355.0)">d</text><text xml:space="preserve" font-family="AvenirNext-Medium" font-size="29.0" fill="#838686" transform="matrix(1.00, 0.00, -0.00, -1.00, 861.2, 355.0)"> </text><text xml:space="preserve" font-family="AvenirNext-Medium" font-size="29.0" fill="#838686" transform="matrix(1.00, 0.00, -0.00, -1.00, 868.4, 355.0)">v</text><text xml:space="preserve" font-family="AvenirNext-Medium" font-size="29.0" fill="#838686" transform="matrix(1.00, 0.00, -0.00, -1.00, 883.0, 355.0)">e</text><text xml:space="preserve" font-family="AvenirNext-Medium" font-size="29.0" fill="#838686" transform="matrix(1.00, 0.00, -0.00, -1.00, 899.6, 355.0)">r</text><text xml:space="preserve" font-family="AvenirNext-Medium" font-size="29.0" fill="#838686" transform="matrix(1.00, 0.00, -0.00, -1.00, 910.1, 355.0)">i</text><text xml:space="preserve" font-family="AvenirNext-Medium" font-size="29.0" fill="#838686" transform="matrix(1.00, 0.00, -0.00, -1.00, 917.7, 355.0)">ﬁ</text><text xml:space="preserve" font-family="AvenirNext-Medium" font-size="29.0" fill="#838686" transform="matrix(1.00, 0.00, -0.00, -1.00, 934.3, 355.0)">e</text><text xml:space="preserve" font-family="AvenirNext-Medium" font-size="29.0" fill="#838686" transform="matrix(1.00, 0.00, -0.00, -1.00, 950.9, 355.0)">d</text><text xml:space="preserve" font-family="LucidaGrande-Bold" font-weight="bold" font-size="29.0" fill="#838686" transform="matrix(1.00, 0.00, -0.00, -1.00, 969.3, 355.0)"> </text><text xml:space="preserve" font-family="AvenirNext-Medium" font-size="29.0" fill="#838686" transform="matrix(1.00, 0.00, -0.00, -1.00, 500.0, 315.0)">O</text><text xml:space="preserve" font-family="AvenirNext-Medium" font-size="29.0" fill="#838686" transform="matrix(1.00, 0.00, -0.00, -1.00, 524.6, 315.0)">p</text><text xml:space="preserve" font-family="AvenirNext-Medium" font-size="29.0" fill="#838686" transform="matrix(1.00, 0.00, -0.00, -1.00, 543.0, 315.0)">e</text><text xml:space="preserve" font-family="AvenirNext-Medium" font-size="29.0" fill="#838686" transform="matrix(1.00, 0.00, -0.00, -1.00, 559.6, 315.0)">r</text><text xml:space="preserve" font-family="AvenirNext-Medium" font-size="29.0" fill="#838686" transform="matrix(1.00, 0.00, -0.00, -1.00, 569.7, 315.0)">a</text><text xml:space="preserve" font-family="AvenirNext-Medium" font-size="29.0" fill="#838686" transform="matrix(1.00, 0.00, -0.00, -1.00, 585.2, 315.0)">t</text><text xml:space="preserve" font-family="AvenirNext-Medium" font-size="29.0" fill="#838686" transform="matrix(1.00, 0.00, -0.00, -1.00, 594.7, 315.0)">i</text><text xml:space="preserve" font-family="AvenirNext-Medium" font-size="29.0" fill="#838686" transform="matrix(1.00, 0.00, -0.00, -1.00, 602.2, 315.0)">n</text><text xml:space="preserve" font-family="AvenirNext-Medium" font-size="29.0" fill="#838686" transform="matrix(1.00, 0.00, -0.00, -1.00, 619.1, 315.0)">g</text><text xml:space="preserve" font-family="AvenirNext-Medium" font-size="29.0" fill="#838686" transform="matrix(1.00, 0.00, -0.00, -1.00, 637.4, 315.0)"> </text><text xml:space="preserve" font-family="AvenirNext-Medium" font-size="29.0" fill="#838686" transform="matrix(1.00, 0.00, -0.00, -1.00, 644.7, 315.0)">s</text><text xml:space="preserve" font-family="AvenirNext-Medium" font-size="29.0" fill="#838686" transform="matrix(1.00, 0.00, -0.00, -1.00, 657.6, 315.0)">y</text><text xml:space="preserve" font-family="AvenirNext-Medium" font-size="29.0" fill="#838686" transform="matrix(1.00, 0.00, -0.00, -1.00, 672.2, 315.0)">s</text><text xml:space="preserve" font-family="AvenirNext-Medium" font-size="29.0" fill="#838686" transform="matrix(1.00, 0.00, -0.00, -1.00, 685.0, 315.0)">t</text><text xml:space="preserve" font-family="AvenirNext-Medium" font-size="29.0" fill="#838686" transform="matrix(1.00, 0.00, -0.00, -1.00, 694.6, 315.0)">e</text><text xml:space="preserve" font-family="AvenirNext-Medium" font-size="29.0" fill="#838686" transform="matrix(1.00, 0.00, -0.00, -1.00, 711.2, 315.0)">m</text><text xml:space="preserve" font-family="AvenirNext-Medium" font-size="29.0" fill="#838686" transform="matrix(1.00, 0.00, -0.00, -1.00, 736.9, 315.0)"> </text><text xml:space="preserve" font-family="AvenirNext-Medium" font-size="29.0" fill="#838686" transform="matrix(1.00, 0.00, -0.00, -1.00, 744.2, 315.0)">a</text><text xml:space="preserve" font-family="AvenirNext-Medium" font-size="29.0" fill="#838686" transform="matrix(1.00, 0.00, -0.00, -1.00, 759.9, 315.0)">g</text><text xml:space="preserve" font-family="AvenirNext-Medium" font-size="29.0" fill="#838686" transform="matrix(1.00, 0.00, -0.00, -1.00, 778.2, 315.0)">n</text><text xml:space="preserve" font-family="AvenirNext-Medium" font-size="29.0" fill="#838686" transform="matrix(1.00, 0.00, -0.00, -1.00, 795.1, 315.0)">o</text><text xml:space="preserve" font-family="AvenirNext-Medium" font-size="29.0" fill="#838686" transform="matrix(1.00, 0.00, -0.00, -1.00, 812.8, 315.0)">s</text><text xml:space="preserve" font-family="AvenirNext-Medium" font-size="29.0" fill="#838686" transform="matrix(1.00, 0.00, -0.00, -1.00, 825.7, 315.0)">t</text><text xml:space="preserve" font-family="AvenirNext-Medium" font-size="29.0" fill="#838686" transform="matrix(1.00, 0.00, -0.00, -1.00, 835.2, 315.0)">i</text><text xml:space="preserve" font-family="AvenirNext-Medium" font-size="29.0" fill="#838686" transform="matrix(1.00, 0.00, -0.00, -1.00, 842.7, 315.0)">c</text></g></svg>