<?xml version="1.0" encoding="UTF-8" standalone="no"?><svg xmlns="http://www.w3.org/2000/svg" xmlns:xlink="http://www.w3.org/1999/xlink" clip-rule="evenodd" stroke-miterlimit="4.00" viewBox="0 0 472 153"><desc>SVG generated by Keynote</desc><defs></defs><g transform="matrix(1.00, 0.00, -0.00, -1.00, 0.0, 153.0)"><text xml:space="preserve" font-family="AvenirNext-Medium" font-size="29.0" fill="#838686" transform="matrix(1.00, 0.00, -0.00, -1.00, 1.0, 130.0)">M</text><text xml:space="preserve" font-family="AvenirNext-Medium" font-size="29.0" fill="#838686" transform="matrix(1.00, 0.00, -0.00, -1.00, 27.2, 130.0)">a</text><text xml:space="preserve" font-family="AvenirNext-Medium" font-size="29.0" fill="#838686" transform="matrix(1.00, 0.00, -0.00, -1.00, 42.9, 130.0)">k</text><text xml:space="preserve" font-family="AvenirNext-Medium" font-size="29.0" fill="#838686" transform="matrix(1.00, 0.00, -0.00, -1.00, 57.7, 130.0)">e</text><text xml:space="preserve" font-family="AvenirNext-Medium" font-size="29.0" fill="#838686" transform="matrix(1.00, 0.00, -0.00, -1.00, 74.3, 130.0)">s</text><text xml:space="preserve" font-family="AvenirNext-Medium" font-size="29.0" fill="#838686" transform="matrix(1.00, 0.00, -0.00, -1.00, 87.2, 130.0)"> </text><text xml:space="preserve" font-family="AvenirNext-Medium" font-size="29.0" fill="#838686" transform="matrix(1.00, 0.00, -0.00, -1.00, 94.4, 130.0)">d</text><text xml:space="preserve" font-family="AvenirNext-Medium" font-size="29.0" fill="#838686" transform="matrix(1.00, 0.00, -0.00, -1.00, 112.8, 130.0)">a</text><text xml:space="preserve" font-family="AvenirNext-Medium" font-size="29.0" fill="#838686" transform="matrix(1.00, 0.00, -0.00, -1.00, 128.3, 130.0)">t</text><text xml:space="preserve" font-family="AvenirNext-Medium" font-size="29.0" fill="#838686" transform="matrix(1.00, 0.00, -0.00, -1.00, 137.8, 130.0)">a</text><text xml:space="preserve" font-family="AvenirNext-Medium" font-size="29.0" fill="#838686" transform="matrix(1.00, 0.00, -0.00, -1.00, 153.5, 130.0)"> </text><text xml:space="preserve" font-family="AvenirNext-Medium" font-size="29.0" fill="#838686" transform="matrix(1.00, 0.00, -0.00, -1.00, 160.8, 130.0)">s</text><text xml:space="preserve" font-family="AvenirNext-Medium" font-size="29.0" fill="#838686" transform="matrix(1.00, 0.00, -0.00, -1.00, 173.6, 130.0)">h</text><text xml:space="preserve" font-family="AvenirNext-Medium" font-size="29.0" fill="#838686" transform="matrix(1.00, 0.00, -0.00, -1.00, 190.6, 130.0)">a</text><text xml:space="preserve" font-family="AvenirNext-Medium" font-size="29.0" fill="#838686" transform="matrix(1.00, 0.00, -0.00, -1.00, 206.3, 130.0)">r</text><text xml:space="preserve" font-family="AvenirNext-Medium" font-size="29.0" fill="#838686" transform="matrix(1.00, 0.00, -0.00, -1.00, 216.8, 130.0)">i</text><text xml:space="preserve" font-family="AvenirNext-Medium" font-size="29.0" fill="#838686" transform="matrix(1.00, 0.00, -0.00, -1.00, 224.3, 130.0)">n</text><text xml:space="preserve" font-family="AvenirNext-Medium" font-size="29.0" fill="#838686" transform="matrix(1.00, 0.00, -0.00, -1.00, 241.2, 130.0)">g</text><text xml:space="preserve" font-family="AvenirNext-Medium" font-size="29.0" fill="#838686" transform="matrix(1.00, 0.00, -0.00, -1.00, 259.5, 130.0)"> </text><text xml:space="preserve" font-family="AvenirNext-Medium" font-size="29.0" fill="#838686" transform="matrix(1.00, 0.00, -0.00, -1.00, 266.8, 130.0)">v</text><text xml:space="preserve" font-family="AvenirNext-Medium" font-size="29.0" fill="#838686" transform="matrix(1.00, 0.00, -0.00, -1.00, 281.4, 130.0)">e</text><text xml:space="preserve" font-family="AvenirNext-Medium" font-size="29.0" fill="#838686" transform="matrix(1.00, 0.00, -0.00, -1.00, 298.0, 130.0)">r</text><text xml:space="preserve" font-family="AvenirNext-Medium" font-size="29.0" fill="#838686" transform="matrix(1.00, 0.00, -0.00, -1.00, 308.5, 130.0)">y</text><text xml:space="preserve" font-family="AvenirNext-Medium" font-size="29.0" fill="#838686" transform="matrix(1.00, 0.00, -0.00, -1.00, 323.1, 130.0)"> </text><text xml:space="preserve" font-family="AvenirNext-Medium" font-size="29.0" fill="#838686" transform="matrix(1.00, 0.00, -0.00, -1.00, 330.4, 130.0)">e</text><text xml:space="preserve" font-family="AvenirNext-Medium" font-size="29.0" fill="#838686" transform="matrix(1.00, 0.00, -0.00, -1.00, 346.8, 130.0)">a</text><text xml:space="preserve" font-family="AvenirNext-Medium" font-size="29.0" fill="#838686" transform="matrix(1.00, 0.00, -0.00, -1.00, 362.5, 130.0)">s</text><text xml:space="preserve" font-family="AvenirNext-Medium" font-size="29.0" fill="#838686" transform="matrix(1.00, 0.00, -0.00, -1.00, 375.4, 130.0)">y</text><text xml:space="preserve" font-family="LucidaGrande-Bold" font-weight="bold" font-size="29.0" fill="#838686" transform="matrix(1.00, 0.00, -0.00, -1.00, 390.0, 130.0)"> </text><text xml:space="preserve" font-family="AvenirNext-Medium" font-size="29.0" fill="#838686" transform="matrix(1.00, 0.00, -0.00, -1.00, 1.0, 90.0)">D</text><text xml:space="preserve" font-family="AvenirNext-Medium" font-size="29.0" fill="#838686" transform="matrix(1.00, 0.00, -0.00, -1.00, 23.1, 90.0)">o</text><text xml:space="preserve" font-family="AvenirNext-Medium" font-size="29.0" fill="#838686" transform="matrix(1.00, 0.00, -0.00, -1.00, 40.8, 90.0)">e</text><text xml:space="preserve" font-family="AvenirNext-Medium" font-size="29.0" fill="#838686" transform="matrix(1.00, 0.00, -0.00, -1.00, 57.4, 90.0)">s</text><text xml:space="preserve" font-family="AvenirNext-Medium" font-size="29.0" fill="#838686" transform="matrix(1.00, 0.00, -0.00, -1.00, 70.3, 90.0)"> </text><text xml:space="preserve" font-family="AvenirNext-Medium" font-size="29.0" fill="#838686" transform="matrix(1.00, 0.00, -0.00, -1.00, 77.5, 90.0)">n</text><text xml:space="preserve" font-family="AvenirNext-Medium" font-size="29.0" fill="#838686" transform="matrix(1.00, 0.00, -0.00, -1.00, 94.4, 90.0)">o</text><text xml:space="preserve" font-family="AvenirNext-Medium" font-size="29.0" fill="#838686" transform="matrix(1.00, 0.00, -0.00, -1.00, 112.1, 90.0)">t</text><text xml:space="preserve" font-family="AvenirNext-Medium" font-size="29.0" fill="#838686" transform="matrix(1.00, 0.00, -0.00, -1.00, 121.6, 90.0)"> </text><text xml:space="preserve" font-family="AvenirNext-Medium" font-size="29.0" fill="#838686" transform="matrix(1.00, 0.00, -0.00, -1.00, 128.9, 90.0)">l</text><text xml:space="preserve" font-family="AvenirNext-Medium" font-size="29.0" fill="#838686" transform="matrix(1.00, 0.00, -0.00, -1.00, 136.4, 90.0)">i</text><text xml:space="preserve" font-family="AvenirNext-Medium" font-size="29.0" fill="#838686" transform="matrix(1.00, 0.00, -0.00, -1.00, 143.9, 90.0)">m</text><text xml:space="preserve" font-family="AvenirNext-Medium" font-size="29.0" fill="#838686" transform="matrix(1.00, 0.00, -0.00, -1.00, 169.6, 90.0)">i</text><text xml:space="preserve" font-family="AvenirNext-Medium" font-size="29.0" fill="#838686" transform="matrix(1.00, 0.00, -0.00, -1.00, 177.1, 90.0)">t</text><text xml:space="preserve" font-family="AvenirNext-Medium" font-size="29.0" fill="#838686" transform="matrix(1.00, 0.00, -0.00, -1.00, 186.7, 90.0)"> </text><text xml:space="preserve" font-family="AvenirNext-Medium" font-size="29.0" fill="#838686" transform="matrix(1.00, 0.00, -0.00, -1.00, 193.9, 90.0)">a</text><text xml:space="preserve" font-family="AvenirNext-Medium" font-size="29.0" fill="#838686" transform="matrix(1.00, 0.00, -0.00, -1.00, 209.7, 90.0)">c</text><text xml:space="preserve" font-family="AvenirNext-Medium" font-size="29.0" fill="#838686" transform="matrix(1.00, 0.00, -0.00, -1.00, 224.0, 90.0)">c</text><text xml:space="preserve" font-family="AvenirNext-Medium" font-size="29.0" fill="#838686" transform="matrix(1.00, 0.00, -0.00, -1.00, 238.3, 90.0)">e</text><text xml:space="preserve" font-family="AvenirNext-Medium" font-size="29.0" fill="#838686" transform="matrix(1.00, 0.00, -0.00, -1.00, 254.9, 90.0)">s</text><text xml:space="preserve" font-family="AvenirNext-Medium" font-size="29.0" fill="#838686" transform="matrix(1.00, 0.00, -0.00, -1.00, 267.8, 90.0)">s</text><text xml:space="preserve" font-family="AvenirNext-Medium" font-size="29.0" fill="#838686" transform="matrix(1.00, 0.00, -0.00, -1.00, 280.7, 90.0)"> </text><text xml:space="preserve" font-family="AvenirNext-Medium" font-size="29.0" fill="#838686" transform="matrix(1.00, 0.00, -0.00, -1.00, 287.9, 90.0)">t</text><text xml:space="preserve" font-family="AvenirNext-Medium" font-size="29.0" fill="#838686" transform="matrix(1.00, 0.00, -0.00, -1.00, 297.5, 90.0)">o</text><text xml:space="preserve" font-family="AvenirNext-Medium" font-size="29.0" fill="#838686" transform="matrix(1.00, 0.00, -0.00, -1.00, 315.2, 90.0)"> </text><text xml:space="preserve" font-family="AvenirNext-Medium" font-size="29.0" fill="#838686" transform="matrix(1.00, 0.00, -0.00, -1.00, 322.4, 90.0)">t</text><text xml:space="preserve" font-family="AvenirNext-Medium" font-size="29.0" fill="#838686" transform="matrix(1.00, 0.00, -0.00, -1.00, 331.9, 90.0)">h</text><text xml:space="preserve" font-family="AvenirNext-Medium" font-size="29.0" fill="#838686" transform="matrix(1.00, 0.00, -0.00, -1.00, 348.9, 90.0)">e</text><text xml:space="preserve" font-family="AvenirNext-Medium" font-size="29.0" fill="#838686" transform="matrix(1.00, 0.00, -0.00, -1.00, 365.5, 90.0)"> </text><text xml:space="preserve" font-family="AvenirNext-Medium" font-size="29.0" fill="#838686" transform="matrix(1.00, 0.00, -0.00, -1.00, 372.8, 90.0)">d</text><text xml:space="preserve" font-family="AvenirNext-Medium" font-size="29.0" fill="#838686" transform="matrix(1.00, 0.00, -0.00, -1.00, 391.2, 90.0)">a</text><text xml:space="preserve" font-family="AvenirNext-Medium" font-size="29.0" fill="#838686" transform="matrix(1.00, 0.00, -0.00, -1.00, 406.6, 90.0)">t</text><text xml:space="preserve" font-family="AvenirNext-Medium" font-size="29.0" fill="#838686" transform="matrix(1.00, 0.00, -0.00, -1.00, 416.1, 90.0)">a</text><text xml:space="preserve" font-family="LucidaGrande-Bold" font-weight="bold" font-size="29.0" fill="#838686" transform="matrix(1.00, 0.00, -0.00, -1.00, 431.9, 90.0)"> </text><text xml:space="preserve" font-family="AvenirNext-Medium" font-size="29.0" fill="#838686" transform="matrix(1.00, 0.00, -0.00, -1.00, 1.0, 50.0)">C</text><text xml:space="preserve" font-family="AvenirNext-Medium" font-size="29.0" fill="#838686" transform="matrix(1.00, 0.00, -0.00, -1.00, 21.0, 50.0)">a</text><text xml:space="preserve" font-family="AvenirNext-Medium" font-size="29.0" fill="#838686" transform="matrix(1.00, 0.00, -0.00, -1.00, 36.7, 50.0)">n</text><text xml:space="preserve" font-family="AvenirNext-Medium" font-size="29.0" fill="#838686" transform="matrix(1.00, 0.00, -0.00, -1.00, 53.6, 50.0)"> </text><text xml:space="preserve" font-family="AvenirNext-Medium" font-size="29.0" fill="#838686" transform="matrix(1.00, 0.00, -0.00, -1.00, 60.9, 50.0)">a</text><text xml:space="preserve" font-family="AvenirNext-Medium" font-size="29.0" fill="#838686" transform="matrix(1.00, 0.00, -0.00, -1.00, 76.6, 50.0)">l</text><text xml:space="preserve" font-family="AvenirNext-Medium" font-size="29.0" fill="#838686" transform="matrix(1.00, 0.00, -0.00, -1.00, 84.1, 50.0)">w</text><text xml:space="preserve" font-family="AvenirNext-Medium" font-size="29.0" fill="#838686" transform="matrix(1.00, 0.00, -0.00, -1.00, 106.5, 50.0)">a</text><text xml:space="preserve" font-family="AvenirNext-Medium" font-size="29.0" fill="#838686" transform="matrix(1.00, 0.00, -0.00, -1.00, 122.2, 50.0)">y</text><text xml:space="preserve" font-family="AvenirNext-Medium" font-size="29.0" fill="#838686" transform="matrix(1.00, 0.00, -0.00, -1.00, 136.9, 50.0)">s</text><text xml:space="preserve" font-family="AvenirNext-Medium" font-size="29.0" fill="#838686" transform="matrix(1.00, 0.00, -0.00, -1.00, 149.7, 50.0)"> </text><text xml:space="preserve" font-family="AvenirNext-Medium" font-size="29.0" fill="#838686" transform="matrix(1.00, 0.00, -0.00, -1.00, 157.0, 50.0)">b</text><text xml:space="preserve" font-family="AvenirNext-Medium" font-size="29.0" fill="#838686" transform="matrix(1.00, 0.00, -0.00, -1.00, 175.4, 50.0)">e</text><text xml:space="preserve" font-family="AvenirNext-Medium" font-size="29.0" fill="#838686" transform="matrix(1.00, 0.00, -0.00, -1.00, 192.1, 50.0)"> </text><text xml:space="preserve" font-family="AvenirNext-Medium" font-size="29.0" fill="#838686" transform="matrix(1.00, 0.00, -0.00, -1.00, 199.3, 50.0)">o</text><text xml:space="preserve" font-family="AvenirNext-Medium" font-size="29.0" fill="#838686" transform="matrix(1.00, 0.00, -0.00, -1.00, 217.0, 50.0)">p</text><text xml:space="preserve" font-family="AvenirNext-Medium" font-size="29.0" fill="#838686" transform="matrix(1.00, 0.00, -0.00, -1.00, 235.4, 50.0)">e</text><text xml:space="preserve" font-family="AvenirNext-Medium" font-size="29.0" fill="#838686" transform="matrix(1.00, 0.00, -0.00, -1.00, 252.0, 50.0)">n</text><text xml:space="preserve" font-family="AvenirNext-Medium" font-size="29.0" fill="#838686" transform="matrix(1.00, 0.00, -0.00, -1.00, 268.9, 50.0)">e</text><text xml:space="preserve" font-family="AvenirNext-Medium" font-size="29.0" fill="#838686" transform="matrix(1.00, 0.00, -0.00, -1.00, 285.5, 50.0)">d</text><text xml:space="preserve" font-family="AvenirNext-Medium" font-size="29.0" fill="#838686" transform="matrix(1.00, 0.00, -0.00, -1.00, 303.9, 50.0)"> </text><text xml:space="preserve" font-family="AvenirNext-Medium" font-size="29.0" fill="#838686" transform="matrix(1.00, 0.00, -0.00, -1.00, 311.2, 50.0)">a</text><text xml:space="preserve" font-family="AvenirNext-Medium" font-size="29.0" fill="#838686" transform="matrix(1.00, 0.00, -0.00, -1.00, 326.9, 50.0)">n</text><text xml:space="preserve" font-family="AvenirNext-Medium" font-size="29.0" fill="#838686" transform="matrix(1.00, 0.00, -0.00, -1.00, 343.8, 50.0)">d</text><text xml:space="preserve" font-family="AvenirNext-Medium" font-size="29.0" fill="#838686" transform="matrix(1.00, 0.00, -0.00, -1.00, 362.2, 50.0)"> </text><text xml:space="preserve" font-family="AvenirNext-Medium" font-size="29.0" fill="#838686" transform="matrix(1.00, 0.00, -0.00, -1.00, 369.4, 50.0)">v</text><text xml:space="preserve" font-family="AvenirNext-Medium" font-size="29.0" fill="#838686" transform="matrix(1.00, 0.00, -0.00, -1.00, 384.0, 50.0)">e</text><text xml:space="preserve" font-family="AvenirNext-Medium" font-size="29.0" fill="#838686" transform="matrix(1.00, 0.00, -0.00, -1.00, 400.6, 50.0)">r</text><text xml:space="preserve" font-family="AvenirNext-Medium" font-size="29.0" fill="#838686" transform="matrix(1.00, 0.00, -0.00, -1.00, 411.1, 50.0)">i</text><text xml:space="preserve" font-family="AvenirNext-Medium" font-size="29.0" fill="#838686" transform="matrix(1.00, 0.00, -0.00, -1.00, 418.7, 50.0)">ﬁ</text><text xml:space="preserve" font-family="AvenirNext-Medium" font-size="29.0" fill="#838686" transform="matrix(1.00, 0.00, -0.00, -1.00, 435.3, 50.0)">e</text><text xml:space="preserve" font-family="AvenirNext-Medium" font-size="29.0" fill="#838686" transform="matrix(1.00, 0.00, -0.00, -1.00, 451.9, 50.0)">d</text><text xml:space="preserve" font-family="LucidaGrande-Bold" font-weight="bold" font-size="29.0" fill="#838686" transform="matrix(1.00, 0.00, -0.00, -1.00, 470.3, 50.0)"> </text><text xml:space="preserve" font-family="AvenirNext-Medium" font-size="29.0" fill="#838686" transform="matrix(1.00, 0.00, -0.00, -1.00, 1.0, 10.0)">O</text><text xml:space="preserve" font-family="AvenirNext-Medium" font-size="29.0" fill="#838686" transform="matrix(1.00, 0.00, -0.00, -1.00, 25.6, 10.0)">p</text><text xml:space="preserve" font-family="AvenirNext-Medium" font-size="29.0" fill="#838686" transform="matrix(1.00, 0.00, -0.00, -1.00, 44.0, 10.0)">e</text><text xml:space="preserve" font-family="AvenirNext-Medium" font-size="29.0" fill="#838686" transform="matrix(1.00, 0.00, -0.00, -1.00, 60.6, 10.0)">r</text><text xml:space="preserve" font-family="AvenirNext-Medium" font-size="29.0" fill="#838686" transform="matrix(1.00, 0.00, -0.00, -1.00, 70.7, 10.0)">a</text><text xml:space="preserve" font-family="AvenirNext-Medium" font-size="29.0" fill="#838686" transform="matrix(1.00, 0.00, -0.00, -1.00, 86.2, 10.0)">t</text><text xml:space="preserve" font-family="AvenirNext-Medium" font-size="29.0" fill="#838686" transform="matrix(1.00, 0.00, -0.00, -1.00, 95.7, 10.0)">i</text><text xml:space="preserve" font-family="AvenirNext-Medium" font-size="29.0" fill="#838686" transform="matrix(1.00, 0.00, -0.00, -1.00, 103.2, 10.0)">n</text><text xml:space="preserve" font-family="AvenirNext-Medium" font-size="29.0" fill="#838686" transform="matrix(1.00, 0.00, -0.00, -1.00, 120.1, 10.0)">g</text><text xml:space="preserve" font-family="AvenirNext-Medium" font-size="29.0" fill="#838686" transform="matrix(1.00, 0.00, -0.00, -1.00, 138.4, 10.0)"> </text><text xml:space="preserve" font-family="AvenirNext-Medium" font-size="29.0" fill="#838686" transform="matrix(1.00, 0.00, -0.00, -1.00, 145.7, 10.0)">s</text><text xml:space="preserve" font-family="AvenirNext-Medium" font-size="29.0" fill="#838686" transform="matrix(1.00, 0.00, -0.00, -1.00, 158.6, 10.0)">y</text><text xml:space="preserve" font-family="AvenirNext-Medium" font-size="29.0" fill="#838686" transform="matrix(1.00, 0.00, -0.00, -1.00, 173.2, 10.0)">s</text><text xml:space="preserve" font-family="AvenirNext-Medium" font-size="29.0" fill="#838686" transform="matrix(1.00, 0.00, -0.00, -1.00, 186.0, 10.0)">t</text><text xml:space="preserve" font-family="AvenirNext-Medium" font-size="29.0" fill="#838686" transform="matrix(1.00, 0.00, -0.00, -1.00, 195.6, 10.0)">e</text><text xml:space="preserve" font-family="AvenirNext-Medium" font-size="29.0" fill="#838686" transform="matrix(1.00, 0.00, -0.00, -1.00, 212.2, 10.0)">m</text><text xml:space="preserve" font-family="AvenirNext-Medium" font-size="29.0" fill="#838686" transform="matrix(1.00, 0.00, -0.00, -1.00, 237.9, 10.0)"> </text><text xml:space="preserve" font-family="AvenirNext-Medium" font-size="29.0" fill="#838686" transform="matrix(1.00, 0.00, -0.00, -1.00, 245.2, 10.0)">a</text><text xml:space="preserve" font-family="AvenirNext-Medium" font-size="29.0" fill="#838686" transform="matrix(1.00, 0.00, -0.00, -1.00, 260.9, 10.0)">g</text><text xml:space="preserve" font-family="AvenirNext-Medium" font-size="29.0" fill="#838686" transform="matrix(1.00, 0.00, -0.00, -1.00, 279.2, 10.0)">n</text><text xml:space="preserve" font-family="AvenirNext-Medium" font-size="29.0" fill="#838686" transform="matrix(1.00, 0.00, -0.00, -1.00, 296.1, 10.0)">o</text><text xml:space="preserve" font-family="AvenirNext-Medium" font-size="29.0" fill="#838686" transform="matrix(1.00, 0.00, -0.00, -1.00, 313.8, 10.0)">s</text><text xml:space="preserve" font-family="AvenirNext-Medium" font-size="29.0" fill="#838686" transform="matrix(1.00, 0.00, -0.00, -1.00, 326.7, 10.0)">t</text><text xml:space="preserve" font-family="AvenirNext-Medium" font-size="29.0" fill="#838686" transform="matrix(1.00, 0.00, -0.00, -1.00, 336.2, 10.0)">i</text><text xml:space="preserve" font-family="AvenirNext-Medium" font-size="29.0" fill="#838686" transform="matrix(1.00, 0.00, -0.00, -1.00, 343.7, 10.0)">c</text></g></svg>