<?xml version="1.0" encoding="UTF-8" standalone="no"?><svg xmlns="http://www.w3.org/2000/svg" xmlns:xlink="http://www.w3.org/1999/xlink" clip-rule="evenodd" stroke-miterlimit="4.00" viewBox="0 0 1024 768"><desc>SVG generated by Keynote</desc><defs></defs><g transform="matrix(1.00, 0.00, -0.00, -1.00, 0.0, 768.0)"><path d="M 0.0 768.0 L 1024.0 768.0 L 1024.0 0.0 L 0.0 0.0 Z M 0.0 768.0 " fill="#212121"></path><path d="M 0.0 0.0 L 960.0 0.0 " fill="none" stroke="#A6AAA9" stroke-width="2.00" transform="matrix(1.00, 0.00, 0.00, -1.00, 32.0, 689.8)"></path><text xml:space="preserve" font-family="DINAlternate-Bold" font-weight="bold" font-size="24.0" fill="#838686" transform="matrix(1.00, 0.00, -0.00, -1.00, 36.0, 705.0)">C</text><text xml:space="preserve" font-family="DINAlternate-Bold" font-weight="bold" font-size="24.0" fill="#838686" transform="matrix(1.00, 0.00, -0.00, -1.00, 50.6, 705.0)">L</text><text xml:space="preserve" font-family="DINAlternate-Bold" font-weight="bold" font-size="24.0" fill="#838686" transform="matrix(1.00, 0.00, -0.00, -1.00, 65.1, 705.0)">O</text><text xml:space="preserve" font-family="DINAlternate-Bold" font-weight="bold" font-size="24.0" fill="#838686" transform="matrix(1.00, 0.00, -0.00, -1.00, 80.9, 705.0)">S</text><text xml:space="preserve" font-family="DINAlternate-Bold" font-weight="bold" font-size="24.0" fill="#838686" transform="matrix(1.00, 0.00, -0.00, -1.00, 95.9, 705.0)">I</text><text xml:space="preserve" font-family="DINAlternate-Bold" font-weight="bold" font-size="24.0" fill="#838686" transform="matrix(1.00, 0.00, -0.00, -1.00, 103.3, 705.0)">N</text><text xml:space="preserve" font-family="DINAlternate-Bold" font-weight="bold" font-size="24.0" fill="#838686" transform="matrix(1.00, 0.00, -0.00, -1.00, 120.9, 705.0)">G</text><text xml:space="preserve" font-family="DINAlternate-Bold" font-weight="bold" font-size="24.0" fill="#838686" transform="matrix(1.00, 0.00, -0.00, -1.00, 136.8, 705.0)"> </text><text xml:space="preserve" font-family="DINAlternate-Bold" font-weight="bold" font-size="24.0" fill="#838686" transform="matrix(1.00, 0.00, -0.00, -1.00, 143.7, 705.0)">T</text><text xml:space="preserve" font-family="DINAlternate-Bold" font-weight="bold" font-size="24.0" fill="#838686" transform="matrix(1.00, 0.00, -0.00, -1.00, 156.9, 705.0)">H</text><text xml:space="preserve" font-family="DINAlternate-Bold" font-weight="bold" font-size="24.0" fill="#838686" transform="matrix(1.00, 0.00, -0.00, -1.00, 173.6, 705.0)">O</text><text xml:space="preserve" font-family="DINAlternate-Bold" font-weight="bold" font-size="24.0" fill="#838686" transform="matrix(1.00, 0.00, -0.00, -1.00, 189.5, 705.0)">U</text><text xml:space="preserve" font-family="DINAlternate-Bold" font-weight="bold" font-size="24.0" fill="#838686" transform="matrix(1.00, 0.00, -0.00, -1.00, 205.8, 705.0)">G</text><text xml:space="preserve" font-family="DINAlternate-Bold" font-weight="bold" font-size="24.0" fill="#838686" transform="matrix(1.00, 0.00, -0.00, -1.00, 221.7, 705.0)">H</text><text xml:space="preserve" font-family="DINAlternate-Bold" font-weight="bold" font-size="24.0" fill="#838686" transform="matrix(1.00, 0.00, -0.00, -1.00, 238.4, 705.0)">T</text><text xml:space="preserve" font-family="DINAlternate-Bold" font-weight="bold" font-size="24.0" fill="#838686" transform="matrix(1.00, 0.00, -0.00, -1.00, 251.6, 705.0)">S</text><text xml:space="preserve" font-family="DINCondensed-Bold" font-weight="bold" font-size="48.0" fill="#34A4DA" transform="matrix(1.00, 0.00, -0.00, -1.00, 36.0, 608.0)">V</text><text xml:space="preserve" font-family="DINCondensed-Bold" font-weight="bold" font-size="48.0" fill="#34A4DA" transform="matrix(1.00, 0.00, -0.00, -1.00, 53.8, 608.0)">A</text><text xml:space="preserve" font-family="DINCondensed-Bold" font-weight="bold" font-size="48.0" fill="#34A4DA" transform="matrix(1.00, 0.00, -0.00, -1.00, 73.3, 608.0)">L</text><text xml:space="preserve" font-family="DINCondensed-Bold" font-weight="bold" font-size="48.0" fill="#34A4DA" transform="matrix(1.00, 0.00, -0.00, -1.00, 91.1, 608.0)">I</text><text xml:space="preserve" font-family="DINCondensed-Bold" font-weight="bold" font-size="48.0" fill="#34A4DA" transform="matrix(1.00, 0.00, -0.00, -1.00, 100.8, 608.0)">D</text><text xml:space="preserve" font-family="DINCondensed-Bold" font-weight="bold" font-size="48.0" fill="#34A4DA" transform="matrix(1.00, 0.00, -0.00, -1.00, 120.7, 608.0)">A</text><text xml:space="preserve" font-family="DINCondensed-Bold" font-weight="bold" font-size="48.0" fill="#34A4DA" transform="matrix(1.00, 0.00, -0.00, -1.00, 137.6, 608.0)">T</text><text xml:space="preserve" font-family="DINCondensed-Bold" font-weight="bold" font-size="48.0" fill="#34A4DA" transform="matrix(1.00, 0.00, -0.00, -1.00, 153.6, 608.0)">E</text><text xml:space="preserve" font-family="DINCondensed-Bold" font-weight="bold" font-size="48.0" fill="#34A4DA" transform="matrix(1.00, 0.00, -0.00, -1.00, 171.3, 608.0)">,</text><text xml:space="preserve" font-family="DINCondensed-Bold" font-weight="bold" font-size="48.0" fill="#34A4DA" transform="matrix(1.00, 0.00, -0.00, -1.00, 180.2, 608.0)"> </text><text xml:space="preserve" font-family="DINCondensed-Bold" font-weight="bold" font-size="48.0" fill="#34A4DA" transform="matrix(1.00, 0.00, -0.00, -1.00, 189.2, 608.0)">V</text><text xml:space="preserve" font-family="DINCondensed-Bold" font-weight="bold" font-size="48.0" fill="#34A4DA" transform="matrix(1.00, 0.00, -0.00, -1.00, 206.9, 608.0)">A</text><text xml:space="preserve" font-family="DINCondensed-Bold" font-weight="bold" font-size="48.0" fill="#34A4DA" transform="matrix(1.00, 0.00, -0.00, -1.00, 226.5, 608.0)">L</text><text xml:space="preserve" font-family="DINCondensed-Bold" font-weight="bold" font-size="48.0" fill="#34A4DA" transform="matrix(1.00, 0.00, -0.00, -1.00, 244.2, 608.0)">I</text><text xml:space="preserve" font-family="DINCondensed-Bold" font-weight="bold" font-size="48.0" fill="#34A4DA" transform="matrix(1.00, 0.00, -0.00, -1.00, 254.0, 608.0)">D</text><text xml:space="preserve" font-family="DINCondensed-Bold" font-weight="bold" font-size="48.0" fill="#34A4DA" transform="matrix(1.00, 0.00, -0.00, -1.00, 273.9, 608.0)">A</text><text xml:space="preserve" font-family="DINCondensed-Bold" font-weight="bold" font-size="48.0" fill="#34A4DA" transform="matrix(1.00, 0.00, -0.00, -1.00, 290.8, 608.0)">T</text><text xml:space="preserve" font-family="DINCondensed-Bold" font-weight="bold" font-size="48.0" fill="#34A4DA" transform="matrix(1.00, 0.00, -0.00, -1.00, 306.7, 608.0)">E</text><text xml:space="preserve" font-family="DINCondensed-Bold" font-weight="bold" font-size="48.0" fill="#34A4DA" transform="matrix(1.00, 0.00, -0.00, -1.00, 324.5, 608.0)">,</text><text xml:space="preserve" font-family="DINCondensed-Bold" font-weight="bold" font-size="48.0" fill="#34A4DA" transform="matrix(1.00, 0.00, -0.00, -1.00, 333.4, 608.0)"> </text><text xml:space="preserve" font-family="DINCondensed-Bold" font-weight="bold" font-size="48.0" fill="#34A4DA" transform="matrix(1.00, 0.00, -0.00, -1.00, 342.3, 608.0)">V</text><text xml:space="preserve" font-family="DINCondensed-Bold" font-weight="bold" font-size="48.0" fill="#34A4DA" transform="matrix(1.00, 0.00, -0.00, -1.00, 360.1, 608.0)">A</text><text xml:space="preserve" font-family="DINCondensed-Bold" font-weight="bold" font-size="48.0" fill="#34A4DA" transform="matrix(1.00, 0.00, -0.00, -1.00, 379.6, 608.0)">L</text><text xml:space="preserve" font-family="DINCondensed-Bold" font-weight="bold" font-size="48.0" fill="#34A4DA" transform="matrix(1.00, 0.00, -0.00, -1.00, 397.4, 608.0)">I</text><text xml:space="preserve" font-family="DINCondensed-Bold" font-weight="bold" font-size="48.0" fill="#34A4DA" transform="matrix(1.00, 0.00, -0.00, -1.00, 407.2, 608.0)">D</text><text xml:space="preserve" font-family="DINCondensed-Bold" font-weight="bold" font-size="48.0" fill="#34A4DA" transform="matrix(1.00, 0.00, -0.00, -1.00, 427.1, 608.0)">A</text><text xml:space="preserve" font-family="DINCondensed-Bold" font-weight="bold" font-size="48.0" fill="#34A4DA" transform="matrix(1.00, 0.00, -0.00, -1.00, 444.0, 608.0)">T</text><text xml:space="preserve" font-family="DINCondensed-Bold" font-weight="bold" font-size="48.0" fill="#34A4DA" transform="matrix(1.00, 0.00, -0.00, -1.00, 459.9, 608.0)">E</text><text xml:space="preserve" font-family="LucidaGrande" font-size="35.0" fill="#34A4DA" transform="matrix(1.00, 0.00, -0.00, -1.00, 36.0, 512.4)">▸</text><text xml:space="preserve" font-family="AvenirNext-Medium" font-size="33.3" fill="#838686" transform="matrix(1.00, 0.00, -0.00, -1.00, 70.0, 515.0)">D</text><text xml:space="preserve" font-family="AvenirNext-Medium" font-size="33.3" fill="#838686" transform="matrix(1.00, 0.00, -0.00, -1.00, 95.4, 515.0)">a</text><text xml:space="preserve" font-family="AvenirNext-Medium" font-size="33.3" fill="#838686" transform="matrix(1.00, 0.00, -0.00, -1.00, 113.1, 515.0)">t</text><text xml:space="preserve" font-family="AvenirNext-Medium" font-size="33.3" fill="#838686" transform="matrix(1.00, 0.00, -0.00, -1.00, 124.0, 515.0)">a</text><text xml:space="preserve" font-family="AvenirNext-Medium" font-size="33.3" fill="#838686" transform="matrix(1.00, 0.00, -0.00, -1.00, 142.1, 515.0)"> </text><text xml:space="preserve" font-family="AvenirNext-Medium" font-size="33.3" fill="#838686" transform="matrix(1.00, 0.00, -0.00, -1.00, 150.4, 515.0)">a</text><text xml:space="preserve" font-family="AvenirNext-Medium" font-size="33.3" fill="#838686" transform="matrix(1.00, 0.00, -0.00, -1.00, 168.5, 515.0)">n</text><text xml:space="preserve" font-family="AvenirNext-Medium" font-size="33.3" fill="#838686" transform="matrix(1.00, 0.00, -0.00, -1.00, 187.9, 515.0)">a</text><text xml:space="preserve" font-family="AvenirNext-Medium" font-size="33.3" fill="#838686" transform="matrix(1.00, 0.00, -0.00, -1.00, 205.9, 515.0)">l</text><text xml:space="preserve" font-family="AvenirNext-Medium" font-size="33.3" fill="#838686" transform="matrix(1.00, 0.00, -0.00, -1.00, 214.6, 515.0)">y</text><text xml:space="preserve" font-family="AvenirNext-Medium" font-size="33.3" fill="#838686" transform="matrix(1.00, 0.00, -0.00, -1.00, 231.4, 515.0)">s</text><text xml:space="preserve" font-family="AvenirNext-Medium" font-size="33.3" fill="#838686" transform="matrix(1.00, 0.00, -0.00, -1.00, 246.2, 515.0)">i</text><text xml:space="preserve" font-family="AvenirNext-Medium" font-size="33.3" fill="#838686" transform="matrix(1.00, 0.00, -0.00, -1.00, 254.8, 515.0)">s</text><text xml:space="preserve" font-family="AvenirNext-Medium" font-size="33.3" fill="#838686" transform="matrix(1.00, 0.00, -0.00, -1.00, 269.6, 515.0)"> </text><text xml:space="preserve" font-family="AvenirNext-Medium" font-size="33.3" fill="#838686" transform="matrix(1.00, 0.00, -0.00, -1.00, 278.0, 515.0)">i</text><text xml:space="preserve" font-family="AvenirNext-Medium" font-size="33.3" fill="#838686" transform="matrix(1.00, 0.00, -0.00, -1.00, 286.6, 515.0)">s</text><text xml:space="preserve" font-family="AvenirNext-Medium" font-size="33.3" fill="#838686" transform="matrix(1.00, 0.00, -0.00, -1.00, 301.4, 515.0)"> </text><text xml:space="preserve" font-family="AvenirNext-Medium" font-size="33.3" fill="#838686" transform="matrix(1.00, 0.00, -0.00, -1.00, 309.7, 515.0)">a</text><text xml:space="preserve" font-family="AvenirNext-Medium" font-size="33.3" fill="#838686" transform="matrix(1.00, 0.00, -0.00, -1.00, 327.8, 515.0)"> </text><text xml:space="preserve" font-family="AvenirNext-Medium" font-size="33.3" fill="#838686" transform="matrix(1.00, 0.00, -0.00, -1.00, 336.1, 515.0)">c</text><text xml:space="preserve" font-family="AvenirNext-Medium" font-size="33.3" fill="#838686" transform="matrix(1.00, 0.00, -0.00, -1.00, 352.6, 515.0)">h</text><text xml:space="preserve" font-family="AvenirNext-Medium" font-size="33.3" fill="#838686" transform="matrix(1.00, 0.00, -0.00, -1.00, 372.0, 515.0)">a</text><text xml:space="preserve" font-family="AvenirNext-Medium" font-size="33.3" fill="#838686" transform="matrix(1.00, 0.00, -0.00, -1.00, 390.1, 515.0)">i</text><text xml:space="preserve" font-family="AvenirNext-Medium" font-size="33.3" fill="#838686" transform="matrix(1.00, 0.00, -0.00, -1.00, 398.7, 515.0)">n</text><text xml:space="preserve" font-family="AvenirNext-Medium" font-size="33.3" fill="#838686" transform="matrix(1.00, 0.00, -0.00, -1.00, 418.1, 515.0)"> </text><text xml:space="preserve" font-family="LucidaGrande" font-size="35.0" fill="#34A4DA" transform="matrix(1.00, 0.00, -0.00, -1.00, 71.0, 439.9)">▸</text><text xml:space="preserve" font-family="AvenirNext-Medium" font-size="33.3" fill="#838686" transform="matrix(1.00, 0.00, -0.00, -1.00, 105.0, 443.0)">E</text><text xml:space="preserve" font-family="AvenirNext-Medium" font-size="33.3" fill="#838686" transform="matrix(1.00, 0.00, -0.00, -1.00, 124.6, 443.0)">v</text><text xml:space="preserve" font-family="AvenirNext-Medium" font-size="33.3" fill="#838686" transform="matrix(1.00, 0.00, -0.00, -1.00, 141.4, 443.0)">e</text><text xml:space="preserve" font-family="AvenirNext-Medium" font-size="33.3" fill="#838686" transform="matrix(1.00, 0.00, -0.00, -1.00, 160.5, 443.0)">r</text><text xml:space="preserve" font-family="AvenirNext-Medium" font-size="33.3" fill="#838686" transform="matrix(1.00, 0.00, -0.00, -1.00, 172.6, 443.0)">y</text><text xml:space="preserve" font-family="AvenirNext-Medium" font-size="33.3" fill="#838686" transform="matrix(1.00, 0.00, -0.00, -1.00, 189.4, 443.0)"> </text><text xml:space="preserve" font-family="AvenirNext-Medium" font-size="33.3" fill="#838686" transform="matrix(1.00, 0.00, -0.00, -1.00, 197.7, 443.0)">l</text><text xml:space="preserve" font-family="AvenirNext-Medium" font-size="33.3" fill="#838686" transform="matrix(1.00, 0.00, -0.00, -1.00, 206.4, 443.0)">i</text><text xml:space="preserve" font-family="AvenirNext-Medium" font-size="33.3" fill="#838686" transform="matrix(1.00, 0.00, -0.00, -1.00, 215.0, 443.0)">n</text><text xml:space="preserve" font-family="AvenirNext-Medium" font-size="33.3" fill="#838686" transform="matrix(1.00, 0.00, -0.00, -1.00, 234.4, 443.0)">k</text><text xml:space="preserve" font-family="AvenirNext-Medium" font-size="33.3" fill="#838686" transform="matrix(1.00, 0.00, -0.00, -1.00, 251.9, 443.0)"> </text><text xml:space="preserve" font-family="AvenirNext-Medium" font-size="33.3" fill="#838686" transform="matrix(1.00, 0.00, -0.00, -1.00, 260.3, 443.0)">h</text><text xml:space="preserve" font-family="AvenirNext-Medium" font-size="33.3" fill="#838686" transform="matrix(1.00, 0.00, -0.00, -1.00, 279.7, 443.0)">a</text><text xml:space="preserve" font-family="AvenirNext-Medium" font-size="33.3" fill="#838686" transform="matrix(1.00, 0.00, -0.00, -1.00, 297.8, 443.0)">s</text><text xml:space="preserve" font-family="AvenirNext-Medium" font-size="33.3" fill="#838686" transform="matrix(1.00, 0.00, -0.00, -1.00, 312.6, 443.0)"> </text><text xml:space="preserve" font-family="AvenirNext-Medium" font-size="33.3" fill="#838686" transform="matrix(1.00, 0.00, -0.00, -1.00, 320.9, 443.0)">t</text><text xml:space="preserve" font-family="AvenirNext-Medium" font-size="33.3" fill="#838686" transform="matrix(1.00, 0.00, -0.00, -1.00, 331.9, 443.0)">o</text><text xml:space="preserve" font-family="AvenirNext-Medium" font-size="33.3" fill="#838686" transform="matrix(1.00, 0.00, -0.00, -1.00, 352.2, 443.0)"> </text><text xml:space="preserve" font-family="AvenirNext-Medium" font-size="33.3" fill="#838686" transform="matrix(1.00, 0.00, -0.00, -1.00, 360.5, 443.0)">r</text><text xml:space="preserve" font-family="AvenirNext-Medium" font-size="33.3" fill="#838686" transform="matrix(1.00, 0.00, -0.00, -1.00, 372.6, 443.0)">i</text><text xml:space="preserve" font-family="AvenirNext-Medium" font-size="33.3" fill="#838686" transform="matrix(1.00, 0.00, -0.00, -1.00, 381.2, 443.0)">n</text><text xml:space="preserve" font-family="AvenirNext-Medium" font-size="33.3" fill="#838686" transform="matrix(1.00, 0.00, -0.00, -1.00, 400.6, 443.0)">g</text><text xml:space="preserve" font-family="AvenirNext-Medium" font-size="33.3" fill="#838686" transform="matrix(1.00, 0.00, -0.00, -1.00, 421.7, 443.0)"> </text><text xml:space="preserve" font-family="AvenirNext-Medium" font-size="33.3" fill="#838686" transform="matrix(1.00, 0.00, -0.00, -1.00, 430.0, 443.0)">t</text><text xml:space="preserve" font-family="AvenirNext-Medium" font-size="33.3" fill="#838686" transform="matrix(1.00, 0.00, -0.00, -1.00, 441.0, 443.0)">r</text><text xml:space="preserve" font-family="AvenirNext-Medium" font-size="33.3" fill="#838686" transform="matrix(1.00, 0.00, -0.00, -1.00, 453.0, 443.0)">u</text><text xml:space="preserve" font-family="AvenirNext-Medium" font-size="33.3" fill="#838686" transform="matrix(1.00, 0.00, -0.00, -1.00, 472.4, 443.0)">e</text><text xml:space="preserve" font-family="AvenirNext-Medium" font-size="33.3" fill="#838686" transform="matrix(1.00, 0.00, -0.00, -1.00, 491.5, 443.0)"> </text><text xml:space="preserve" font-family="LucidaGrande" font-size="35.0" fill="#34A4DA" transform="matrix(1.00, 0.00, -0.00, -1.00, 36.0, 367.5)">▸</text><text xml:space="preserve" font-family="AvenirNext-Medium" font-size="33.3" fill="#838686" transform="matrix(1.00, 0.00, -0.00, -1.00, 70.0, 370.0)">R</text><text xml:space="preserve" font-family="AvenirNext-Medium" font-size="33.3" fill="#838686" transform="matrix(1.00, 0.00, -0.00, -1.00, 90.1, 370.0)">e</text><text xml:space="preserve" font-family="AvenirNext-Medium" font-size="33.3" fill="#838686" transform="matrix(1.00, 0.00, -0.00, -1.00, 109.2, 370.0)">c</text><text xml:space="preserve" font-family="AvenirNext-Medium" font-size="33.3" fill="#838686" transform="matrix(1.00, 0.00, -0.00, -1.00, 125.6, 370.0)">o</text><text xml:space="preserve" font-family="AvenirNext-Medium" font-size="33.3" fill="#838686" transform="matrix(1.00, 0.00, -0.00, -1.00, 145.9, 370.0)">g</text><text xml:space="preserve" font-family="AvenirNext-Medium" font-size="33.3" fill="#838686" transform="matrix(1.00, 0.00, -0.00, -1.00, 167.0, 370.0)">n</text><text xml:space="preserve" font-family="AvenirNext-Medium" font-size="33.3" fill="#838686" transform="matrix(1.00, 0.00, -0.00, -1.00, 186.4, 370.0)">i</text><text xml:space="preserve" font-family="AvenirNext-Medium" font-size="33.3" fill="#838686" transform="matrix(1.00, 0.00, -0.00, -1.00, 195.0, 370.0)">z</text><text xml:space="preserve" font-family="AvenirNext-Medium" font-size="33.3" fill="#838686" transform="matrix(1.00, 0.00, -0.00, -1.00, 210.4, 370.0)">e</text><text xml:space="preserve" font-family="AvenirNext-Medium" font-size="33.3" fill="#838686" transform="matrix(1.00, 0.00, -0.00, -1.00, 229.5, 370.0)"> </text><text xml:space="preserve" font-family="AvenirNext-Medium" font-size="33.3" fill="#838686" transform="matrix(1.00, 0.00, -0.00, -1.00, 237.8, 370.0)">p</text><text xml:space="preserve" font-family="AvenirNext-Medium" font-size="33.3" fill="#838686" transform="matrix(1.00, 0.00, -0.00, -1.00, 259.0, 370.0)">o</text><text xml:space="preserve" font-family="AvenirNext-Medium" font-size="33.3" fill="#838686" transform="matrix(1.00, 0.00, -0.00, -1.00, 279.3, 370.0)">t</text><text xml:space="preserve" font-family="AvenirNext-Medium" font-size="33.3" fill="#838686" transform="matrix(1.00, 0.00, -0.00, -1.00, 290.2, 370.0)">e</text><text xml:space="preserve" font-family="AvenirNext-Medium" font-size="33.3" fill="#838686" transform="matrix(1.00, 0.00, -0.00, -1.00, 309.3, 370.0)">n</text><text xml:space="preserve" font-family="AvenirNext-Medium" font-size="33.3" fill="#838686" transform="matrix(1.00, 0.00, -0.00, -1.00, 328.7, 370.0)">t</text><text xml:space="preserve" font-family="AvenirNext-Medium" font-size="33.3" fill="#838686" transform="matrix(1.00, 0.00, -0.00, -1.00, 339.7, 370.0)">i</text><text xml:space="preserve" font-family="AvenirNext-Medium" font-size="33.3" fill="#838686" transform="matrix(1.00, 0.00, -0.00, -1.00, 348.3, 370.0)">a</text><text xml:space="preserve" font-family="AvenirNext-Medium" font-size="33.3" fill="#838686" transform="matrix(1.00, 0.00, -0.00, -1.00, 366.4, 370.0)">l</text><text xml:space="preserve" font-family="AvenirNext-Medium" font-size="33.3" fill="#838686" transform="matrix(1.00, 0.00, -0.00, -1.00, 375.0, 370.0)"> </text><text xml:space="preserve" font-family="AvenirNext-Medium" font-size="33.3" fill="#838686" transform="matrix(1.00, 0.00, -0.00, -1.00, 383.4, 370.0)">f</text><text xml:space="preserve" font-family="AvenirNext-Medium" font-size="33.3" fill="#838686" transform="matrix(1.00, 0.00, -0.00, -1.00, 393.7, 370.0)">o</text><text xml:space="preserve" font-family="AvenirNext-Medium" font-size="33.3" fill="#838686" transform="matrix(1.00, 0.00, -0.00, -1.00, 414.0, 370.0)">r</text><text xml:space="preserve" font-family="AvenirNext-Medium" font-size="33.3" fill="#838686" transform="matrix(1.00, 0.00, -0.00, -1.00, 426.1, 370.0)"> </text><text xml:space="preserve" font-family="AvenirNext-Medium" font-size="33.3" fill="#838686" transform="matrix(1.00, 0.00, -0.00, -1.00, 434.4, 370.0)">e</text><text xml:space="preserve" font-family="AvenirNext-Medium" font-size="33.3" fill="#838686" transform="matrix(1.00, 0.00, -0.00, -1.00, 453.5, 370.0)">r</text><text xml:space="preserve" font-family="AvenirNext-Medium" font-size="33.3" fill="#838686" transform="matrix(1.00, 0.00, -0.00, -1.00, 465.6, 370.0)">r</text><text xml:space="preserve" font-family="AvenirNext-Medium" font-size="33.3" fill="#838686" transform="matrix(1.00, 0.00, -0.00, -1.00, 477.0, 370.0)">o</text><text xml:space="preserve" font-family="AvenirNext-Medium" font-size="33.3" fill="#838686" transform="matrix(1.00, 0.00, -0.00, -1.00, 497.4, 370.0)">r</text><text xml:space="preserve" font-family="AvenirNext-Medium" font-size="33.3" fill="#838686" transform="matrix(1.00, 0.00, -0.00, -1.00, 509.4, 370.0)">s</text><text xml:space="preserve" font-family="AvenirNext-Medium" font-size="33.3" fill="#838686" transform="matrix(1.00, 0.00, -0.00, -1.00, 524.2, 370.0)"> </text><text xml:space="preserve" font-family="LucidaGrande" font-size="35.0" fill="#34A4DA" transform="matrix(1.00, 0.00, -0.00, -1.00, 36.0, 295.1)">▸</text><text xml:space="preserve" font-family="AvenirNext-Medium" font-size="33.3" fill="#838686" transform="matrix(1.00, 0.00, -0.00, -1.00, 70.0, 298.0)">R</text><text xml:space="preserve" font-family="AvenirNext-Medium" font-size="33.3" fill="#838686" transform="matrix(1.00, 0.00, -0.00, -1.00, 90.1, 298.0)">e</text><text xml:space="preserve" font-family="AvenirNext-Medium" font-size="33.3" fill="#838686" transform="matrix(1.00, 0.00, -0.00, -1.00, 109.2, 298.0)">c</text><text xml:space="preserve" font-family="AvenirNext-Medium" font-size="33.3" fill="#838686" transform="matrix(1.00, 0.00, -0.00, -1.00, 125.6, 298.0)">o</text><text xml:space="preserve" font-family="AvenirNext-Medium" font-size="33.3" fill="#838686" transform="matrix(1.00, 0.00, -0.00, -1.00, 145.9, 298.0)">g</text><text xml:space="preserve" font-family="AvenirNext-Medium" font-size="33.3" fill="#838686" transform="matrix(1.00, 0.00, -0.00, -1.00, 167.0, 298.0)">n</text><text xml:space="preserve" font-family="AvenirNext-Medium" font-size="33.3" fill="#838686" transform="matrix(1.00, 0.00, -0.00, -1.00, 186.4, 298.0)">i</text><text xml:space="preserve" font-family="AvenirNext-Medium" font-size="33.3" fill="#838686" transform="matrix(1.00, 0.00, -0.00, -1.00, 195.0, 298.0)">z</text><text xml:space="preserve" font-family="AvenirNext-Medium" font-size="33.3" fill="#838686" transform="matrix(1.00, 0.00, -0.00, -1.00, 210.4, 298.0)">e</text><text xml:space="preserve" font-family="AvenirNext-Medium" font-size="33.3" fill="#838686" transform="matrix(1.00, 0.00, -0.00, -1.00, 229.5, 298.0)"> </text><text xml:space="preserve" font-family="AvenirNext-Medium" font-size="33.3" fill="#838686" transform="matrix(1.00, 0.00, -0.00, -1.00, 237.8, 298.0)">p</text><text xml:space="preserve" font-family="AvenirNext-Medium" font-size="33.3" fill="#838686" transform="matrix(1.00, 0.00, -0.00, -1.00, 259.0, 298.0)">o</text><text xml:space="preserve" font-family="AvenirNext-Medium" font-size="33.3" fill="#838686" transform="matrix(1.00, 0.00, -0.00, -1.00, 279.3, 298.0)">t</text><text xml:space="preserve" font-family="AvenirNext-Medium" font-size="33.3" fill="#838686" transform="matrix(1.00, 0.00, -0.00, -1.00, 290.2, 298.0)">e</text><text xml:space="preserve" font-family="AvenirNext-Medium" font-size="33.3" fill="#838686" transform="matrix(1.00, 0.00, -0.00, -1.00, 309.3, 298.0)">n</text><text xml:space="preserve" font-family="AvenirNext-Medium" font-size="33.3" fill="#838686" transform="matrix(1.00, 0.00, -0.00, -1.00, 328.7, 298.0)">t</text><text xml:space="preserve" font-family="AvenirNext-Medium" font-size="33.3" fill="#838686" transform="matrix(1.00, 0.00, -0.00, -1.00, 339.7, 298.0)">i</text><text xml:space="preserve" font-family="AvenirNext-Medium" font-size="33.3" fill="#838686" transform="matrix(1.00, 0.00, -0.00, -1.00, 348.3, 298.0)">a</text><text xml:space="preserve" font-family="AvenirNext-Medium" font-size="33.3" fill="#838686" transform="matrix(1.00, 0.00, -0.00, -1.00, 366.4, 298.0)">l</text><text xml:space="preserve" font-family="AvenirNext-Medium" font-size="33.3" fill="#838686" transform="matrix(1.00, 0.00, -0.00, -1.00, 375.0, 298.0)"> </text><text xml:space="preserve" font-family="AvenirNext-Medium" font-size="33.3" fill="#838686" transform="matrix(1.00, 0.00, -0.00, -1.00, 383.4, 298.0)">f</text><text xml:space="preserve" font-family="AvenirNext-Medium" font-size="33.3" fill="#838686" transform="matrix(1.00, 0.00, -0.00, -1.00, 393.7, 298.0)">o</text><text xml:space="preserve" font-family="AvenirNext-Medium" font-size="33.3" fill="#838686" transform="matrix(1.00, 0.00, -0.00, -1.00, 414.0, 298.0)">r</text><text xml:space="preserve" font-family="AvenirNext-Medium" font-size="33.3" fill="#838686" transform="matrix(1.00, 0.00, -0.00, -1.00, 426.1, 298.0)"> </text><text xml:space="preserve" font-family="AvenirNext-Medium" font-size="33.3" fill="#838686" transform="matrix(1.00, 0.00, -0.00, -1.00, 434.4, 298.0)">s</text><text xml:space="preserve" font-family="AvenirNext-Medium" font-size="33.3" fill="#838686" transform="matrix(1.00, 0.00, -0.00, -1.00, 449.2, 298.0)">t</text><text xml:space="preserve" font-family="AvenirNext-Medium" font-size="33.3" fill="#838686" transform="matrix(1.00, 0.00, -0.00, -1.00, 460.2, 298.0)">a</text><text xml:space="preserve" font-family="AvenirNext-Medium" font-size="33.3" fill="#838686" transform="matrix(1.00, 0.00, -0.00, -1.00, 478.2, 298.0)">r</text><text xml:space="preserve" font-family="AvenirNext-Medium" font-size="33.3" fill="#838686" transform="matrix(1.00, 0.00, -0.00, -1.00, 489.9, 298.0)">t</text><text xml:space="preserve" font-family="AvenirNext-Medium" font-size="33.3" fill="#838686" transform="matrix(1.00, 0.00, -0.00, -1.00, 500.9, 298.0)">i</text><text xml:space="preserve" font-family="AvenirNext-Medium" font-size="33.3" fill="#838686" transform="matrix(1.00, 0.00, -0.00, -1.00, 509.5, 298.0)">n</text><text xml:space="preserve" font-family="AvenirNext-Medium" font-size="33.3" fill="#838686" transform="matrix(1.00, 0.00, -0.00, -1.00, 528.9, 298.0)">g</text><text xml:space="preserve" font-family="AvenirNext-Medium" font-size="33.3" fill="#838686" transform="matrix(1.00, 0.00, -0.00, -1.00, 549.9, 298.0)"> </text><text xml:space="preserve" font-family="AvenirNext-Medium" font-size="33.3" fill="#838686" transform="matrix(1.00, 0.00, -0.00, -1.00, 558.3, 298.0)">o</text><text xml:space="preserve" font-family="AvenirNext-Medium" font-size="33.3" fill="#838686" transform="matrix(1.00, 0.00, -0.00, -1.00, 578.6, 298.0)">v</text><text xml:space="preserve" font-family="AvenirNext-Medium" font-size="33.3" fill="#838686" transform="matrix(1.00, 0.00, -0.00, -1.00, 595.4, 298.0)">e</text><text xml:space="preserve" font-family="AvenirNext-Medium" font-size="33.3" fill="#838686" transform="matrix(1.00, 0.00, -0.00, -1.00, 614.5, 298.0)">r</text><text xml:space="preserve" font-family="AvenirNext-Medium" font-size="33.3" fill="#838686" transform="matrix(1.00, 0.00, -0.00, -1.00, 626.5, 298.0)"> </text><text xml:space="preserve" font-family="LucidaGrande" font-size="35.0" fill="#34A4DA" transform="matrix(1.00, 0.00, -0.00, -1.00, 36.0, 222.6)">▸</text><text xml:space="preserve" font-family="AvenirNext-Medium" font-size="33.3" fill="#838686" transform="matrix(1.00, 0.00, -0.00, -1.00, 70.0, 225.0)">E</text><text xml:space="preserve" font-family="AvenirNext-Medium" font-size="33.3" fill="#838686" transform="matrix(1.00, 0.00, -0.00, -1.00, 90.0, 225.0)">n</text><text xml:space="preserve" font-family="AvenirNext-Medium" font-size="33.3" fill="#838686" transform="matrix(1.00, 0.00, -0.00, -1.00, 109.4, 225.0)">s</text><text xml:space="preserve" font-family="AvenirNext-Medium" font-size="33.3" fill="#838686" transform="matrix(1.00, 0.00, -0.00, -1.00, 124.2, 225.0)">u</text><text xml:space="preserve" font-family="AvenirNext-Medium" font-size="33.3" fill="#838686" transform="matrix(1.00, 0.00, -0.00, -1.00, 143.6, 225.0)">r</text><text xml:space="preserve" font-family="AvenirNext-Medium" font-size="33.3" fill="#838686" transform="matrix(1.00, 0.00, -0.00, -1.00, 155.1, 225.0)">e</text><text xml:space="preserve" font-family="AvenirNext-Medium" font-size="33.3" fill="#838686" transform="matrix(1.00, 0.00, -0.00, -1.00, 174.2, 225.0)"> </text><text xml:space="preserve" font-family="AvenirNext-Medium" font-size="33.3" fill="#838686" transform="matrix(1.00, 0.00, -0.00, -1.00, 182.5, 225.0)">p</text><text xml:space="preserve" font-family="AvenirNext-Medium" font-size="33.3" fill="#838686" transform="matrix(1.00, 0.00, -0.00, -1.00, 203.6, 225.0)">r</text><text xml:space="preserve" font-family="AvenirNext-Medium" font-size="33.3" fill="#838686" transform="matrix(1.00, 0.00, -0.00, -1.00, 215.1, 225.0)">o</text><text xml:space="preserve" font-family="AvenirNext-Medium" font-size="33.3" fill="#838686" transform="matrix(1.00, 0.00, -0.00, -1.00, 235.4, 225.0)">v</text><text xml:space="preserve" font-family="AvenirNext-Medium" font-size="33.3" fill="#838686" transform="matrix(1.00, 0.00, -0.00, -1.00, 252.2, 225.0)">e</text><text xml:space="preserve" font-family="AvenirNext-Medium" font-size="33.3" fill="#838686" transform="matrix(1.00, 0.00, -0.00, -1.00, 271.3, 225.0)">n</text><text xml:space="preserve" font-family="AvenirNext-Medium" font-size="33.3" fill="#838686" transform="matrix(1.00, 0.00, -0.00, -1.00, 290.7, 225.0)">a</text><text xml:space="preserve" font-family="AvenirNext-Medium" font-size="33.3" fill="#838686" transform="matrix(1.00, 0.00, -0.00, -1.00, 308.7, 225.0)">n</text><text xml:space="preserve" font-family="AvenirNext-Medium" font-size="33.3" fill="#838686" transform="matrix(1.00, 0.00, -0.00, -1.00, 328.1, 225.0)">c</text><text xml:space="preserve" font-family="AvenirNext-Medium" font-size="33.3" fill="#838686" transform="matrix(1.00, 0.00, -0.00, -1.00, 344.6, 225.0)">e</text><text xml:space="preserve" font-family="AvenirNext-Medium" font-size="33.3" fill="#838686" transform="matrix(1.00, 0.00, -0.00, -1.00, 363.7, 225.0)">,</text><text xml:space="preserve" font-family="AvenirNext-Medium" font-size="33.3" fill="#838686" transform="matrix(1.00, 0.00, -0.00, -1.00, 371.3, 225.0)"> </text><text xml:space="preserve" font-family="AvenirNext-Medium" font-size="33.3" fill="#838686" transform="matrix(1.00, 0.00, -0.00, -1.00, 379.7, 225.0)">v</text><text xml:space="preserve" font-family="AvenirNext-Medium" font-size="33.3" fill="#838686" transform="matrix(1.00, 0.00, -0.00, -1.00, 396.5, 225.0)">e</text><text xml:space="preserve" font-family="AvenirNext-Medium" font-size="33.3" fill="#838686" transform="matrix(1.00, 0.00, -0.00, -1.00, 415.6, 225.0)">r</text><text xml:space="preserve" font-family="AvenirNext-Medium" font-size="33.3" fill="#838686" transform="matrix(1.00, 0.00, -0.00, -1.00, 427.2, 225.0)">a</text><text xml:space="preserve" font-family="AvenirNext-Medium" font-size="33.3" fill="#838686" transform="matrix(1.00, 0.00, -0.00, -1.00, 445.2, 225.0)">c</text><text xml:space="preserve" font-family="AvenirNext-Medium" font-size="33.3" fill="#838686" transform="matrix(1.00, 0.00, -0.00, -1.00, 461.7, 225.0)">i</text><text xml:space="preserve" font-family="AvenirNext-Medium" font-size="33.3" fill="#838686" transform="matrix(1.00, 0.00, -0.00, -1.00, 470.3, 225.0)">t</text><text xml:space="preserve" font-family="AvenirNext-Medium" font-size="33.3" fill="#838686" transform="matrix(1.00, 0.00, -0.00, -1.00, 481.3, 225.0)">y</text><text xml:space="preserve" font-family="AvenirNext-Medium" font-size="33.3" fill="#838686" transform="matrix(1.00, 0.00, -0.00, -1.00, 498.1, 225.0)"> </text><text xml:space="preserve" font-family="AvenirNext-Medium" font-size="33.3" fill="#838686" transform="matrix(1.00, 0.00, -0.00, -1.00, 506.4, 225.0)">o</text><text xml:space="preserve" font-family="AvenirNext-Medium" font-size="33.3" fill="#838686" transform="matrix(1.00, 0.00, -0.00, -1.00, 526.8, 225.0)">f</text><text xml:space="preserve" font-family="AvenirNext-Medium" font-size="33.3" fill="#838686" transform="matrix(1.00, 0.00, -0.00, -1.00, 537.9, 225.0)"> </text><text xml:space="preserve" font-family="AvenirNext-Medium" font-size="33.3" fill="#838686" transform="matrix(1.00, 0.00, -0.00, -1.00, 546.2, 225.0)">a</text><text xml:space="preserve" font-family="AvenirNext-Medium" font-size="33.3" fill="#838686" transform="matrix(1.00, 0.00, -0.00, -1.00, 564.3, 225.0)">l</text><text xml:space="preserve" font-family="AvenirNext-Medium" font-size="33.3" fill="#838686" transform="matrix(1.00, 0.00, -0.00, -1.00, 572.9, 225.0)">l</text><text xml:space="preserve" font-family="AvenirNext-Medium" font-size="33.3" fill="#838686" transform="matrix(1.00, 0.00, -0.00, -1.00, 581.6, 225.0)"> </text><text xml:space="preserve" font-family="AvenirNext-Medium" font-size="33.3" fill="#838686" transform="matrix(1.00, 0.00, -0.00, -1.00, 589.9, 225.0)">d</text><text xml:space="preserve" font-family="AvenirNext-Medium" font-size="33.3" fill="#838686" transform="matrix(1.00, 0.00, -0.00, -1.00, 611.1, 225.0)">a</text><text xml:space="preserve" font-family="AvenirNext-Medium" font-size="33.3" fill="#838686" transform="matrix(1.00, 0.00, -0.00, -1.00, 628.8, 225.0)">t</text><text xml:space="preserve" font-family="AvenirNext-Medium" font-size="33.3" fill="#838686" transform="matrix(1.00, 0.00, -0.00, -1.00, 639.8, 225.0)">a</text><text xml:space="preserve" font-family="AvenirNext-Medium" font-size="33.3" fill="#838686" transform="matrix(1.00, 0.00, -0.00, -1.00, 657.8, 225.0)">,</text><text xml:space="preserve" font-family="AvenirNext-Medium" font-size="33.3" fill="#838686" transform="matrix(1.00, 0.00, -0.00, -1.00, 665.5, 225.0)"> </text><text xml:space="preserve" font-family="AvenirNext-Medium" font-size="33.3" fill="#838686" transform="matrix(1.00, 0.00, -0.00, -1.00, 673.8, 225.0)">o</text><text xml:space="preserve" font-family="AvenirNext-Medium" font-size="33.3" fill="#838686" transform="matrix(1.00, 0.00, -0.00, -1.00, 694.2, 225.0)">r</text><text xml:space="preserve" font-family="AvenirNext-Medium" font-size="33.3" fill="#838686" transform="matrix(1.00, 0.00, -0.00, -1.00, 706.2, 225.0)">i</text><text xml:space="preserve" font-family="AvenirNext-Medium" font-size="33.3" fill="#838686" transform="matrix(1.00, 0.00, -0.00, -1.00, 714.8, 225.0)">g</text><text xml:space="preserve" font-family="AvenirNext-Medium" font-size="33.3" fill="#838686" transform="matrix(1.00, 0.00, -0.00, -1.00, 735.9, 225.0)">i</text><text xml:space="preserve" font-family="AvenirNext-Medium" font-size="33.3" fill="#838686" transform="matrix(1.00, 0.00, -0.00, -1.00, 744.5, 225.0)">n</text><text xml:space="preserve" font-family="AvenirNext-Medium" font-size="33.3" fill="#838686" transform="matrix(1.00, 0.00, -0.00, -1.00, 763.9, 225.0)">a</text><text xml:space="preserve" font-family="AvenirNext-Medium" font-size="33.3" fill="#838686" transform="matrix(1.00, 0.00, -0.00, -1.00, 782.0, 225.0)">l</text><text xml:space="preserve" font-family="AvenirNext-Medium" font-size="33.3" fill="#838686" transform="matrix(1.00, 0.00, -0.00, -1.00, 790.6, 225.0)"> </text><text xml:space="preserve" font-family="AvenirNext-Medium" font-size="33.3" fill="#838686" transform="matrix(1.00, 0.00, -0.00, -1.00, 799.0, 225.0)">a</text><text xml:space="preserve" font-family="AvenirNext-Medium" font-size="33.3" fill="#838686" transform="matrix(1.00, 0.00, -0.00, -1.00, 817.0, 225.0)">n</text><text xml:space="preserve" font-family="AvenirNext-Medium" font-size="33.3" fill="#838686" transform="matrix(1.00, 0.00, -0.00, -1.00, 836.4, 225.0)">d</text><text xml:space="preserve" font-family="AvenirNext-Medium" font-size="33.3" fill="#838686" transform="matrix(1.00, 0.00, -0.00, -1.00, 857.6, 225.0)"> </text><text xml:space="preserve" font-family="AvenirNext-Medium" font-size="33.3" fill="#838686" transform="matrix(1.00, 0.00, -0.00, -1.00, 865.9, 225.0)">d</text><text xml:space="preserve" font-family="AvenirNext-Medium" font-size="33.3" fill="#838686" transform="matrix(1.00, 0.00, -0.00, -1.00, 887.1, 225.0)">e</text><text xml:space="preserve" font-family="AvenirNext-Medium" font-size="33.3" fill="#838686" transform="matrix(1.00, 0.00, -0.00, -1.00, 906.2, 225.0)">r</text><text xml:space="preserve" font-family="AvenirNext-Medium" font-size="33.3" fill="#838686" transform="matrix(1.00, 0.00, -0.00, -1.00, 918.2, 225.0)">i</text><text xml:space="preserve" font-family="AvenirNext-Medium" font-size="33.3" fill="#838686" transform="matrix(1.00, 0.00, -0.00, -1.00, 926.9, 225.0)">v</text><text xml:space="preserve" font-family="AvenirNext-Medium" font-size="33.3" fill="#838686" transform="matrix(1.00, 0.00, -0.00, -1.00, 943.7, 225.0)">e</text><text xml:space="preserve" font-family="AvenirNext-Medium" font-size="33.3" fill="#838686" transform="matrix(1.00, 0.00, -0.00, -1.00, 962.7, 225.0)">d</text><text xml:space="preserve" font-family="AvenirNext-Medium" font-size="33.3" fill="#838686" transform="matrix(1.00, 0.00, -0.00, -1.00, 983.9, 225.0)"> </text><text xml:space="preserve" font-family="LucidaGrande" font-size="35.0" fill="#34A4DA" transform="matrix(1.00, 0.00, -0.00, -1.00, 36.0, 150.2)">▸</text><text xml:space="preserve" font-family="AvenirNext-Medium" font-size="33.3" fill="#838686" transform="matrix(1.00, 0.00, -0.00, -1.00, 70.0, 153.0)">U</text><text xml:space="preserve" font-family="AvenirNext-Medium" font-size="33.3" fill="#838686" transform="matrix(1.00, 0.00, -0.00, -1.00, 93.7, 153.0)">s</text><text xml:space="preserve" font-family="AvenirNext-Medium" font-size="33.3" fill="#838686" transform="matrix(1.00, 0.00, -0.00, -1.00, 108.5, 153.0)">e</text><text xml:space="preserve" font-family="AvenirNext-Medium" font-size="33.3" fill="#838686" transform="matrix(1.00, 0.00, -0.00, -1.00, 127.6, 153.0)"> </text><text xml:space="preserve" font-family="AvenirNext-Medium" font-size="33.3" fill="#838686" transform="matrix(1.00, 0.00, -0.00, -1.00, 135.9, 153.0)">c</text><text xml:space="preserve" font-family="AvenirNext-Medium" font-size="33.3" fill="#838686" transform="matrix(1.00, 0.00, -0.00, -1.00, 152.4, 153.0)">o</text><text xml:space="preserve" font-family="AvenirNext-Medium" font-size="33.3" fill="#838686" transform="matrix(1.00, 0.00, -0.00, -1.00, 172.7, 153.0)">d</text><text xml:space="preserve" font-family="AvenirNext-Medium" font-size="33.3" fill="#838686" transform="matrix(1.00, 0.00, -0.00, -1.00, 193.9, 153.0)">e</text><text xml:space="preserve" font-family="AvenirNext-Medium" font-size="33.3" fill="#838686" transform="matrix(1.00, 0.00, -0.00, -1.00, 213.0, 153.0)"> </text><text xml:space="preserve" font-family="AvenirNext-Medium" font-size="33.3" fill="#838686" transform="matrix(1.00, 0.00, -0.00, -1.00, 221.3, 153.0)">i</text><text xml:space="preserve" font-family="AvenirNext-Medium" font-size="33.3" fill="#838686" transform="matrix(1.00, 0.00, -0.00, -1.00, 229.9, 153.0)">n</text><text xml:space="preserve" font-family="AvenirNext-Medium" font-size="33.3" fill="#838686" transform="matrix(1.00, 0.00, -0.00, -1.00, 249.3, 153.0)">s</text><text xml:space="preserve" font-family="AvenirNext-Medium" font-size="33.3" fill="#838686" transform="matrix(1.00, 0.00, -0.00, -1.00, 264.1, 153.0)">t</text><text xml:space="preserve" font-family="AvenirNext-Medium" font-size="33.3" fill="#838686" transform="matrix(1.00, 0.00, -0.00, -1.00, 275.1, 153.0)">e</text><text xml:space="preserve" font-family="AvenirNext-Medium" font-size="33.3" fill="#838686" transform="matrix(1.00, 0.00, -0.00, -1.00, 294.0, 153.0)">a</text><text xml:space="preserve" font-family="AvenirNext-Medium" font-size="33.3" fill="#838686" transform="matrix(1.00, 0.00, -0.00, -1.00, 312.0, 153.0)">d</text><text xml:space="preserve" font-family="AvenirNext-Medium" font-size="33.3" fill="#838686" transform="matrix(1.00, 0.00, -0.00, -1.00, 333.2, 153.0)"> </text><text xml:space="preserve" font-family="AvenirNext-Medium" font-size="33.3" fill="#838686" transform="matrix(1.00, 0.00, -0.00, -1.00, 341.5, 153.0)">o</text><text xml:space="preserve" font-family="AvenirNext-Medium" font-size="33.3" fill="#838686" transform="matrix(1.00, 0.00, -0.00, -1.00, 361.8, 153.0)">f</text><text xml:space="preserve" font-family="AvenirNext-Medium" font-size="33.3" fill="#838686" transform="matrix(1.00, 0.00, -0.00, -1.00, 373.0, 153.0)"> </text><text xml:space="preserve" font-family="AvenirNext-Medium" font-size="33.3" fill="#838686" transform="matrix(1.00, 0.00, -0.00, -1.00, 381.3, 153.0)">m</text><text xml:space="preserve" font-family="AvenirNext-Medium" font-size="33.3" fill="#838686" transform="matrix(1.00, 0.00, -0.00, -1.00, 410.9, 153.0)">e</text><text xml:space="preserve" font-family="AvenirNext-Medium" font-size="33.3" fill="#838686" transform="matrix(1.00, 0.00, -0.00, -1.00, 430.0, 153.0)">n</text><text xml:space="preserve" font-family="AvenirNext-Medium" font-size="33.3" fill="#838686" transform="matrix(1.00, 0.00, -0.00, -1.00, 449.3, 153.0)">u</text><text xml:space="preserve" font-family="AvenirNext-Medium" font-size="33.3" fill="#838686" transform="matrix(1.00, 0.00, -0.00, -1.00, 468.7, 153.0)">s</text><text xml:space="preserve" font-family="AvenirNext-Medium" font-size="33.3" fill="#838686" transform="matrix(1.00, 0.00, -0.00, -1.00, 483.5, 153.0)"> </text><text xml:space="preserve" font-family="AvenirNext-Medium" font-size="33.3" fill="#838686" transform="matrix(1.00, 0.00, -0.00, -1.00, 491.9, 153.0)">t</text><text xml:space="preserve" font-family="AvenirNext-Medium" font-size="33.3" fill="#838686" transform="matrix(1.00, 0.00, -0.00, -1.00, 502.8, 153.0)">o</text><text xml:space="preserve" font-family="AvenirNext-Medium" font-size="33.3" fill="#838686" transform="matrix(1.00, 0.00, -0.00, -1.00, 523.2, 153.0)"> </text><text xml:space="preserve" font-family="AvenirNext-Medium" font-size="33.3" fill="#838686" transform="matrix(1.00, 0.00, -0.00, -1.00, 531.5, 153.0)">h</text><text xml:space="preserve" font-family="AvenirNext-Medium" font-size="33.3" fill="#838686" transform="matrix(1.00, 0.00, -0.00, -1.00, 550.9, 153.0)">e</text><text xml:space="preserve" font-family="AvenirNext-Medium" font-size="33.3" fill="#838686" transform="matrix(1.00, 0.00, -0.00, -1.00, 570.0, 153.0)">l</text><text xml:space="preserve" font-family="AvenirNext-Medium" font-size="33.3" fill="#838686" transform="matrix(1.00, 0.00, -0.00, -1.00, 578.7, 153.0)">p</text><text xml:space="preserve" font-family="AvenirNext-Medium" font-size="33.3" fill="#838686" transform="matrix(1.00, 0.00, -0.00, -1.00, 599.8, 153.0)"> </text><text xml:space="preserve" font-family="AvenirNext-Medium" font-size="33.3" fill="#838686" transform="matrix(1.00, 0.00, -0.00, -1.00, 608.2, 153.0)">v</text><text xml:space="preserve" font-family="AvenirNext-Medium" font-size="33.3" fill="#838686" transform="matrix(1.00, 0.00, -0.00, -1.00, 624.9, 153.0)">a</text><text xml:space="preserve" font-family="AvenirNext-Medium" font-size="33.3" fill="#838686" transform="matrix(1.00, 0.00, -0.00, -1.00, 643.0, 153.0)">l</text><text xml:space="preserve" font-family="AvenirNext-Medium" font-size="33.3" fill="#838686" transform="matrix(1.00, 0.00, -0.00, -1.00, 651.7, 153.0)">i</text><text xml:space="preserve" font-family="AvenirNext-Medium" font-size="33.3" fill="#838686" transform="matrix(1.00, 0.00, -0.00, -1.00, 660.3, 153.0)">d</text><text xml:space="preserve" font-family="AvenirNext-Medium" font-size="33.3" fill="#838686" transform="matrix(1.00, 0.00, -0.00, -1.00, 681.5, 153.0)">a</text><text xml:space="preserve" font-family="AvenirNext-Medium" font-size="33.3" fill="#838686" transform="matrix(1.00, 0.00, -0.00, -1.00, 699.2, 153.0)">t</text><text xml:space="preserve" font-family="AvenirNext-Medium" font-size="33.3" fill="#838686" transform="matrix(1.00, 0.00, -0.00, -1.00, 710.1, 153.0)">i</text><text xml:space="preserve" font-family="AvenirNext-Medium" font-size="33.3" fill="#838686" transform="matrix(1.00, 0.00, -0.00, -1.00, 718.8, 153.0)">o</text><text xml:space="preserve" font-family="AvenirNext-Medium" font-size="33.3" fill="#838686" transform="matrix(1.00, 0.00, -0.00, -1.00, 739.1, 153.0)">n</text><text xml:space="preserve" font-family="AvenirNext-Medium" font-size="33.3" fill="#838686" transform="matrix(1.00, 0.00, -0.00, -1.00, 758.5, 153.0)"> </text><text xml:space="preserve" font-family="AvenirNext-Medium" font-size="33.3" fill="#838686" transform="matrix(1.00, 0.00, -0.00, -1.00, 766.8, 153.0)">o</text><text xml:space="preserve" font-family="AvenirNext-Medium" font-size="33.3" fill="#838686" transform="matrix(1.00, 0.00, -0.00, -1.00, 787.1, 153.0)">f</text><text xml:space="preserve" font-family="AvenirNext-Medium" font-size="33.3" fill="#838686" transform="matrix(1.00, 0.00, -0.00, -1.00, 798.3, 153.0)"> </text><text xml:space="preserve" font-family="AvenirNext-Medium" font-size="33.3" fill="#838686" transform="matrix(1.00, 0.00, -0.00, -1.00, 806.6, 153.0)">t</text><text xml:space="preserve" font-family="AvenirNext-Medium" font-size="33.3" fill="#838686" transform="matrix(1.00, 0.00, -0.00, -1.00, 817.6, 153.0)">h</text><text xml:space="preserve" font-family="AvenirNext-Medium" font-size="33.3" fill="#838686" transform="matrix(1.00, 0.00, -0.00, -1.00, 837.0, 153.0)">e</text><text xml:space="preserve" font-family="AvenirNext-Medium" font-size="33.3" fill="#838686" transform="matrix(1.00, 0.00, -0.00, -1.00, 856.1, 153.0)"> </text><text xml:space="preserve" font-family="AvenirNext-Medium" font-size="33.3" fill="#838686" transform="matrix(1.00, 0.00, -0.00, -1.00, 864.4, 153.0)">a</text><text xml:space="preserve" font-family="AvenirNext-Medium" font-size="33.3" fill="#838686" transform="matrix(1.00, 0.00, -0.00, -1.00, 882.5, 153.0)">n</text><text xml:space="preserve" font-family="AvenirNext-Medium" font-size="33.3" fill="#838686" transform="matrix(1.00, 0.00, -0.00, -1.00, 901.9, 153.0)">a</text><text xml:space="preserve" font-family="AvenirNext-Medium" font-size="33.3" fill="#838686" transform="matrix(1.00, 0.00, -0.00, -1.00, 920.0, 153.0)">l</text><text xml:space="preserve" font-family="AvenirNext-Medium" font-size="33.3" fill="#838686" transform="matrix(1.00, 0.00, -0.00, -1.00, 928.6, 153.0)">y</text><text xml:space="preserve" font-family="AvenirNext-Medium" font-size="33.3" fill="#838686" transform="matrix(1.00, 0.00, -0.00, -1.00, 945.4, 153.0)">t</text><text xml:space="preserve" font-family="AvenirNext-Medium" font-size="33.3" fill="#838686" transform="matrix(1.00, 0.00, -0.00, -1.00, 956.4, 153.0)">i</text><text xml:space="preserve" font-family="AvenirNext-Medium" font-size="33.3" fill="#838686" transform="matrix(1.00, 0.00, -0.00, -1.00, 965.0, 153.0)">c</text><text xml:space="preserve" font-family="AvenirNext-Medium" font-size="33.3" fill="#838686" transform="matrix(1.00, 0.00, -0.00, -1.00, 981.5, 153.0)"> </text><text xml:space="preserve" font-family="AvenirNext-Medium" font-size="33.3" fill="#838686" transform="matrix(1.00, 0.00, -0.00, -1.00, 70.0, 108.0)">p</text><text xml:space="preserve" font-family="AvenirNext-Medium" font-size="33.3" fill="#838686" transform="matrix(1.00, 0.00, -0.00, -1.00, 91.1, 108.0)">r</text><text xml:space="preserve" font-family="AvenirNext-Medium" font-size="33.3" fill="#838686" transform="matrix(1.00, 0.00, -0.00, -1.00, 102.6, 108.0)">o</text><text xml:space="preserve" font-family="AvenirNext-Medium" font-size="33.3" fill="#838686" transform="matrix(1.00, 0.00, -0.00, -1.00, 122.9, 108.0)">c</text><text xml:space="preserve" font-family="AvenirNext-Medium" font-size="33.3" fill="#838686" transform="matrix(1.00, 0.00, -0.00, -1.00, 139.4, 108.0)">e</text><text xml:space="preserve" font-family="AvenirNext-Medium" font-size="33.3" fill="#838686" transform="matrix(1.00, 0.00, -0.00, -1.00, 158.5, 108.0)">s</text><text xml:space="preserve" font-family="AvenirNext-Medium" font-size="33.3" fill="#838686" transform="matrix(1.00, 0.00, -0.00, -1.00, 173.3, 108.0)">s</text></g></svg>