<?xml version="1.0" encoding="UTF-8" standalone="no"?><svg xmlns="http://www.w3.org/2000/svg" xmlns:xlink="http://www.w3.org/1999/xlink" clip-rule="evenodd" stroke-miterlimit="4.00" viewBox="0 0 1024 768"><desc>SVG generated by Keynote</desc><defs></defs><g transform="matrix(1.00, 0.00, -0.00, -1.00, 0.0, 768.0)"><path d="M 0.0 768.0 L 1024.0 768.0 L 1024.0 0.0 L 0.0 0.0 Z M 0.0 768.0 " fill="#212121"></path><path d="M 0.0 0.0 L 960.0 0.0 " fill="none" stroke="#A6AAA9" stroke-width="2.00" transform="matrix(1.00, 0.00, 0.00, -1.00, 32.0, 689.8)"></path><text xml:space="preserve" font-family="DINAlternate-Bold" font-weight="bold" font-size="24.0" fill="#838686" transform="matrix(1.00, 0.00, -0.00, -1.00, 36.0, 705.0)">P</text><text xml:space="preserve" font-family="DINAlternate-Bold" font-weight="bold" font-size="24.0" fill="#838686" transform="matrix(1.00, 0.00, -0.00, -1.00, 51.4, 705.0)">R</text><text xml:space="preserve" font-family="DINAlternate-Bold" font-weight="bold" font-size="24.0" fill="#838686" transform="matrix(1.00, 0.00, -0.00, -1.00, 67.3, 705.0)">O</text><text xml:space="preserve" font-family="DINAlternate-Bold" font-weight="bold" font-size="24.0" fill="#838686" transform="matrix(1.00, 0.00, -0.00, -1.00, 83.1, 705.0)">J</text><text xml:space="preserve" font-family="DINAlternate-Bold" font-weight="bold" font-size="24.0" fill="#838686" transform="matrix(1.00, 0.00, -0.00, -1.00, 95.8, 705.0)">E</text><text xml:space="preserve" font-family="DINAlternate-Bold" font-weight="bold" font-size="24.0" fill="#838686" transform="matrix(1.00, 0.00, -0.00, -1.00, 110.4, 705.0)">C</text><text xml:space="preserve" font-family="DINAlternate-Bold" font-weight="bold" font-size="24.0" fill="#838686" transform="matrix(1.00, 0.00, -0.00, -1.00, 124.9, 705.0)">T</text><text xml:space="preserve" font-family="DINAlternate-Bold" font-weight="bold" font-size="24.0" fill="#838686" transform="matrix(1.00, 0.00, -0.00, -1.00, 138.1, 705.0)"> </text><text xml:space="preserve" font-family="DINAlternate-Bold" font-weight="bold" font-size="24.0" fill="#838686" transform="matrix(1.00, 0.00, -0.00, -1.00, 145.1, 705.0)">O</text><text xml:space="preserve" font-family="DINAlternate-Bold" font-weight="bold" font-size="24.0" fill="#838686" transform="matrix(1.00, 0.00, -0.00, -1.00, 160.9, 705.0)">R</text><text xml:space="preserve" font-family="DINAlternate-Bold" font-weight="bold" font-size="24.0" fill="#838686" transform="matrix(1.00, 0.00, -0.00, -1.00, 176.7, 705.0)">G</text><text xml:space="preserve" font-family="DINAlternate-Bold" font-weight="bold" font-size="24.0" fill="#838686" transform="matrix(1.00, 0.00, -0.00, -1.00, 192.5, 705.0)">A</text><text xml:space="preserve" font-family="DINAlternate-Bold" font-weight="bold" font-size="24.0" fill="#838686" transform="matrix(1.00, 0.00, -0.00, -1.00, 208.4, 705.0)">N</text><text xml:space="preserve" font-family="DINAlternate-Bold" font-weight="bold" font-size="24.0" fill="#838686" transform="matrix(1.00, 0.00, -0.00, -1.00, 226.0, 705.0)">I</text><text xml:space="preserve" font-family="DINAlternate-Bold" font-weight="bold" font-size="24.0" fill="#838686" transform="matrix(1.00, 0.00, -0.00, -1.00, 233.4, 705.0)">Z</text><text xml:space="preserve" font-family="DINAlternate-Bold" font-weight="bold" font-size="24.0" fill="#838686" transform="matrix(1.00, 0.00, -0.00, -1.00, 247.0, 705.0)">A</text><text xml:space="preserve" font-family="DINAlternate-Bold" font-weight="bold" font-size="24.0" fill="#838686" transform="matrix(1.00, 0.00, -0.00, -1.00, 261.1, 705.0)">T</text><text xml:space="preserve" font-family="DINAlternate-Bold" font-weight="bold" font-size="24.0" fill="#838686" transform="matrix(1.00, 0.00, -0.00, -1.00, 274.3, 705.0)">I</text><text xml:space="preserve" font-family="DINAlternate-Bold" font-weight="bold" font-size="24.0" fill="#838686" transform="matrix(1.00, 0.00, -0.00, -1.00, 281.7, 705.0)">O</text><text xml:space="preserve" font-family="DINAlternate-Bold" font-weight="bold" font-size="24.0" fill="#838686" transform="matrix(1.00, 0.00, -0.00, -1.00, 297.5, 705.0)">N</text><text xml:space="preserve" font-family="DINCondensed-Bold" font-weight="bold" font-size="48.0" fill="#34A4DA" transform="matrix(1.00, 0.00, -0.00, -1.00, 36.0, 608.0)">D</text><text xml:space="preserve" font-family="DINCondensed-Bold" font-weight="bold" font-size="48.0" fill="#34A4DA" transform="matrix(1.00, 0.00, -0.00, -1.00, 56.4, 608.0)">O</text><text xml:space="preserve" font-family="DINCondensed-Bold" font-weight="bold" font-size="48.0" fill="#34A4DA" transform="matrix(1.00, 0.00, -0.00, -1.00, 76.9, 608.0)">C</text><text xml:space="preserve" font-family="DINCondensed-Bold" font-weight="bold" font-size="48.0" fill="#34A4DA" transform="matrix(1.00, 0.00, -0.00, -1.00, 96.4, 608.0)">U</text><text xml:space="preserve" font-family="DINCondensed-Bold" font-weight="bold" font-size="48.0" fill="#34A4DA" transform="matrix(1.00, 0.00, -0.00, -1.00, 116.9, 608.0)">M</text><text xml:space="preserve" font-family="DINCondensed-Bold" font-weight="bold" font-size="48.0" fill="#34A4DA" transform="matrix(1.00, 0.00, -0.00, -1.00, 143.6, 608.0)">E</text><text xml:space="preserve" font-family="DINCondensed-Bold" font-weight="bold" font-size="48.0" fill="#34A4DA" transform="matrix(1.00, 0.00, -0.00, -1.00, 161.3, 608.0)">N</text><text xml:space="preserve" font-family="DINCondensed-Bold" font-weight="bold" font-size="48.0" fill="#34A4DA" transform="matrix(1.00, 0.00, -0.00, -1.00, 182.6, 608.0)">T</text><text xml:space="preserve" font-family="DINCondensed-Bold" font-weight="bold" font-size="48.0" fill="#34A4DA" transform="matrix(1.00, 0.00, -0.00, -1.00, 195.9, 608.0)">A</text><text xml:space="preserve" font-family="DINCondensed-Bold" font-weight="bold" font-size="48.0" fill="#34A4DA" transform="matrix(1.00, 0.00, -0.00, -1.00, 212.8, 608.0)">T</text><text xml:space="preserve" font-family="DINCondensed-Bold" font-weight="bold" font-size="48.0" fill="#34A4DA" transform="matrix(1.00, 0.00, -0.00, -1.00, 228.8, 608.0)">I</text><text xml:space="preserve" font-family="DINCondensed-Bold" font-weight="bold" font-size="48.0" fill="#34A4DA" transform="matrix(1.00, 0.00, -0.00, -1.00, 238.6, 608.0)">O</text><text xml:space="preserve" font-family="DINCondensed-Bold" font-weight="bold" font-size="48.0" fill="#34A4DA" transform="matrix(1.00, 0.00, -0.00, -1.00, 259.0, 608.0)">N</text><text xml:space="preserve" font-family="LucidaGrande" font-size="35.7" fill="#34A4DA" transform="matrix(1.00, 0.00, -0.00, -1.00, 36.0, 511.0)">▸</text><text xml:space="preserve" font-family="AvenirNext-Medium" font-size="34.0" fill="#838686" transform="matrix(1.00, 0.00, -0.00, -1.00, 71.0, 514.0)">C</text><text xml:space="preserve" font-family="AvenirNext-Medium" font-size="34.0" fill="#838686" transform="matrix(1.00, 0.00, -0.00, -1.00, 95.1, 514.0)">r</text><text xml:space="preserve" font-family="AvenirNext-Medium" font-size="34.0" fill="#838686" transform="matrix(1.00, 0.00, -0.00, -1.00, 106.8, 514.0)">e</text><text xml:space="preserve" font-family="AvenirNext-Medium" font-size="34.0" fill="#838686" transform="matrix(1.00, 0.00, -0.00, -1.00, 126.0, 514.0)">a</text><text xml:space="preserve" font-family="AvenirNext-Medium" font-size="34.0" fill="#838686" transform="matrix(1.00, 0.00, -0.00, -1.00, 144.1, 514.0)">t</text><text xml:space="preserve" font-family="AvenirNext-Medium" font-size="34.0" fill="#838686" transform="matrix(1.00, 0.00, -0.00, -1.00, 155.3, 514.0)">e</text><text xml:space="preserve" font-family="AvenirNext-Medium" font-size="34.0" fill="#838686" transform="matrix(1.00, 0.00, -0.00, -1.00, 174.8, 514.0)"> </text><text xml:space="preserve" font-family="AvenirNext-Medium" font-size="34.0" fill="#838686" transform="matrix(1.00, 0.00, -0.00, -1.00, 183.3, 514.0)">a</text><text xml:space="preserve" font-family="AvenirNext-Medium" font-size="34.0" fill="#838686" transform="matrix(1.00, 0.00, -0.00, -1.00, 201.4, 514.0)">t</text><text xml:space="preserve" font-family="AvenirNext-Medium" font-size="34.0" fill="#838686" transform="matrix(1.00, 0.00, -0.00, -1.00, 212.6, 514.0)"> </text><text xml:space="preserve" font-family="AvenirNext-Medium" font-size="34.0" fill="#838686" transform="matrix(1.00, 0.00, -0.00, -1.00, 221.1, 514.0)">l</text><text xml:space="preserve" font-family="AvenirNext-Medium" font-size="34.0" fill="#838686" transform="matrix(1.00, 0.00, -0.00, -1.00, 229.9, 514.0)">e</text><text xml:space="preserve" font-family="AvenirNext-Medium" font-size="34.0" fill="#838686" transform="matrix(1.00, 0.00, -0.00, -1.00, 249.2, 514.0)">a</text><text xml:space="preserve" font-family="AvenirNext-Medium" font-size="34.0" fill="#838686" transform="matrix(1.00, 0.00, -0.00, -1.00, 267.6, 514.0)">s</text><text xml:space="preserve" font-family="AvenirNext-Medium" font-size="34.0" fill="#838686" transform="matrix(1.00, 0.00, -0.00, -1.00, 282.7, 514.0)">t</text><text xml:space="preserve" font-family="AvenirNext-Medium" font-size="34.0" fill="#838686" transform="matrix(1.00, 0.00, -0.00, -1.00, 293.9, 514.0)"> </text><text xml:space="preserve" font-family="AvenirNext-Medium" font-size="34.0" fill="#838686" transform="matrix(1.00, 0.00, -0.00, -1.00, 302.4, 514.0)">o</text><text xml:space="preserve" font-family="AvenirNext-Medium" font-size="34.0" fill="#838686" transform="matrix(1.00, 0.00, -0.00, -1.00, 323.1, 514.0)">n</text><text xml:space="preserve" font-family="AvenirNext-Medium" font-size="34.0" fill="#838686" transform="matrix(1.00, 0.00, -0.00, -1.00, 342.9, 514.0)">e</text><text xml:space="preserve" font-family="AvenirNext-Medium" font-size="34.0" fill="#838686" transform="matrix(1.00, 0.00, -0.00, -1.00, 362.4, 514.0)"> </text><text xml:space="preserve" font-family="AvenirNext-Medium" font-size="34.0" fill="#838686" transform="matrix(1.00, 0.00, -0.00, -1.00, 370.9, 514.0)">R</text><text xml:space="preserve" font-family="AvenirNext-Medium" font-size="34.0" fill="#838686" transform="matrix(1.00, 0.00, -0.00, -1.00, 391.8, 514.0)">E</text><text xml:space="preserve" font-family="AvenirNext-Medium" font-size="34.0" fill="#838686" transform="matrix(1.00, 0.00, -0.00, -1.00, 412.2, 514.0)">A</text><text xml:space="preserve" font-family="AvenirNext-Medium" font-size="34.0" fill="#838686" transform="matrix(1.00, 0.00, -0.00, -1.00, 436.4, 514.0)">D</text><text xml:space="preserve" font-family="AvenirNext-Medium" font-size="34.0" fill="#838686" transform="matrix(1.00, 0.00, -0.00, -1.00, 462.3, 514.0)">M</text><text xml:space="preserve" font-family="AvenirNext-Medium" font-size="34.0" fill="#838686" transform="matrix(1.00, 0.00, -0.00, -1.00, 493.0, 514.0)">E</text><text xml:space="preserve" font-family="AvenirNext-Medium" font-size="34.0" fill="#838686" transform="matrix(1.00, 0.00, -0.00, -1.00, 513.4, 514.0)"> </text><text xml:space="preserve" font-family="LucidaGrande" font-size="35.7" fill="#34A4DA" transform="matrix(1.00, 0.00, -0.00, -1.00, 71.0, 437.0)">▸</text><text xml:space="preserve" font-family="AvenirNext-Medium" font-size="34.0" fill="#838686" transform="matrix(1.00, 0.00, -0.00, -1.00, 106.0, 440.0)">W</text><text xml:space="preserve" font-family="AvenirNext-Medium" font-size="34.0" fill="#838686" transform="matrix(1.00, 0.00, -0.00, -1.00, 138.8, 440.0)">r</text><text xml:space="preserve" font-family="AvenirNext-Medium" font-size="34.0" fill="#838686" transform="matrix(1.00, 0.00, -0.00, -1.00, 151.1, 440.0)">i</text><text xml:space="preserve" font-family="AvenirNext-Medium" font-size="34.0" fill="#838686" transform="matrix(1.00, 0.00, -0.00, -1.00, 159.9, 440.0)">t</text><text xml:space="preserve" font-family="AvenirNext-Medium" font-size="34.0" fill="#838686" transform="matrix(1.00, 0.00, -0.00, -1.00, 171.1, 440.0)">e</text><text xml:space="preserve" font-family="AvenirNext-Medium" font-size="34.0" fill="#838686" transform="matrix(1.00, 0.00, -0.00, -1.00, 190.6, 440.0)"> </text><text xml:space="preserve" font-family="AvenirNext-Medium" font-size="34.0" fill="#838686" transform="matrix(1.00, 0.00, -0.00, -1.00, 199.1, 440.0)">d</text><text xml:space="preserve" font-family="AvenirNext-Medium" font-size="34.0" fill="#838686" transform="matrix(1.00, 0.00, -0.00, -1.00, 220.6, 440.0)">o</text><text xml:space="preserve" font-family="AvenirNext-Medium" font-size="34.0" fill="#838686" transform="matrix(1.00, 0.00, -0.00, -1.00, 241.4, 440.0)">w</text><text xml:space="preserve" font-family="AvenirNext-Medium" font-size="34.0" fill="#838686" transform="matrix(1.00, 0.00, -0.00, -1.00, 267.7, 440.0)">n</text><text xml:space="preserve" font-family="AvenirNext-Medium" font-size="34.0" fill="#838686" transform="matrix(1.00, 0.00, -0.00, -1.00, 287.5, 440.0)"> </text><text xml:space="preserve" font-family="AvenirNext-Medium" font-size="34.0" fill="#838686" transform="matrix(1.00, 0.00, -0.00, -1.00, 296.0, 440.0)">t</text><text xml:space="preserve" font-family="AvenirNext-Medium" font-size="34.0" fill="#838686" transform="matrix(1.00, 0.00, -0.00, -1.00, 307.1, 440.0)">h</text><text xml:space="preserve" font-family="AvenirNext-Medium" font-size="34.0" fill="#838686" transform="matrix(1.00, 0.00, -0.00, -1.00, 327.0, 440.0)">e</text><text xml:space="preserve" font-family="AvenirNext-Medium" font-size="34.0" fill="#838686" transform="matrix(1.00, 0.00, -0.00, -1.00, 346.5, 440.0)"> </text><text xml:space="preserve" font-family="AvenirNext-Medium" font-size="34.0" fill="#838686" transform="matrix(1.00, 0.00, -0.00, -1.00, 355.0, 440.0)">d</text><text xml:space="preserve" font-family="AvenirNext-Medium" font-size="34.0" fill="#838686" transform="matrix(1.00, 0.00, -0.00, -1.00, 376.6, 440.0)">r</text><text xml:space="preserve" font-family="AvenirNext-Medium" font-size="34.0" fill="#838686" transform="matrix(1.00, 0.00, -0.00, -1.00, 388.9, 440.0)">i</text><text xml:space="preserve" font-family="AvenirNext-Medium" font-size="34.0" fill="#838686" transform="matrix(1.00, 0.00, -0.00, -1.00, 397.7, 440.0)">v</text><text xml:space="preserve" font-family="AvenirNext-Medium" font-size="34.0" fill="#838686" transform="matrix(1.00, 0.00, -0.00, -1.00, 414.8, 440.0)">i</text><text xml:space="preserve" font-family="AvenirNext-Medium" font-size="34.0" fill="#838686" transform="matrix(1.00, 0.00, -0.00, -1.00, 423.6, 440.0)">n</text><text xml:space="preserve" font-family="AvenirNext-Medium" font-size="34.0" fill="#838686" transform="matrix(1.00, 0.00, -0.00, -1.00, 443.4, 440.0)">g</text><text xml:space="preserve" font-family="AvenirNext-Medium" font-size="34.0" fill="#838686" transform="matrix(1.00, 0.00, -0.00, -1.00, 464.9, 440.0)"> </text><text xml:space="preserve" font-family="AvenirNext-Medium" font-size="34.0" fill="#838686" transform="matrix(1.00, 0.00, -0.00, -1.00, 473.4, 440.0)">q</text><text xml:space="preserve" font-family="AvenirNext-Medium" font-size="34.0" fill="#838686" transform="matrix(1.00, 0.00, -0.00, -1.00, 494.9, 440.0)">u</text><text xml:space="preserve" font-family="AvenirNext-Medium" font-size="34.0" fill="#838686" transform="matrix(1.00, 0.00, -0.00, -1.00, 514.7, 440.0)">e</text><text xml:space="preserve" font-family="AvenirNext-Medium" font-size="34.0" fill="#838686" transform="matrix(1.00, 0.00, -0.00, -1.00, 534.2, 440.0)">s</text><text xml:space="preserve" font-family="AvenirNext-Medium" font-size="34.0" fill="#838686" transform="matrix(1.00, 0.00, -0.00, -1.00, 549.3, 440.0)">t</text><text xml:space="preserve" font-family="AvenirNext-Medium" font-size="34.0" fill="#838686" transform="matrix(1.00, 0.00, -0.00, -1.00, 560.5, 440.0)">i</text><text xml:space="preserve" font-family="AvenirNext-Medium" font-size="34.0" fill="#838686" transform="matrix(1.00, 0.00, -0.00, -1.00, 569.3, 440.0)">o</text><text xml:space="preserve" font-family="AvenirNext-Medium" font-size="34.0" fill="#838686" transform="matrix(1.00, 0.00, -0.00, -1.00, 590.0, 440.0)">n</text><text xml:space="preserve" font-family="AvenirNext-Medium" font-size="34.0" fill="#838686" transform="matrix(1.00, 0.00, -0.00, -1.00, 609.8, 440.0)">s</text><text xml:space="preserve" font-family="AvenirNext-Medium" font-size="34.0" fill="#838686" transform="matrix(1.00, 0.00, -0.00, -1.00, 624.9, 440.0)"> </text><text xml:space="preserve" font-family="AvenirNext-Medium" font-size="34.0" fill="#838686" transform="matrix(1.00, 0.00, -0.00, -1.00, 633.4, 440.0)">a</text><text xml:space="preserve" font-family="AvenirNext-Medium" font-size="34.0" fill="#838686" transform="matrix(1.00, 0.00, -0.00, -1.00, 651.8, 440.0)">n</text><text xml:space="preserve" font-family="AvenirNext-Medium" font-size="34.0" fill="#838686" transform="matrix(1.00, 0.00, -0.00, -1.00, 671.6, 440.0)">d</text><text xml:space="preserve" font-family="AvenirNext-Medium" font-size="34.0" fill="#838686" transform="matrix(1.00, 0.00, -0.00, -1.00, 693.2, 440.0)"> </text><text xml:space="preserve" font-family="AvenirNext-Medium" font-size="34.0" fill="#838686" transform="matrix(1.00, 0.00, -0.00, -1.00, 701.7, 440.0)">p</text><text xml:space="preserve" font-family="AvenirNext-Medium" font-size="34.0" fill="#838686" transform="matrix(1.00, 0.00, -0.00, -1.00, 723.3, 440.0)">u</text><text xml:space="preserve" font-family="AvenirNext-Medium" font-size="34.0" fill="#838686" transform="matrix(1.00, 0.00, -0.00, -1.00, 743.1, 440.0)">r</text><text xml:space="preserve" font-family="AvenirNext-Medium" font-size="34.0" fill="#838686" transform="matrix(1.00, 0.00, -0.00, -1.00, 755.4, 440.0)">p</text><text xml:space="preserve" font-family="AvenirNext-Medium" font-size="34.0" fill="#838686" transform="matrix(1.00, 0.00, -0.00, -1.00, 776.9, 440.0)">o</text><text xml:space="preserve" font-family="AvenirNext-Medium" font-size="34.0" fill="#838686" transform="matrix(1.00, 0.00, -0.00, -1.00, 797.7, 440.0)">s</text><text xml:space="preserve" font-family="AvenirNext-Medium" font-size="34.0" fill="#838686" transform="matrix(1.00, 0.00, -0.00, -1.00, 812.8, 440.0)">e</text><text xml:space="preserve" font-family="AvenirNext-Medium" font-size="34.0" fill="#838686" transform="matrix(1.00, 0.00, -0.00, -1.00, 832.2, 440.0)">s</text><text xml:space="preserve" font-family="AvenirNext-Medium" font-size="34.0" fill="#838686" transform="matrix(1.00, 0.00, -0.00, -1.00, 847.3, 440.0)"> </text><text xml:space="preserve" font-family="AvenirNext-Medium" font-size="34.0" fill="#838686" transform="matrix(1.00, 0.00, -0.00, -1.00, 855.8, 440.0)">o</text><text xml:space="preserve" font-family="AvenirNext-Medium" font-size="34.0" fill="#838686" transform="matrix(1.00, 0.00, -0.00, -1.00, 876.6, 440.0)">f</text><text xml:space="preserve" font-family="AvenirNext-Medium" font-size="34.0" fill="#838686" transform="matrix(1.00, 0.00, -0.00, -1.00, 887.9, 440.0)"> </text><text xml:space="preserve" font-family="AvenirNext-Medium" font-size="34.0" fill="#838686" transform="matrix(1.00, 0.00, -0.00, -1.00, 896.4, 440.0)">t</text><text xml:space="preserve" font-family="AvenirNext-Medium" font-size="34.0" fill="#838686" transform="matrix(1.00, 0.00, -0.00, -1.00, 907.6, 440.0)">h</text><text xml:space="preserve" font-family="AvenirNext-Medium" font-size="34.0" fill="#838686" transform="matrix(1.00, 0.00, -0.00, -1.00, 927.5, 440.0)">e</text><text xml:space="preserve" font-family="AvenirNext-Medium" font-size="34.0" fill="#838686" transform="matrix(1.00, 0.00, -0.00, -1.00, 947.0, 440.0)"> </text><text xml:space="preserve" font-family="AvenirNext-Medium" font-size="34.0" fill="#838686" transform="matrix(1.00, 0.00, -0.00, -1.00, 106.0, 394.0)">p</text><text xml:space="preserve" font-family="AvenirNext-Medium" font-size="34.0" fill="#838686" transform="matrix(1.00, 0.00, -0.00, -1.00, 127.6, 394.0)">r</text><text xml:space="preserve" font-family="AvenirNext-Medium" font-size="34.0" fill="#838686" transform="matrix(1.00, 0.00, -0.00, -1.00, 139.3, 394.0)">o</text><text xml:space="preserve" font-family="AvenirNext-Medium" font-size="34.0" fill="#838686" transform="matrix(1.00, 0.00, -0.00, -1.00, 160.0, 394.0)">j</text><text xml:space="preserve" font-family="AvenirNext-Medium" font-size="34.0" fill="#838686" transform="matrix(1.00, 0.00, -0.00, -1.00, 168.8, 394.0)">e</text><text xml:space="preserve" font-family="AvenirNext-Medium" font-size="34.0" fill="#838686" transform="matrix(1.00, 0.00, -0.00, -1.00, 188.3, 394.0)">c</text><text xml:space="preserve" font-family="AvenirNext-Medium" font-size="34.0" fill="#838686" transform="matrix(1.00, 0.00, -0.00, -1.00, 205.1, 394.0)">t</text><text xml:space="preserve" font-family="AvenirNext-Medium" font-size="34.0" fill="#838686" transform="matrix(1.00, 0.00, -0.00, -1.00, 216.3, 394.0)"> </text><text xml:space="preserve" font-family="LucidaGrande" font-size="35.7" fill="#34A4DA" transform="matrix(1.00, 0.00, -0.00, -1.00, 106.0, 317.0)">▸</text><text xml:space="preserve" font-family="AvenirNext-Medium" font-size="34.0" fill="#838686" transform="matrix(1.00, 0.00, -0.00, -1.00, 141.0, 320.0)">Y</text><text xml:space="preserve" font-family="AvenirNext-Medium" font-size="34.0" fill="#838686" transform="matrix(1.00, 0.00, -0.00, -1.00, 159.1, 320.0)">o</text><text xml:space="preserve" font-family="AvenirNext-Medium" font-size="34.0" fill="#838686" transform="matrix(1.00, 0.00, -0.00, -1.00, 179.8, 320.0)">u</text><text xml:space="preserve" font-family="AvenirNext-Medium" font-size="34.0" fill="#838686" transform="matrix(1.00, 0.00, -0.00, -1.00, 199.6, 320.0)"> </text><text xml:space="preserve" font-family="AvenirNext-Medium" font-size="34.0" fill="#838686" transform="matrix(1.00, 0.00, -0.00, -1.00, 208.1, 320.0)">k</text><text xml:space="preserve" font-family="AvenirNext-Medium" font-size="34.0" fill="#838686" transform="matrix(1.00, 0.00, -0.00, -1.00, 226.0, 320.0)">n</text><text xml:space="preserve" font-family="AvenirNext-Medium" font-size="34.0" fill="#838686" transform="matrix(1.00, 0.00, -0.00, -1.00, 245.8, 320.0)">o</text><text xml:space="preserve" font-family="AvenirNext-Medium" font-size="34.0" fill="#838686" transform="matrix(1.00, 0.00, -0.00, -1.00, 266.5, 320.0)">w</text><text xml:space="preserve" font-family="AvenirNext-Medium" font-size="34.0" fill="#838686" transform="matrix(1.00, 0.00, -0.00, -1.00, 292.8, 320.0)"> </text><text xml:space="preserve" font-family="AvenirNext-Medium" font-size="34.0" fill="#838686" transform="matrix(1.00, 0.00, -0.00, -1.00, 301.3, 320.0)">y</text><text xml:space="preserve" font-family="AvenirNext-Medium" font-size="34.0" fill="#838686" transform="matrix(1.00, 0.00, -0.00, -1.00, 318.4, 320.0)">o</text><text xml:space="preserve" font-family="AvenirNext-Medium" font-size="34.0" fill="#838686" transform="matrix(1.00, 0.00, -0.00, -1.00, 339.2, 320.0)">u</text><text xml:space="preserve" font-family="AvenirNext-Medium" font-size="34.0" fill="#838686" transform="matrix(1.00, 0.00, -0.00, -1.00, 359.0, 320.0)"> </text><text xml:space="preserve" font-family="AvenirNext-Medium" font-size="34.0" fill="#838686" transform="matrix(1.00, 0.00, -0.00, -1.00, 367.5, 320.0)">w</text><text xml:space="preserve" font-family="AvenirNext-Medium" font-size="34.0" fill="#838686" transform="matrix(1.00, 0.00, -0.00, -1.00, 393.8, 320.0)">o</text><text xml:space="preserve" font-family="AvenirNext-Medium" font-size="34.0" fill="#838686" transform="matrix(1.00, 0.00, -0.00, -1.00, 414.5, 320.0)">n</text><text xml:space="preserve" font-family="AvenirNext-Medium" font-size="34.0" fill="#838686" transform="matrix(1.00, 0.00, -0.00, -1.00, 434.3, 320.0)">’</text><text xml:space="preserve" font-family="AvenirNext-Medium" font-size="34.0" fill="#838686" transform="matrix(1.00, 0.00, -0.00, -1.00, 442.6, 320.0)">t</text><text xml:space="preserve" font-family="AvenirNext-Medium" font-size="34.0" fill="#838686" transform="matrix(1.00, 0.00, -0.00, -1.00, 453.8, 320.0)"> </text><text xml:space="preserve" font-family="AvenirNext-Medium" font-size="34.0" fill="#838686" transform="matrix(1.00, 0.00, -0.00, -1.00, 462.3, 320.0)">r</text><text xml:space="preserve" font-family="AvenirNext-Medium" font-size="34.0" fill="#838686" transform="matrix(1.00, 0.00, -0.00, -1.00, 474.0, 320.0)">e</text><text xml:space="preserve" font-family="AvenirNext-Medium" font-size="34.0" fill="#838686" transform="matrix(1.00, 0.00, -0.00, -1.00, 493.5, 320.0)">m</text><text xml:space="preserve" font-family="AvenirNext-Medium" font-size="34.0" fill="#838686" transform="matrix(1.00, 0.00, -0.00, -1.00, 523.7, 320.0)">e</text><text xml:space="preserve" font-family="AvenirNext-Medium" font-size="34.0" fill="#838686" transform="matrix(1.00, 0.00, -0.00, -1.00, 543.2, 320.0)">m</text><text xml:space="preserve" font-family="AvenirNext-Medium" font-size="34.0" fill="#838686" transform="matrix(1.00, 0.00, -0.00, -1.00, 573.3, 320.0)">b</text><text xml:space="preserve" font-family="AvenirNext-Medium" font-size="34.0" fill="#838686" transform="matrix(1.00, 0.00, -0.00, -1.00, 594.9, 320.0)">e</text><text xml:space="preserve" font-family="AvenirNext-Medium" font-size="34.0" fill="#838686" transform="matrix(1.00, 0.00, -0.00, -1.00, 614.4, 320.0)">r</text><text xml:space="preserve" font-family="AvenirNext-Medium" font-size="34.0" fill="#838686" transform="matrix(1.00, 0.00, -0.00, -1.00, 626.7, 320.0)"> </text><text xml:space="preserve" font-family="AvenirNext-Medium" font-size="34.0" fill="#838686" transform="matrix(1.00, 0.00, -0.00, -1.00, 635.2, 320.0)">i</text><text xml:space="preserve" font-family="AvenirNext-Medium" font-size="34.0" fill="#838686" transform="matrix(1.00, 0.00, -0.00, -1.00, 644.0, 320.0)">n</text><text xml:space="preserve" font-family="AvenirNext-Medium" font-size="34.0" fill="#838686" transform="matrix(1.00, 0.00, -0.00, -1.00, 663.8, 320.0)"> </text><text xml:space="preserve" font-family="AvenirNext-Medium" font-size="34.0" fill="#838686" transform="matrix(1.00, 0.00, -0.00, -1.00, 672.3, 320.0)">3</text><text xml:space="preserve" font-family="AvenirNext-Medium" font-size="34.0" fill="#838686" transform="matrix(1.00, 0.00, -0.00, -1.00, 692.5, 320.0)"> </text><text xml:space="preserve" font-family="AvenirNext-Medium" font-size="34.0" fill="#838686" transform="matrix(1.00, 0.00, -0.00, -1.00, 701.0, 320.0)">m</text><text xml:space="preserve" font-family="AvenirNext-Medium" font-size="34.0" fill="#838686" transform="matrix(1.00, 0.00, -0.00, -1.00, 731.2, 320.0)">o</text><text xml:space="preserve" font-family="AvenirNext-Medium" font-size="34.0" fill="#838686" transform="matrix(1.00, 0.00, -0.00, -1.00, 751.9, 320.0)">n</text><text xml:space="preserve" font-family="AvenirNext-Medium" font-size="34.0" fill="#838686" transform="matrix(1.00, 0.00, -0.00, -1.00, 771.7, 320.0)">t</text><text xml:space="preserve" font-family="AvenirNext-Medium" font-size="34.0" fill="#838686" transform="matrix(1.00, 0.00, -0.00, -1.00, 782.9, 320.0)">h</text><text xml:space="preserve" font-family="AvenirNext-Medium" font-size="34.0" fill="#838686" transform="matrix(1.00, 0.00, -0.00, -1.00, 802.8, 320.0)">s</text></g></svg>