<?xml version="1.0" encoding="UTF-8" standalone="no"?><svg xmlns="http://www.w3.org/2000/svg" xmlns:xlink="http://www.w3.org/1999/xlink" clip-rule="evenodd" stroke-miterlimit="4.00" viewBox="0 0 1024 768"><desc>SVG generated by Keynote</desc><defs></defs><g transform="matrix(1.00, 0.00, -0.00, -1.00, 0.0, 768.0)"><path d="M 0.0 768.0 L 1024.0 768.0 L 1024.0 0.0 L 0.0 0.0 Z M 0.0 768.0 " fill="#212121"></path><image xlink:href="6715747B5CB3D0DD8D2147F8176D0AE8.png" width="715.00" height="539.00" transform="matrix(1.06, 0.00, -0.00, -1.06, 132.0, 671.0)"></image><path d="M 0.0 0.0 L 212.8 0.0 L 212.8 38.4 L 0.0 38.4 Z M 0.0 0.0 " fill="none" stroke="#5A5754" stroke-width="2.00" transform="matrix(1.00, 0.00, 0.00, -1.00, 405.6, 403.2)"></path><g><clipPath id="clip-24"><path d="M 403.6 357.2 L 620.4 357.2 L 620.4 405.2 L 403.6 405.2 Z M 403.6 357.2 "></path></clipPath><g clip-path="url(#clip-24)"><text xml:space="preserve" font-family="DINCondensed-Bold" font-weight="bold" font-size="28.0" fill="#838787" transform="matrix(1.00, 0.00, -0.00, -1.00, 411.0, 378.0)">D</text><text xml:space="preserve" font-family="DINCondensed-Bold" font-weight="bold" font-size="28.0" fill="#838787" transform="matrix(1.00, 0.00, -0.00, -1.00, 422.6, 378.0)">A</text><text xml:space="preserve" font-family="DINCondensed-Bold" font-weight="bold" font-size="28.0" fill="#838787" transform="matrix(1.00, 0.00, -0.00, -1.00, 432.4, 378.0)">T</text><text xml:space="preserve" font-family="DINCondensed-Bold" font-weight="bold" font-size="28.0" fill="#838787" transform="matrix(1.00, 0.00, -0.00, -1.00, 440.2, 378.0)">A</text><text xml:space="preserve" font-family="DINCondensed-Bold" font-weight="bold" font-size="28.0" fill="#838787" transform="matrix(1.00, 0.00, -0.00, -1.00, 451.6, 378.0)"> </text><text xml:space="preserve" font-family="DINCondensed-Bold" font-weight="bold" font-size="28.0" fill="#838787" transform="matrix(1.00, 0.00, -0.00, -1.00, 456.8, 378.0)">S</text><text xml:space="preserve" font-family="DINCondensed-Bold" font-weight="bold" font-size="28.0" fill="#838787" transform="matrix(1.00, 0.00, -0.00, -1.00, 468.2, 378.0)">C</text><text xml:space="preserve" font-family="DINCondensed-Bold" font-weight="bold" font-size="28.0" fill="#838787" transform="matrix(1.00, 0.00, -0.00, -1.00, 479.6, 378.0)">I</text><text xml:space="preserve" font-family="DINCondensed-Bold" font-weight="bold" font-size="28.0" fill="#838787" transform="matrix(1.00, 0.00, -0.00, -1.00, 485.3, 378.0)">E</text><text xml:space="preserve" font-family="DINCondensed-Bold" font-weight="bold" font-size="28.0" fill="#838787" transform="matrix(1.00, 0.00, -0.00, -1.00, 495.6, 378.0)">N</text><text xml:space="preserve" font-family="DINCondensed-Bold" font-weight="bold" font-size="28.0" fill="#838787" transform="matrix(1.00, 0.00, -0.00, -1.00, 508.1, 378.0)">C</text><text xml:space="preserve" font-family="DINCondensed-Bold" font-weight="bold" font-size="28.0" fill="#838787" transform="matrix(1.00, 0.00, -0.00, -1.00, 519.5, 378.0)">E</text><text xml:space="preserve" font-family="DINCondensed-Bold" font-weight="bold" font-size="28.0" fill="#838787" transform="matrix(1.00, 0.00, -0.00, -1.00, 529.8, 378.0)"> </text><text xml:space="preserve" font-family="DINCondensed-Bold" font-weight="bold" font-size="28.0" fill="#838787" transform="matrix(1.00, 0.00, -0.00, -1.00, 535.0, 378.0)">P</text><text xml:space="preserve" font-family="DINCondensed-Bold" font-weight="bold" font-size="28.0" fill="#838787" transform="matrix(1.00, 0.00, -0.00, -1.00, 546.4, 378.0)">I</text><text xml:space="preserve" font-family="DINCondensed-Bold" font-weight="bold" font-size="28.0" fill="#838787" transform="matrix(1.00, 0.00, -0.00, -1.00, 552.1, 378.0)">P</text><text xml:space="preserve" font-family="DINCondensed-Bold" font-weight="bold" font-size="28.0" fill="#838787" transform="matrix(1.00, 0.00, -0.00, -1.00, 563.5, 378.0)">E</text><text xml:space="preserve" font-family="DINCondensed-Bold" font-weight="bold" font-size="28.0" fill="#838787" transform="matrix(1.00, 0.00, -0.00, -1.00, 573.9, 378.0)">L</text><text xml:space="preserve" font-family="DINCondensed-Bold" font-weight="bold" font-size="28.0" fill="#838787" transform="matrix(1.00, 0.00, -0.00, -1.00, 584.3, 378.0)">I</text><text xml:space="preserve" font-family="DINCondensed-Bold" font-weight="bold" font-size="28.0" fill="#838787" transform="matrix(1.00, 0.00, -0.00, -1.00, 590.0, 378.0)">N</text><text xml:space="preserve" font-family="DINCondensed-Bold" font-weight="bold" font-size="28.0" fill="#838787" transform="matrix(1.00, 0.00, -0.00, -1.00, 602.4, 378.0)">E</text></g></g><text xml:space="preserve" font-family="AvenirNext-MediumItalic" font-style="italic" font-size="14.0" fill="#838686" transform="matrix(1.00, 0.00, -0.00, -1.00, 402.0, 62.0)">P</text><text xml:space="preserve" font-family="AvenirNext-MediumItalic" font-style="italic" font-size="14.0" fill="#838686" transform="matrix(1.00, 0.00, -0.00, -1.00, 409.7, 62.0)">r</text><text xml:space="preserve" font-family="AvenirNext-MediumItalic" font-style="italic" font-size="14.0" fill="#838686" transform="matrix(1.00, 0.00, -0.00, -1.00, 414.3, 62.0)">a</text><text xml:space="preserve" font-family="AvenirNext-MediumItalic" font-style="italic" font-size="14.0" fill="#838686" transform="matrix(1.00, 0.00, -0.00, -1.00, 421.8, 62.0)">c</text><text xml:space="preserve" font-family="AvenirNext-MediumItalic" font-style="italic" font-size="14.0" fill="#838686" transform="matrix(1.00, 0.00, -0.00, -1.00, 428.8, 62.0)">t</text><text xml:space="preserve" font-family="AvenirNext-MediumItalic" font-style="italic" font-size="14.0" fill="#838686" transform="matrix(1.00, 0.00, -0.00, -1.00, 433.3, 62.0)">i</text><text xml:space="preserve" font-family="AvenirNext-MediumItalic" font-style="italic" font-size="14.0" fill="#838686" transform="matrix(1.00, 0.00, -0.00, -1.00, 436.9, 62.0)">c</text><text xml:space="preserve" font-family="AvenirNext-MediumItalic" font-style="italic" font-size="14.0" fill="#838686" transform="matrix(1.00, 0.00, -0.00, -1.00, 443.9, 62.0)">a</text><text xml:space="preserve" font-family="AvenirNext-MediumItalic" font-style="italic" font-size="14.0" fill="#838686" transform="matrix(1.00, 0.00, -0.00, -1.00, 451.4, 62.0)">l</text><text xml:space="preserve" font-family="AvenirNext-MediumItalic" font-style="italic" font-size="14.0" fill="#838686" transform="matrix(1.00, 0.00, -0.00, -1.00, 455.0, 62.0)"> </text><text xml:space="preserve" font-family="AvenirNext-MediumItalic" font-style="italic" font-size="14.0" fill="#838686" transform="matrix(1.00, 0.00, -0.00, -1.00, 458.5, 62.0)">D</text><text xml:space="preserve" font-family="AvenirNext-MediumItalic" font-style="italic" font-size="14.0" fill="#838686" transform="matrix(1.00, 0.00, -0.00, -1.00, 469.1, 62.0)">a</text><text xml:space="preserve" font-family="AvenirNext-MediumItalic" font-style="italic" font-size="14.0" fill="#838686" transform="matrix(1.00, 0.00, -0.00, -1.00, 476.5, 62.0)">t</text><text xml:space="preserve" font-family="AvenirNext-MediumItalic" font-style="italic" font-size="14.0" fill="#838686" transform="matrix(1.00, 0.00, -0.00, -1.00, 481.0, 62.0)">a</text><text xml:space="preserve" font-family="AvenirNext-MediumItalic" font-style="italic" font-size="14.0" fill="#838686" transform="matrix(1.00, 0.00, -0.00, -1.00, 488.5, 62.0)"> </text><text xml:space="preserve" font-family="AvenirNext-MediumItalic" font-style="italic" font-size="14.0" fill="#838686" transform="matrix(1.00, 0.00, -0.00, -1.00, 492.0, 62.0)">S</text><text xml:space="preserve" font-family="AvenirNext-MediumItalic" font-style="italic" font-size="14.0" fill="#838686" transform="matrix(1.00, 0.00, -0.00, -1.00, 500.0, 62.0)">c</text><text xml:space="preserve" font-family="AvenirNext-MediumItalic" font-style="italic" font-size="14.0" fill="#838686" transform="matrix(1.00, 0.00, -0.00, -1.00, 507.0, 62.0)">i</text><text xml:space="preserve" font-family="AvenirNext-MediumItalic" font-style="italic" font-size="14.0" fill="#838686" transform="matrix(1.00, 0.00, -0.00, -1.00, 510.6, 62.0)">e</text><text xml:space="preserve" font-family="AvenirNext-MediumItalic" font-style="italic" font-size="14.0" fill="#838686" transform="matrix(1.00, 0.00, -0.00, -1.00, 518.5, 62.0)">n</text><text xml:space="preserve" font-family="AvenirNext-MediumItalic" font-style="italic" font-size="14.0" fill="#838686" transform="matrix(1.00, 0.00, -0.00, -1.00, 526.6, 62.0)">c</text><text xml:space="preserve" font-family="AvenirNext-MediumItalic" font-style="italic" font-size="14.0" fill="#838686" transform="matrix(1.00, 0.00, -0.00, -1.00, 533.6, 62.0)">e</text><text xml:space="preserve" font-family="AvenirNext-MediumItalic" font-style="italic" font-size="14.0" fill="#838686" transform="matrix(1.00, 0.00, -0.00, -1.00, 541.5, 62.0)"> </text><text xml:space="preserve" font-family="AvenirNext-MediumItalic" font-style="italic" font-size="14.0" fill="#838686" transform="matrix(1.00, 0.00, -0.00, -1.00, 545.0, 62.0)">C</text><text xml:space="preserve" font-family="AvenirNext-MediumItalic" font-style="italic" font-size="14.0" fill="#838686" transform="matrix(1.00, 0.00, -0.00, -1.00, 554.6, 62.0)">o</text><text xml:space="preserve" font-family="AvenirNext-MediumItalic" font-style="italic" font-size="14.0" fill="#838686" transform="matrix(1.00, 0.00, -0.00, -1.00, 563.0, 62.0)">o</text><text xml:space="preserve" font-family="AvenirNext-MediumItalic" font-style="italic" font-size="14.0" fill="#838686" transform="matrix(1.00, 0.00, -0.00, -1.00, 571.4, 62.0)">k</text><text xml:space="preserve" font-family="AvenirNext-MediumItalic" font-style="italic" font-size="14.0" fill="#838686" transform="matrix(1.00, 0.00, -0.00, -1.00, 578.5, 62.0)">b</text><text xml:space="preserve" font-family="AvenirNext-MediumItalic" font-style="italic" font-size="14.0" fill="#838686" transform="matrix(1.00, 0.00, -0.00, -1.00, 587.3, 62.0)">o</text><text xml:space="preserve" font-family="AvenirNext-MediumItalic" font-style="italic" font-size="14.0" fill="#838686" transform="matrix(1.00, 0.00, -0.00, -1.00, 595.7, 62.0)">o</text><text xml:space="preserve" font-family="AvenirNext-MediumItalic" font-style="italic" font-size="14.0" fill="#838686" transform="matrix(1.00, 0.00, -0.00, -1.00, 604.1, 62.0)">k</text><text xml:space="preserve" font-family="AvenirNext-Medium" font-size="14.0" fill="#838686" transform="matrix(1.00, 0.00, -0.00, -1.00, 611.2, 62.0)">,</text><text xml:space="preserve" font-family="AvenirNext-Medium" font-size="14.0" fill="#838686" transform="matrix(1.00, 0.00, -0.00, -1.00, 614.4, 62.0)"> </text><text xml:space="preserve" font-family="AvenirNext-Medium" font-size="14.0" fill="#838686" transform="matrix(1.00, 0.00, -0.00, -1.00, 617.9, 62.0)">O</text><text xml:space="preserve" font-family="AvenirNext-Medium" font-size="14.0" fill="#838686" transform="matrix(1.00, 0.00, -0.00, -1.00, 629.8, 62.0)">j</text><text xml:space="preserve" font-family="AvenirNext-Medium" font-size="14.0" fill="#838686" transform="matrix(1.00, 0.00, -0.00, -1.00, 633.4, 62.0)">e</text><text xml:space="preserve" font-family="AvenirNext-Medium" font-size="14.0" fill="#838686" transform="matrix(1.00, 0.00, -0.00, -1.00, 641.5, 62.0)">d</text><text xml:space="preserve" font-family="AvenirNext-Medium" font-size="14.0" fill="#838686" transform="matrix(1.00, 0.00, -0.00, -1.00, 650.3, 62.0)">a</text><text xml:space="preserve" font-family="AvenirNext-Medium" font-size="14.0" fill="#838686" transform="matrix(1.00, 0.00, -0.00, -1.00, 657.9, 62.0)">,</text><text xml:space="preserve" font-family="AvenirNext-Medium" font-size="14.0" fill="#838686" transform="matrix(1.00, 0.00, -0.00, -1.00, 661.2, 62.0)"> </text><text xml:space="preserve" font-family="AvenirNext-Medium" font-size="14.0" fill="#838686" transform="matrix(1.00, 0.00, -0.00, -1.00, 664.7, 62.0)">M</text><text xml:space="preserve" font-family="AvenirNext-Medium" font-size="14.0" fill="#838686" transform="matrix(1.00, 0.00, -0.00, -1.00, 677.3, 62.0)">u</text><text xml:space="preserve" font-family="AvenirNext-Medium" font-size="14.0" fill="#838686" transform="matrix(1.00, 0.00, -0.00, -1.00, 685.4, 62.0)">r</text><text xml:space="preserve" font-family="AvenirNext-Medium" font-size="14.0" fill="#838686" transform="matrix(1.00, 0.00, -0.00, -1.00, 690.5, 62.0)">p</text><text xml:space="preserve" font-family="AvenirNext-Medium" font-size="14.0" fill="#838686" transform="matrix(1.00, 0.00, -0.00, -1.00, 699.4, 62.0)">h</text><text xml:space="preserve" font-family="AvenirNext-Medium" font-size="14.0" fill="#838686" transform="matrix(1.00, 0.00, -0.00, -1.00, 707.6, 62.0)">y</text><text xml:space="preserve" font-family="AvenirNext-Medium" font-size="14.0" fill="#838686" transform="matrix(1.00, 0.00, -0.00, -1.00, 714.1, 62.0)">,</text><text xml:space="preserve" font-family="AvenirNext-Medium" font-size="14.0" fill="#838686" transform="matrix(1.00, 0.00, -0.00, -1.00, 717.3, 62.0)"> </text><text xml:space="preserve" font-family="AvenirNext-Medium" font-size="14.0" fill="#838686" transform="matrix(1.00, 0.00, -0.00, -1.00, 720.8, 62.0)">B</text><text xml:space="preserve" font-family="AvenirNext-Medium" font-size="14.0" fill="#838686" transform="matrix(1.00, 0.00, -0.00, -1.00, 729.8, 62.0)">e</text><text xml:space="preserve" font-family="AvenirNext-Medium" font-size="14.0" fill="#838686" transform="matrix(1.00, 0.00, -0.00, -1.00, 737.8, 62.0)">n</text><text xml:space="preserve" font-family="AvenirNext-Medium" font-size="14.0" fill="#838686" transform="matrix(1.00, 0.00, -0.00, -1.00, 746.0, 62.0)">g</text><text xml:space="preserve" font-family="AvenirNext-Medium" font-size="14.0" fill="#838686" transform="matrix(1.00, 0.00, -0.00, -1.00, 754.8, 62.0)">f</text><text xml:space="preserve" font-family="AvenirNext-Medium" font-size="14.0" fill="#838686" transform="matrix(1.00, 0.00, -0.00, -1.00, 759.2, 62.0)">o</text><text xml:space="preserve" font-family="AvenirNext-Medium" font-size="14.0" fill="#838686" transform="matrix(1.00, 0.00, -0.00, -1.00, 767.7, 62.0)">r</text><text xml:space="preserve" font-family="AvenirNext-Medium" font-size="14.0" fill="#838686" transform="matrix(1.00, 0.00, -0.00, -1.00, 772.6, 62.0)">t</text><text xml:space="preserve" font-family="AvenirNext-Medium" font-size="14.0" fill="#838686" transform="matrix(1.00, 0.00, -0.00, -1.00, 777.2, 62.0)">,</text><text xml:space="preserve" font-family="AvenirNext-Medium" font-size="14.0" fill="#838686" transform="matrix(1.00, 0.00, -0.00, -1.00, 780.4, 62.0)"> </text><text xml:space="preserve" font-family="AvenirNext-Medium" font-size="14.0" fill="#838686" transform="matrix(1.00, 0.00, -0.00, -1.00, 783.9, 62.0)">D</text><text xml:space="preserve" font-family="AvenirNext-Medium" font-size="14.0" fill="#838686" transform="matrix(1.00, 0.00, -0.00, -1.00, 794.6, 62.0)">a</text><text xml:space="preserve" font-family="AvenirNext-Medium" font-size="14.0" fill="#838686" transform="matrix(1.00, 0.00, -0.00, -1.00, 802.2, 62.0)">s</text><text xml:space="preserve" font-family="AvenirNext-Medium" font-size="14.0" fill="#838686" transform="matrix(1.00, 0.00, -0.00, -1.00, 808.4, 62.0)">g</text><text xml:space="preserve" font-family="AvenirNext-Medium" font-size="14.0" fill="#838686" transform="matrix(1.00, 0.00, -0.00, -1.00, 817.3, 62.0)">u</text><text xml:space="preserve" font-family="AvenirNext-Medium" font-size="14.0" fill="#838686" transform="matrix(1.00, 0.00, -0.00, -1.00, 825.4, 62.0)">p</text><text xml:space="preserve" font-family="AvenirNext-Medium" font-size="14.0" fill="#838686" transform="matrix(1.00, 0.00, -0.00, -1.00, 834.3, 62.0)">t</text><text xml:space="preserve" font-family="AvenirNext-Medium" font-size="14.0" fill="#838686" transform="matrix(1.00, 0.00, -0.00, -1.00, 838.9, 62.0)">a</text><text xml:space="preserve" font-family="AvenirNext-Medium" font-size="14.0" fill="#838686" transform="matrix(1.00, 0.00, -0.00, -1.00, 846.5, 62.0)">,</text><text xml:space="preserve" font-family="AvenirNext-Medium" font-size="14.0" fill="#838686" transform="matrix(1.00, 0.00, -0.00, -1.00, 849.7, 62.0)"> </text><text xml:space="preserve" font-family="AvenirNext-Medium" font-size="14.0" fill="#838686" transform="matrix(1.00, 0.00, -0.00, -1.00, 853.2, 62.0)">2</text><text xml:space="preserve" font-family="AvenirNext-Medium" font-size="14.0" fill="#838686" transform="matrix(1.00, 0.00, -0.00, -1.00, 861.5, 62.0)">0</text><text xml:space="preserve" font-family="AvenirNext-Medium" font-size="14.0" fill="#838686" transform="matrix(1.00, 0.00, -0.00, -1.00, 869.9, 62.0)">1</text><text xml:space="preserve" font-family="AvenirNext-Medium" font-size="14.0" fill="#838686" transform="matrix(1.00, 0.00, -0.00, -1.00, 878.2, 62.0)">4</text></g></svg>