<?xml version="1.0" encoding="UTF-8" standalone="no"?><svg xmlns="http://www.w3.org/2000/svg" xmlns:xlink="http://www.w3.org/1999/xlink" clip-rule="evenodd" stroke-miterlimit="4.00" viewBox="0 0 449 26"><desc>SVG generated by Keynote</desc><defs></defs><g transform="matrix(1.00, 0.00, -0.00, -1.00, 0.0, 26.0)"><text xml:space="preserve" font-family="AvenirNext-Medium" font-size="22.0" fill="#838686" transform="matrix(1.00, 0.00, -0.00, -1.00, 2.0, 8.0)">S</text><text xml:space="preserve" font-family="AvenirNext-Medium" font-size="22.0" fill="#838686" transform="matrix(1.00, 0.00, -0.00, -1.00, 14.5, 8.0)">e</text><text xml:space="preserve" font-family="AvenirNext-Medium" font-size="22.0" fill="#838686" transform="matrix(1.00, 0.00, -0.00, -1.00, 27.0, 8.0)">a</text><text xml:space="preserve" font-family="AvenirNext-Medium" font-size="22.0" fill="#838686" transform="matrix(1.00, 0.00, -0.00, -1.00, 38.9, 8.0)">r</text><text xml:space="preserve" font-family="AvenirNext-Medium" font-size="22.0" fill="#838686" transform="matrix(1.00, 0.00, -0.00, -1.00, 46.5, 8.0)">c</text><text xml:space="preserve" font-family="AvenirNext-Medium" font-size="22.0" fill="#838686" transform="matrix(1.00, 0.00, -0.00, -1.00, 57.4, 8.0)">h</text><text xml:space="preserve" font-family="AvenirNext-Medium" font-size="22.0" fill="#838686" transform="matrix(1.00, 0.00, -0.00, -1.00, 70.2, 8.0)"> </text><text xml:space="preserve" font-family="AvenirNext-Medium" font-size="22.0" fill="#838686" transform="matrix(1.00, 0.00, -0.00, -1.00, 75.7, 8.0)">“</text><text xml:space="preserve" font-family="AvenirNext-Medium" font-size="22.0" fill="#838686" transform="matrix(1.00, 0.00, -0.00, -1.00, 85.1, 8.0)">h</text><text xml:space="preserve" font-family="AvenirNext-Medium" font-size="22.0" fill="#838686" transform="matrix(1.00, 0.00, -0.00, -1.00, 97.9, 8.0)">a</text><text xml:space="preserve" font-family="AvenirNext-Medium" font-size="22.0" fill="#838686" transform="matrix(1.00, 0.00, -0.00, -1.00, 109.8, 8.0)">d</text><text xml:space="preserve" font-family="AvenirNext-Medium" font-size="22.0" fill="#838686" transform="matrix(1.00, 0.00, -0.00, -1.00, 123.8, 8.0)">l</text><text xml:space="preserve" font-family="AvenirNext-Medium" font-size="22.0" fill="#838686" transform="matrix(1.00, 0.00, -0.00, -1.00, 129.5, 8.0)">e</text><text xml:space="preserve" font-family="AvenirNext-Medium" font-size="22.0" fill="#838686" transform="matrix(1.00, 0.00, -0.00, -1.00, 142.1, 8.0)">y</text><text xml:space="preserve" font-family="AvenirNext-Medium" font-size="22.0" fill="#838686" transform="matrix(1.00, 0.00, -0.00, -1.00, 153.2, 8.0)"> </text><text xml:space="preserve" font-family="AvenirNext-Medium" font-size="22.0" fill="#838686" transform="matrix(1.00, 0.00, -0.00, -1.00, 158.7, 8.0)">t</text><text xml:space="preserve" font-family="AvenirNext-Medium" font-size="22.0" fill="#838686" transform="matrix(1.00, 0.00, -0.00, -1.00, 166.0, 8.0)">i</text><text xml:space="preserve" font-family="AvenirNext-Medium" font-size="22.0" fill="#838686" transform="matrix(1.00, 0.00, -0.00, -1.00, 171.7, 8.0)">d</text><text xml:space="preserve" font-family="AvenirNext-Medium" font-size="22.0" fill="#838686" transform="matrix(1.00, 0.00, -0.00, -1.00, 185.6, 8.0)">y</text><text xml:space="preserve" font-family="AvenirNext-Medium" font-size="22.0" fill="#838686" transform="matrix(1.00, 0.00, -0.00, -1.00, 196.7, 8.0)"> </text><text xml:space="preserve" font-family="AvenirNext-Medium" font-size="22.0" fill="#838686" transform="matrix(1.00, 0.00, -0.00, -1.00, 202.2, 8.0)">d</text><text xml:space="preserve" font-family="AvenirNext-Medium" font-size="22.0" fill="#838686" transform="matrix(1.00, 0.00, -0.00, -1.00, 216.2, 8.0)">a</text><text xml:space="preserve" font-family="AvenirNext-Medium" font-size="22.0" fill="#838686" transform="matrix(1.00, 0.00, -0.00, -1.00, 227.9, 8.0)">t</text><text xml:space="preserve" font-family="AvenirNext-Medium" font-size="22.0" fill="#838686" transform="matrix(1.00, 0.00, -0.00, -1.00, 235.1, 8.0)">a</text><text xml:space="preserve" font-family="AvenirNext-Medium" font-size="22.0" fill="#838686" transform="matrix(1.00, 0.00, -0.00, -1.00, 246.5, 8.0)">”</text><text xml:space="preserve" font-family="AvenirNext-Medium" font-size="22.0" fill="#838686" transform="matrix(1.00, 0.00, -0.00, -1.00, 253.3, 8.0)">,</text><text xml:space="preserve" font-family="AvenirNext-Medium" font-size="22.0" fill="#838686" transform="matrix(1.00, 0.00, -0.00, -1.00, 258.3, 8.0)"> </text><text xml:space="preserve" font-family="AvenirNext-Medium" font-size="22.0" fill="#838686" transform="matrix(1.00, 0.00, -0.00, -1.00, 263.8, 8.0)">“</text><text xml:space="preserve" font-family="AvenirNext-Medium" font-size="22.0" fill="#838686" transform="matrix(1.00, 0.00, -0.00, -1.00, 273.2, 8.0)">t</text><text xml:space="preserve" font-family="AvenirNext-Medium" font-size="22.0" fill="#838686" transform="matrix(1.00, 0.00, -0.00, -1.00, 280.4, 8.0)">i</text><text xml:space="preserve" font-family="AvenirNext-Medium" font-size="22.0" fill="#838686" transform="matrix(1.00, 0.00, -0.00, -1.00, 286.1, 8.0)">d</text><text xml:space="preserve" font-family="AvenirNext-Medium" font-size="22.0" fill="#838686" transform="matrix(1.00, 0.00, -0.00, -1.00, 300.1, 8.0)">y</text><text xml:space="preserve" font-family="AvenirNext-Medium" font-size="22.0" fill="#838686" transform="matrix(1.00, 0.00, -0.00, -1.00, 311.2, 8.0)">r</text><text xml:space="preserve" font-family="AvenirNext-Medium" font-size="22.0" fill="#838686" transform="matrix(1.00, 0.00, -0.00, -1.00, 319.7, 8.0)">”</text><text xml:space="preserve" font-family="AvenirNext-Medium" font-size="22.0" fill="#838686" transform="matrix(1.00, 0.00, -0.00, -1.00, 326.4, 8.0)">,</text><text xml:space="preserve" font-family="AvenirNext-Medium" font-size="22.0" fill="#838686" transform="matrix(1.00, 0.00, -0.00, -1.00, 331.5, 8.0)"> </text><text xml:space="preserve" font-family="AvenirNext-Medium" font-size="22.0" fill="#838686" transform="matrix(1.00, 0.00, -0.00, -1.00, 337.0, 8.0)">“</text><text xml:space="preserve" font-family="AvenirNext-Medium" font-size="22.0" fill="#838686" transform="matrix(1.00, 0.00, -0.00, -1.00, 346.3, 8.0)">t</text><text xml:space="preserve" font-family="AvenirNext-Medium" font-size="22.0" fill="#838686" transform="matrix(1.00, 0.00, -0.00, -1.00, 353.6, 8.0)">i</text><text xml:space="preserve" font-family="AvenirNext-Medium" font-size="22.0" fill="#838686" transform="matrix(1.00, 0.00, -0.00, -1.00, 359.3, 8.0)">d</text><text xml:space="preserve" font-family="AvenirNext-Medium" font-size="22.0" fill="#838686" transform="matrix(1.00, 0.00, -0.00, -1.00, 373.3, 8.0)">y</text><text xml:space="preserve" font-family="AvenirNext-Medium" font-size="22.0" fill="#838686" transform="matrix(1.00, 0.00, -0.00, -1.00, 384.3, 8.0)">v</text><text xml:space="preserve" font-family="AvenirNext-Medium" font-size="22.0" fill="#838686" transform="matrix(1.00, 0.00, -0.00, -1.00, 395.4, 8.0)">e</text><text xml:space="preserve" font-family="AvenirNext-Medium" font-size="22.0" fill="#838686" transform="matrix(1.00, 0.00, -0.00, -1.00, 408.0, 8.0)">r</text><text xml:space="preserve" font-family="AvenirNext-Medium" font-size="22.0" fill="#838686" transform="matrix(1.00, 0.00, -0.00, -1.00, 416.0, 8.0)">s</text><text xml:space="preserve" font-family="AvenirNext-Medium" font-size="22.0" fill="#838686" transform="matrix(1.00, 0.00, -0.00, -1.00, 425.8, 8.0)">e</text><text xml:space="preserve" font-family="AvenirNext-Medium" font-size="22.0" fill="#838686" transform="matrix(1.00, 0.00, -0.00, -1.00, 438.4, 8.0)">”</text></g></svg>